<svg xmlns="http://www.w3.org/2000/svg" xmlns:xlink="http://www.w3.org/1999/xlink" width="1348" height="1473" fill="none" xmlns:v="https://vecta.io/nano"><style><![CDATA[.B{fill:#fff}.C{fill:#fdb9a9}.D{fill:#423371}.E{opacity:.1}.F{fill:#020202}.G{fill:#68e1fd}.H{fill:#efac88}]]></style><g clip-path="url(#J)"><path d="M1347 633v840H1V749.77l.498 6.003c7.675 75.445 65.291 137.982 131.281 174.604 105.662 58.135 232.856 62.037 352.275 46.027 38.776-5.203 77.851-12.407 117.125-11.306 51.835 1.3 101.975 16.91 152.812 27.016 97.289 19.416 199.563 18.506 294.259-11.307s181.12-89.954 234.95-173.603c26.22-41.425 44.86-87.152 55.22-135.081 2.89-12.807 5.19-25.815 6.78-38.923l.8-.2z" fill="url(#A)" fill-opacity=".8"/><g clip-path="url(#K)"><path d="M823.067 38.133c56.565 29.372 103.51 73.805 147.452 120.663 59.531 63.525 135.411 107.992 204.701 159.426 78.64 58.334 148.82 97.33 166.52 193.778 7.54 40.984 9.11 119.372 0 160.082-10.4 47.895-29.14 93.583-55.37 134.973-53.9 83.607-140.46 143.716-235.4 173.532-94.95 29.813-197.403 30.733-294.908 11.338-50.936-10.075-101.259-25.614-153.184-26.946-39.337-1.025-78.469 6.147-117.327 11.339-119.682 15.983-247.176 12.09-353.074-45.97C66.359 893.735 8.599 831.235.923 755.825c-8.802-86.407 46.842-160.86 103.203-219.74A828.01 828.01 0 0 0 223.534 377.58c14.739-25.171 29.887-45.116 38.928-73.702 8.665-27.322 14.022-55.635 24.222-82.514 11.672-30.576 29.59-58.378 52.608-81.626 37.324-37.568 86.043-61.475 133.738-84.597 27.975-13.661 56.019-27.117 85.496-36.817 68.087-22.203 141.32-23.085 209.92-2.527a317.9 317.9 0 0 1 54.621 22.336z" fill="url(#B)"/><path opacity=".3" d="M684.469 862.667c4.838 1.314 9.335 3.826 13.145 7.341 9.914 10.293 5.082 29.985-5.898 38.939s-25.474 10.293-39.121 11.631c-45.331 4.249-90.417 11.189-135.058 20.79-43.451 9.366-87.529 21.236-132.141 19.452-15.686-.617-54.274-1.441-65.599-15.369-14.557-17.909 16.533-38.665 29.49-48.477 53.333-40.517 115.889-31.323 177.536-41.512 52.235-8.645 106.791-10.738 157.646 7.205z" fill="url(#C)"/><path opacity=".3" d="M906.507 764.522c-7.239 2.507-14.602 6.548-18.519 13.758-1.908 4.265-3.42 8.735-4.512 13.341-2.581 8.04-6.728 15.347-12.145 21.398s-11.969 10.698-19.188 13.608c-4.136 1.637-8.774 2.926-11.343 6.966-1.228 2.173-1.852 4.699-1.797 7.263s.79 5.054 2.11 7.158c2.712 4.141 6.398 7.371 10.654 9.335 15.259 7.942 33.025 7.942 49.569 4.319s32.305-10.45 48.38-16.267c20.785-7.287 42.146-12.361 63.794-15.151 17.14-2.195 34.47-2.996 51.01-8.848 16.55-5.852 32.15-17.729 38.48-35.563-20.49-23.373-53.27-26.194-82.44-23.686-37.317 3.135-77.487-10.241-114.053 2.369z" fill="url(#D)"/><path opacity=".3" d="M177.767 732.539c-7.265 2.491-14.656 6.415-18.588 13.479-1.926 4.177-3.454 8.557-4.56 13.07-2.576 7.887-6.733 15.054-12.172 20.985s-12.024 10.478-19.28 13.312c-4.12 1.604-8.775 2.866-11.385 6.825a13.79 13.79 0 0 0-1.779 7.115c.056 2.508.783 4.945 2.093 7.013 2.709 4.085 6.427 7.255 10.725 9.146 15.317 7.78 33.15 7.78 49.757 4.231s32.426-10.237 48.561-15.936c20.863-7.14 42.305-12.111 64.035-14.845 17.173-2.15 34.597-2.935 51.203-8.634s32.27-17.404 38.623-34.876c-20.569-22.899-53.468-25.663-82.749-23.206-37.49 2.969-77.811-10.272-114.484 2.321z" fill="url(#E)"/><path opacity=".3" d="M481.484 686.472c-19.163 3.766-38.829 7.875-55.353 19.106-5.687 3.835-11.216 9.21-12.032 16.367-.911 7.978 4.618 15.442 11.309 18.797 6.928 2.823 14.33 3.99 21.708 3.424l86.265.583 63.867.41c7.728 0 16.619-1.232 24.221 0 13.917 2.534 25.98 9.93 40.84 10.683 19.131.993 38.2-2.876 56.892-6.848 11.687-2.465 23.656-5.067 33.866-11.813 4.115-2.705 8.23-6.848 7.916-12.121-.434-3.159-1.867-6.054-4.052-8.183-14.546-16.367-38.39-15.032-58.778-20.065-21.676-5.376-41.248-19.003-63.207-22.975-10.08-1.437-20.26-1.85-30.41-1.233-18.126.48-36.441-2.157-54.316.891l-68.736 12.977z" fill="url(#F)"/><path d="M587.675 654.063c-17.486-3.961-14.071 20.868-18.682 30.055a49.23 49.23 0 0 1-10.792 12.398 22.13 22.13 0 0 0-7.855 14.071 4.98 4.98 0 0 0 .615 2.971 5.74 5.74 0 0 0 3.415 2.117c9.983 2.906 20.702 1.842 29.918-2.971 4.306-2.058 7.881-5.383 10.246-9.529a32.72 32.72 0 0 0 2.63-14.105c.512-10.348 5.089-31.796-9.495-35.007z" class="C"/><path d="M572.064 705.087s-49.761 2.118-28.689 17.76 52.596-3.791 55.738-7.514.581-9.665.581-9.665l-27.63-.581z" class="G"/><path d="M596.963 711.918c-4.44 5.396-27.835 12.671-38.149 11.919s-19.638-5.567-18.648-12.261 19.297-22.233 22.746-22.199 6.148 7.992 13.081 9.631a18.28 18.28 0 0 0 9.185-.814c2.942-1.053 5.565-2.842 7.618-5.197.629-.863 1.538-1.482 2.572-1.75s2.129-.168 3.097.282c1.416 3.267 2.019 6.828 1.758 10.379a22.04 22.04 0 0 1-3.26 10.01h0z" class="B"/><path d="M647.648 663.865c-17.486-4.065-14.071 20.731-18.682 29.918a48.82 48.82 0 0 1-10.792 12.431c-4.271 3.556-7.07 8.57-7.855 14.072a4.99 4.99 0 0 0 .614 2.971 5.74 5.74 0 0 0 3.416 2.117c9.984 2.888 20.697 1.824 29.918-2.971a23.91 23.91 0 0 0 10.246-9.529 32.72 32.72 0 0 0 2.629-14.105c.513-10.451 5.089-31.796-9.494-34.904z" class="C"/><path d="M632.173 714.685s-49.761 2.083-28.688 17.759 52.561-3.825 55.601-7.377.581-9.699.581-9.699l-27.494-.683z" class="G"/><path d="M656.936 721.448c-4.44 5.43-27.801 12.67-38.149 11.953s-19.638-5.567-18.648-12.261 19.297-22.268 22.746-22.199 6.182 7.991 13.081 9.597c3.086.517 6.253.237 9.2-.815a18.34 18.34 0 0 0 7.637-5.196 4.58 4.58 0 0 1 2.554-1.747c1.028-.267 2.118-.169 3.081.278a22.04 22.04 0 0 1 1.758 10.38c-.262 3.551-1.381 6.985-3.26 10.01h0z" class="B"/><g fill="#694d69"><path d="M602.564 438.182l23.395 245.902 33.675-4.167c13.32-60.007 10.041-239.618 10.041-239.618l-67.111-2.117z"/><path d="M625.958 431.521l-23.395 245.902-33.914-4.064c-19.262-155.67-3.415-252.733-3.415-252.733l60.724 10.895z"/></g><path d="M568.378 342.553c-.41-4.509-1.605-8.983-2.083-13.662-1.094-9.292-.921-18.691.512-27.937 1.588-9.828 4.555-19.382 8.812-28.381 3.893-7.821 10.894-11.134 18.818-15.027 6.6-3.582 13.76-6.018 21.175-7.207a53.9 53.9 0 0 1 15.71.888c15.881 3.006 36.817 11.202 47.814 23.907 8.163 9.392 9.119 22.883 9.358 35.349.342 17.167-.011 34.335-1.058 51.503 0 2.493-.274 4.986-.478 7.479-1.469 18.818-3.006 38.354-8.368 56.558-1.673 5.703-3.415 11.441-8.743 14.515-12.432 7.206-31.455 3.415-44.877 1.366-17.794-2.528-36.1-5.157-51.879-13.661a14.92 14.92 0 0 1-7.513-7.241c-1.367-3.859.307-8.06 1.502-11.988 5.328-17.588 1.196-36.065 1.196-53.996 0-3.244.409-6.557.409-9.802-.034-1.024-.307-1.844-.307-2.663z" class="B"/><path d="M611.615 273.086c1.77-3.358 3.875-6.528 6.284-9.461.305-.398.704-.715 1.161-.922.415-.103.849-.103 1.264 0l15.232 2.425c.712.033 1.4.27 1.981.683a3.41 3.41 0 0 1 1.025 1.571 14.72 14.72 0 0 1-1.435 10.861 149.85 149.85 0 0 1-15.676 24.146c-3.422 4.605-6.342 9.562-8.709 14.788-1.127 2.63-1.503 5.601-2.596 8.231s-3.415 1.264-5.362.82l-23.497-4.953-11.749-2.459c-1.707-.341-3.039-.341-2.151-2.356a5.07 5.07 0 0 1 1.254-1.546c.516-.428 1.111-.75 1.751-.947 1.848-.467 3.734-.765 5.636-.888a28.73 28.73 0 0 0 10.724-5.192c2.51-1.619 4.895-3.422 7.138-5.396 8.47-7.752 12.329-19.228 17.725-29.405z" class="E F"/><path d="M586.034 258.093a15.25 15.25 0 0 1 6.182-4.918c5.567-1.913 11.1 2.766 16.837 4.098 4.304.956 9.666.41 12.227 4.03.759 1.541 1.154 3.235 1.154 4.952a11.21 11.21 0 0 1-1.154 4.953 333.91 333.91 0 0 1-17.76 45.082c-2.8 5.84-6.454 11.065-9.426 16.666-3.415 6.182-4.132 12.705-8.948 18.238s-13.661 9.426-20.799 6.592a19.85 19.85 0 0 1-8.709-7.446c-8.914-12.876-2.698-26.605 2.22-39.515 3.552-9.085 26.4-50.751 28.176-52.732z" class="B"/><path d="M662.845 442.587c-5.977 1.093-13.081 5.397-19.263 4.235-6.862-3.282-14.273-5.262-21.858-5.84-10.246-1.195-20.935-5.84-30.737-8.982-4.138-.947-7.976-2.906-11.168-5.704-5.977-6.215-4.201-16.188-2.972-24.726 1.773-12.483 1.507-25.171-.785-37.569-.895-5.839-2.418-11.564-4.543-17.076-1.878-4.304-4.815-7.104-4.098-12.227.615-4.508 3.723-9.802 8.777-10.246 2.677.094 5.282.895 7.548 2.322 6.417 3.448 13.33 5.879 20.492 7.207 8.712 1.076 17.551-.343 25.489-4.091a46.38 46.38 0 0 0 19.354-17.084c4.679-7.377 9.324-41.428 22.404-36.715a31.56 31.56 0 0 1 11.083 7.921c3.073 3.416 5.364 7.461 6.711 11.854 2.56 8.869 3.622 18.103 3.142 27.322-.273 23.907-5.02 48.327-8.06 72.063-1.195 8.983-2.596 42.35-14.481 45.287-2.425.478-4.713 1.571-7.035 2.049z" class="E F"/><path d="M578.042 309.527a15.54 15.54 0 0 0-7.244-2.319c-2.569-.161-5.138.319-7.476 1.397a14.13 14.13 0 0 0-5.614 5.098 14.14 14.14 0 0 0-2.173 7.265 19.24 19.24 0 0 0 3.415 9.768c1.088 1.894 2.567 3.536 4.338 4.815 2.802 1.675 6.085 2.36 9.324 1.947 2.928-.106 5.792-.889 8.367-2.288 3.825-2.152 8.778-8.299 7.514-13.115-2.167-5.129-5.803-9.502-10.451-12.568h0z" class="C"/><path d="M683.407 279.984c14.413 23.907 19.433 52.015 24.18 79.474a25.88 25.88 0 0 1 .444 10.246c-.895 3.024-2.568 5.76-4.851 7.936s-5.097 3.714-8.161 4.462a53.06 53.06 0 0 1-18.716.99c-13.422-.853-29.337-2.015-40.71-9.802-3.928-2.663-7.377-5.976-11.373-8.538a100.2 100.2 0 0 0-12.125-6.045c-7.959-3.694-15.552-8.131-22.677-13.251-2.452-1.506-4.493-3.594-5.943-6.08-2.322-4.644-.512-10.245 1.298-15.027a5.71 5.71 0 0 1 2.117-3.108c1.423-.581 3.017-.581 4.44 0 19.21 5.717 38.793 10.099 58.607 13.115 5.43.854 3.04-5.123 2.322-8.231-1.194-4.351-2.152-8.763-2.868-13.217-.704-6.412.174-12.899 2.555-18.894s6.194-11.316 11.106-15.498a16.56 16.56 0 0 1 9.153-4.304 15.3 15.3 0 0 1 11.202 5.772z" class="B"/><path d="M610.521 224.041a57.62 57.62 0 0 1-1.093-7.206c-1.161-10.246-2.151-20.902 2.869-29.713 2.078-3.704 5.105-6.788 8.769-8.934a23.91 23.91 0 0 1 24.163 0c3.665 2.146 6.691 5.23 8.769 8.934 2.932 5.52 4.201 11.772 3.654 17.998a98.17 98.17 0 0 1-3.415 18.306c-1.639 6.353-5.806 10.246-8.197 16.086-.815 2.513-1.196 5.147-1.127 7.787.344 3.943.344 7.909 0 11.851a28.95 28.95 0 0 1-12.978 4.611 21.21 21.21 0 0 1-6.386-1.093 4.57 4.57 0 0 1-2.869-1.878c-.306-.854-.377-1.774-.205-2.664 0-.854.205-1.674.205-2.527.478-4.261.409-8.565-.205-12.808-1.385-3.315-3.668-6.177-6.592-8.265a19.37 19.37 0 0 1-5.362-10.485h0z" class="C"/><path d="M613.048 228.686a93.04 93.04 0 0 0 13.661-2.766c1.537-.444 3.416-.82 4.577.273a4.54 4.54 0 0 1 1.024 2.118 12.62 12.62 0 0 1 .752 4.781 26.77 26.77 0 0 1-1.127 3.996 4.88 4.88 0 0 0 .375 3.962c1.093 1.502 3.416 1.981 3.928 3.791s-.82 2.527-1.23 3.791c-.444 1.517-.753 3.072-.922 4.644-.034 1.816-.31 3.619-.819 5.362-.371.896-.942 1.695-1.671 2.335s-1.594 1.103-2.53 1.354a6.49 6.49 0 0 1-2.882.046c-.952-.201-1.846-.614-2.617-1.207-1.98-2.125-3.184-4.857-3.415-7.753l-1.844-9.187a55.16 55.16 0 0 0-2.459-9.392 42.96 42.96 0 0 0-3.826-6.045l1.025-.103z" class="E F"/><path d="M322.304 404.917s2.117 8.572-18.204 14.993-27.834-14.993-27.834-14.993 38.524-14.994 46.038 0z" class="D"/><g class="H"><path d="M217.796 621.549l2.356-9.05 6.148-23.327c.179-1.109.677-2.141 1.434-2.971.922-.786 3.791 8.06 5.021 7.957 6.706-.382 13.434.111 20.013 1.469 1.776.342-5.43 100.615-6.045 110.451-1.468 22.541-.273 67.111 3.04 66.837-6.592.547-20.082 1.298-22.917-1.673-5.123-5.123 3.655-38.149-5.908-76.913a134.97 134.97 0 0 1-3.894-29.098c-.375-14.242-2.766-29.816.752-43.682zm47.132 111.543c.747-1.35 1.365-2.768 1.845-4.235 1.571-5.02.375-10.246.717-15.3a52.45 52.45 0 0 0 0-8.026c-.546-6.831-1.434-13.661-2.288-20.492-1.469-11.51-4.167-23.497-4.167-35.144 0-8.982 7.24-37.192 7.24-37.192l-7.24-36.783h36.749s4.713 30.738 3.415 34.153a72.28 72.28 0 0 0-4.679 21.79c0 13.217-1.776 26.605-2.8 39.788l-3.416 43.238-1.263 15.539c-.314 7.628 1.099 15.228 4.132 22.234 1.161 3.176 2.459 7.104.239 9.699s-7.07 1.708-10.246 0a90.55 90.55 0 0 0-14.276-7.821 18.62 18.62 0 0 1-5.601-2.288c-3.415-2.595-3.415-7.787-1.844-11.783a72.77 72.77 0 0 1 3.483-7.377h0z"/></g><path d="M288.596 302.799s-4.167-10.997 5.294 0 24.658 76.025 24.658 76.025-21.277 19.535-27.322 15.676-2.63-91.701-2.63-91.701z" class="D"/><path d="M279.476 199.076c11.919 4.918 14.822 22.575 13.969 33.743-1.059 13.969-12.774 27.937-8.744 41.974 2.629 7.192 3.858 14.82 3.621 22.473-.752 7.616-5.465 15.403-12.876 17.076a20.51 20.51 0 0 0-5.157 1.366 13.66 13.66 0 0 0-4.713 6.046 58.85 58.85 0 0 1-33.812 29.644c-14.72 4.474-32.138 1.025-42.554-10.246s-12.057-30.43-2.152-42.179c2.835-3.415 6.66-6.523 6.83-10.894a29.39 29.39 0 0 0-.922-5.977c-.547-3.787.107-7.65 1.872-11.044a18.27 18.27 0 0 1 7.964-7.877c5.533-2.664 12.569-2.527 16.838-6.831 4.781-4.952 3.62-12.841 3.415-19.706-2.151-35.895 24.932-50.512 56.421-37.568z" fill="#ad684d"/><use xlink:href="#L" fill="#6844b9"/><use xlink:href="#L" fill="url(#G)"/><use xlink:href="#L" fill="url(#H)" fill-opacity=".2"/><path d="M278.86 273.085s-9.255 11.749-9.289 18.955c-.098 4.773-.752 9.518-1.947 14.14 0 0-1.469 8.606-6.25 5.259s-21.585-25.888-21.585-25.888l18.34-24.453 20.731 11.987z" class="H"/><path d="M307.345 480.634s-3.756-41.838-10.724-58.607c-1.934-6.077-2.402-12.525-1.366-18.818 1.4-14.822 5.909-29.03 8.334-43.682.738-6.556.251-13.191-1.435-19.57-2.55-12.704-5.533-25.318-8.948-37.841-.301-1.612-.993-3.124-2.015-4.406a10.45 10.45 0 0 0-4.064-2.288l-18.272-6.831c1.912 5.875 3.723 12.432 1.093 18.033-.644 1.635-1.857 2.981-3.416 3.791-3.415 1.4-6.83-.854-9.562-3.415-4.136-4.022-7.332-8.909-9.358-14.31-1.025-2.819-1.746-5.738-2.152-8.709-.273-2.118.342-5.192-1.264-6.66-2.595 4.576-7.957 6.83-12.022 10.007s-9.289 6.83-14.207 10.246a23.42 23.42 0 0 0-9.597 9.767c-1.058 3.497-1.058 7.228 0 10.724.854 3.894 2.186 7.685 2.903 11.612a138.32 138.32 0 0 1 1.229 15.062c.819 7.494 2.155 14.923 3.996 22.234a112.1 112.1 0 0 1 1.264 13.49s6.83 25.41 5.464 31.626-14.139 30.225-14.856 40.744 4.098 32.617 4.098 32.617l24.932 1.297c15.437.581 43.443-5.942 45.526-8.026 2.732-2.732 4.235-22.233 3.996-35.246l11.1 37.159h9.323z" class="D"/><path d="M216.43 506.215c2.562.751 3.416 3.039 5.328 5.908 2.561 3.989 4.921 8.104 7.07 12.329a1.57 1.57 0 0 1 0 2.22 1.53 1.53 0 0 1-.922.41 13.29 13.29 0 0 1-6.831.581c-.878 5.469-.043 11.076 2.391 16.052.581 1.195 1.195 2.8.239 3.757a2.83 2.83 0 0 1-1.537.58c-4.885.315-9.749-.877-13.934-3.415a22.37 22.37 0 0 1-6.558-4.406 28.05 28.05 0 0 1-5.567-10.553c0-2.465.241-4.925.718-7.343 0-1.127 1.161-15.847 1.502-15.847l15.847-.615a7.86 7.86 0 0 1 2.254.342h0z" fill="#fdc099"/><path d="M216.533 500.375l1.263 6.386-22.028 3.825v-7.343l20.765-2.868z" class="B"/><path d="M216.532 416.392s17.52-42.145 15.13-57.002-12.466-49.522-19.912-49.214-9.801 10.246-9.801 19.467-14.96 92.384-15.916 100.069 8.436 78.552 8.436 78.552l24.932-5.499-2.869-86.373z" class="D"/><path d="M283.574 210.79a3.4 3.4 0 0 1 1.025.922c1.775 3.071 2.935 6.458 3.415 9.973 4.816 17.076 11.373 33.333 1.981 50.273a10.85 10.85 0 0 1-2.834 3.62 9.98 9.98 0 0 1-4.099 1.64c-6.917 1.426-14.116.284-20.253-3.211a106.33 106.33 0 0 1-10.246-5.601 11.03 11.03 0 0 1-3.415-3.893c-.751-1.606-1.981-3.177-1.468-5.055.375-1.298 1.127-2.425 1.4-3.757a10.01 10.01 0 0 0-1.093-6.045 3.42 3.42 0 0 1-.444-1.297 3.43 3.43 0 0 1 .102-1.367c.615-1.468 2.664-1.366 4.235-1.742 1.282-.485 2.445-1.238 3.412-2.21a9.61 9.61 0 0 0 2.19-3.425c1.511-3.054 2.657-6.275 3.415-9.597.474-2.868 1.3-5.667 2.459-8.333a22.23 22.23 0 0 1 9.494-8.402c2.698-1.571 7.753-4.337 10.724-2.493z" fill="#fdc099"/><g fill="#8a3c1f"><path d="M291.191 235.619l1.537-1.332s.444.956.991.854c.485-.131.954-.315 1.4-.547 0 0-.854 1.23-1.434 1.332-.805.103-1.62.103-2.425 0l-.069-.307z"/><path d="M292.521 234.39l.649-1.161s.513.478.854.273c.262-.189.503-.407.717-.648 0 0-.204.956-.546 1.161a8.71 8.71 0 0 1-1.605.478l-.069-.103z"/></g><path d="M367.557 344.979h-63.9l-54.782 69.262 60.28-2.425 58.402-66.837z" fill="#6d4ade"/><path d="M329.581 401.637c.079-.668.204-1.33.376-1.981a30.74 30.74 0 0 0-.342-12.944c-1.034-4.279-3.66-8.004-7.343-10.416-.279-.171-.577-.309-.888-.41a1.91 1.91 0 0 0-1.317.523c-.356.337-.569.798-.595 1.287a6.28 6.28 0 0 0 .649 2.835c1.126 2.811 1.917 5.746 2.356 8.743l-3.21-3.655c-.883-1.199-2.059-2.151-3.415-2.766a2.9 2.9 0 0 0-3.723 1.571c-.163.846-.043 1.722.341 2.493l3.006 8.709c-1.395-2.788-3.629-5.069-6.387-6.523a4.41 4.41 0 0 0 0 5.191 28.47 28.47 0 0 1 2.767 4.987 21.59 21.59 0 0 1-1.947-2.699c-.717-.853-2.083-1.4-2.903-.648s-.547 1.81-.307 2.732c2.056 6.53 2.867 13.389 2.39 20.218l3.825-.853c3.026-1.006 5.89-2.444 8.504-4.27 2.174-1.29 4.033-3.048 5.444-5.144a17.07 17.07 0 0 0 2.719-6.98h0z" class="H"/><g fill="#a67c52"><path d="M728.214 395.934c1.161-.991 2.971-1.742 4.132-.752.357.401.624.874.783 1.386a3.75 3.75 0 0 1 .139 1.586v6.113c10.417-3.176 18.272-11.544 25.922-19.262 1.606-1.64 3.962-3.416 5.943-2.254.715.529 1.252 1.263 1.539 2.105a4.37 4.37 0 0 1 .066 2.608c-.586 1.646-.987 3.353-1.195 5.089 0 2.8 2.015 5.225 2.288 7.991.308 3.416-2.015 6.49-2.322 9.905v3.415c-.516 2.083-1.537 4.006-2.972 5.601a41.3 41.3 0 0 1-13.353 12.705c-3.664 1.594-7.542 2.642-11.51 3.108l-12.398 2.118a7.5 7.5 0 0 1-3.688 0c-3.723-1.264-4.884-7.343-4.747-10.69a23.91 23.91 0 0 1 3.415-8.778c2.561-7.103 1.776-16.803 7.958-21.994zm-366.872-37.636c-.82-1.298-2.323-2.528-3.723-1.947a3.82 3.82 0 0 0-1.161 1.092c-.306.441-.515.942-.615 1.47l-1.878 5.806c-9.017-6.114-14.037-16.428-19.024-26.093-1.058-2.05-2.766-4.406-5.02-3.894-.815.309-1.514.862-2.003 1.583a4.23 4.23 0 0 0-.729 2.447c.046 1.739-.08 3.478-.376 5.192-.82 2.663-3.415 4.405-4.577 6.83-1.297 3.142 0 6.831-.717 10.246-.239 1.093-.717 2.152-.888 3.415a12.6 12.6 0 0 0 1.196 6.216 40.96 40.96 0 0 0 8.948 16.12c3.024 2.598 6.406 4.749 10.041 6.387l11.236 5.704a8.04 8.04 0 0 0 3.415 1.093c3.928 0 6.831-5.533 7.719-8.778.41-3.124.236-6.297-.512-9.358-.615-7.684 2.971-16.598-1.332-23.531z"/></g><g fill="#262836"><path d="M468.036 913.968c.05.274.142.539.273.785 1.537 3.962 6.421 5.294 10.656 5.772a86.29 86.29 0 0 0 11.885.581c1.887.047 3.768-.218 5.567-.786 1.683-.725 3.257-1.679 4.679-2.834l11.407-8.47a45.64 45.64 0 0 0 8.709-7.719 15.4 15.4 0 0 0 3.757-10.724c-.108-1.949-.826-3.815-2.051-5.335a9.33 9.33 0 0 0-4.779-3.135 27.97 27.97 0 0 0-7.173.205c-4.883.239-11.714-1.776-13.661-6.831a10.24 10.24 0 0 0-3.415-5.498 8.84 8.84 0 0 0-5.294-.615 38.76 38.76 0 0 0-11.646 2.288c-1.873.673-3.57 1.76-4.965 3.179a13.26 13.26 0 0 0-3.095 5.018 17.64 17.64 0 0 0-.512 5.362 100.74 100.74 0 0 1 0 11.1 112.57 112.57 0 0 0-.786 14.002c.028 1.23.176 2.454.444 3.655zm110.86 1.435c-7.684 3.518-15.59 6.529-23.668 9.016-3.239 1.399-6.869 1.604-10.246.581-1.345-.673-2.527-1.633-3.459-2.814a10.26 10.26 0 0 1-1.937-4.017 30.93 30.93 0 0 1-.888-8.846c0-4.952 2.049-8.777 2.835-13.49.717-4.098 1.298-8.231 1.878-12.329l2.323-17.657 20.492 4.405c2.151.444 4.2 8.744 5.464 10.485a11.02 11.02 0 0 0 3.651 3.086c1.428.75 3.003 1.177 4.614 1.252 3.415.171 7.07-1.435 10.588-.854a10.69 10.69 0 0 1 8.128 10.041 17.08 17.08 0 0 1-1.488 6.754c-.952 2.126-2.328 4.035-4.045 5.609-3.466 3.113-7.424 5.629-11.714 7.446l-2.528 1.332z"/></g><use xlink:href="#M" fill="#ba68d0"/><use xlink:href="#M" fill="url(#I)"/><path d="M548.465 305.053c2.322 2.323 5.806 4.713 4.85 7.787-.513 1.639-2.254 2.596-3.416 3.757a17.82 17.82 0 0 0-5.157 12.807c.143 4.632-.516 9.254-1.947 13.661a10.24 10.24 0 0 1-11.065 6.66c-2.698-.751-5.396-3.073-7.992-1.981-1.981.854-2.596 3.416-3.62 5.123-1.473 2.202-3.534 3.945-5.95 5.032s-5.087 1.474-7.711 1.116c-5.226-.757-10.265-2.483-14.857-5.089a10.69 10.69 0 0 1-4.884-3.791c-.792-1.647-.986-3.519-.546-5.294.956-5.43 4.713-9.904 7.752-14.583 5.636-8.648 9.017-18.569 9.837-28.859.546-7.172 0-15.062 4.61-20.492 6.25-7.548 21.346-7.48 29.099-1.947 8.914 5.704 3.859 18.682 10.997 26.093z" fill="#a67c52"/><path d="M539.21 272.573c-.916 1.78-2.297 3.279-3.996 4.338-3.415 2.015-6.352 4.371-9.665 6.591a14.69 14.69 0 0 0-6.148 9.017c-1.4 6.83 2.289 13.968 0 20.492-.785 1.297-2.971.512-3.859-.786s-1.332-2.937-2.664-3.723c-2.254-1.297-5.02.888-5.977 3.416-1.001 2.821-.875 5.92.353 8.65s3.464 4.88 6.239 6.001c-.307 2.084-3.04 2.938-5.157 2.63-2.102-.578-4.275-.854-6.455-.819-4.884.922-6.831 7.889-11.612 8.606-1.685-.121-3.319-.623-4.781-1.47s-2.711-2.013-3.655-3.414l-5.943-6.83c-.945-1.218-1.984-2.36-3.107-3.416-1.332-1.058-3.416-1.127-4.645-2.39s0-4.167-1.196-5.738a5.97 5.97 0 0 0-2.049-1.23c-1.711-.861-3.073-2.286-3.857-4.033s-.941-3.713-.446-5.564c.137-.468.137-.966 0-1.434-.205-.615-.956-.922-1.571-1.23a8.91 8.91 0 0 1-3.415-11.168 18.47 18.47 0 0 1 4.132-6.079c.654-.941 1.555-1.684 2.603-2.148s2.203-.63 3.34-.482l.922-8.538a13.39 13.39 0 0 1 1.229-5.02c1.947-3.416 6.421-4.304 10.246-4.748l-1.639-7.104a3.41 3.41 0 0 1-.293-1.383c0-.476.1-.947.293-1.383.518-.63 1.245-1.054 2.049-1.195 2.303-.611 4.659-1 7.036-1.161a30.08 30.08 0 0 1-2.015-6.148c-.103-.403-.103-.826 0-1.23a2.15 2.15 0 0 1 .901-.896 2.16 2.16 0 0 1 1.25-.231c.869.171 1.762.171 2.63 0l-1.366-6.489c-.207-.931-.225-1.893-.055-2.832a7.17 7.17 0 0 1 1.045-2.632 6.25 6.25 0 0 1 2.603-1.836c1.011-.377 2.103-.486 3.169-.316a19.15 19.15 0 0 1 6.045 2.186c-.205-2.288 2.733-3.415 5.089-3.62 4.39-.253 8.772.61 12.738 2.51s7.385 4.772 9.94 8.35c.402.64.884 1.225 1.434 1.742 1.048.686 2.202 1.194 3.415 1.503 1.845.82 3.484 2.039 4.801 3.568s2.278 3.332 2.816 5.278a39.86 39.86 0 0 1 1.195 11.885 35.61 35.61 0 0 1-.854 9.119 13.84 13.84 0 0 1-1.093 2.834h0z" class="D"/><g class="B"><path d="M506.799 346.48c5.425 2.285 10.695 4.921 15.779 7.889a12.06 12.06 0 0 1 3.996 3.416 5.61 5.61 0 0 1 .989 2.66c.095.957-.057 1.923-.443 2.804-1.434 2.459-4.645 1.537-7.138.683-11.509-4.576-23.907-4.986-35.724-4.952-.814.12-1.646.014-2.404-.305s-1.416-.839-1.899-1.505c-.289-.793-.395-1.64-.313-2.479a5.63 5.63 0 0 1 .791-2.371c6.25-12.397 16.291-10.417 26.366-5.84z"/><path d="M730.023 442.621c-2.35 5.869-5.831 11.219-10.245 15.745-4.201 4.747-8.573 9.323-13.115 13.661-10.695 10.383-21.997 20.122-33.846 29.167-8.436 6.523-17.452 12.944-27.971 14.993-4.186.992-8.572.718-12.603-.786a30.13 30.13 0 0 1-8.811-6.83c-3.04-3.006-37.876-43.102-38.457-43.102a9.23 9.23 0 0 0-4.269 4.884 95.32 95.32 0 0 0-9.187 33.163 97.88 97.88 0 0 0 0 15.505c1.366 17.521 7.514 35.588 1.435 52.118-1.186 3.515-3.187 6.698-5.841 9.29-2.568 2.221-5.519 3.956-8.709 5.123-5.608 2.322-11.463 3.995-17.452 4.986a73.43 73.43 0 0 1-10.246 1.127c-12.739.478-25.444-2.015-38.183-1.366-10.861.546-21.585 3.415-32.445 2.971-2 .156-4.011-.13-5.888-.838a13.65 13.65 0 0 1-4.973-3.26c-1.229-1.889-1.99-4.043-2.22-6.284a401.81 401.81 0 0 1-6.523-70.356c0-10.895-1.776-50.717-5.43-58.06-.444-.888-.923-1.332-1.401-1.195-12.158 3.415-38.251 10.246-50.615 12.432a14.74 14.74 0 0 1-5.464.273 13.26 13.26 0 0 1-5.123-2.596c-15.301-11.236-23.907-27.971-29.338-45.594-1.058-3.416-2.015-6.831-2.903-10.246-.464-.91-.745-1.903-.825-2.921s.043-2.043.36-3.015a7.75 7.75 0 0 1 3.881-4.515 3.7 3.7 0 0 1 .649-.307l22.916-14.754 17.077 21.789c3.415 4.235 7.309 8.812 12.739 9.426 7.445.752 13.046-6.011 17.623-11.782a151.33 151.33 0 0 1 55.533-43.409c3.178-1.528 6.525-2.674 9.973-3.415l.853-.205a10.68 10.68 0 0 1 1.503-.308 44.76 44.76 0 0 1 13.32.786c29.083 4.911 57.854 11.513 86.168 19.775a21.82 21.82 0 0 1 9.405 3.783 21.81 21.81 0 0 1 6.681 7.624l23.702 36.099c6.831 10.246 13.662 23.225 23.907 30.738a279.18 279.18 0 0 0 62.227-35.075c2.698-2.015 6.114-4.201 9.222-2.869a8.74 8.74 0 0 1 2.629 1.981c7.343 7.343 13.969 14.515 10.28 25.649zm165.745-80.293c-3.039 2.59-6.699 4.344-10.622 5.089-3.586.144-7.162-.485-10.485-1.844l-50.819-17.077c-3.833 2.986-6.392 7.312-7.165 12.108a19.23 19.23 0 0 0 2.998 13.746c4.303 5.977 11.714 8.811 18.647 11.305l34.837 12.534c6.845 2.827 14.053 4.678 21.413 5.498 10.246.684 20.253-2.595 29.987-5.84 10.417-3.415 21.824-7.752 26.81-17.554s1.366-22.712 2.835-34.153c.99-7.446 4.269-14.584 4.132-22.097-.17-6.421-5.293-16.087-12.944-14.755-6.591 1.162-10.997 12.637-14.481 17.453a162.28 162.28 0 0 1-35.143 35.587h0z"/></g><g class="C"><path d="M817.488 345.729c-.565-1.355-1.375-2.594-2.391-3.654-.523-.519-1.185-.876-1.906-1.027a3.83 3.83 0 0 0-2.158.173c-.669.414-1.206 1.009-1.551 1.716a4.16 4.16 0 0 0-.396 2.28 2.28 2.28 0 0 1-.342 1.536 1.62 1.62 0 0 1-.759.305 1.63 1.63 0 0 1-.812-.1c-5.771-1.127-11.612-1.98-17.486-2.561-.487-.068-.981-.068-1.469 0a3.96 3.96 0 0 0-2.213 1.928c-.464.902-.564 1.948-.28 2.922.641 1.932 1.599 3.744 2.835 5.362 2.971 4.884 4.098 11.339 8.88 14.515a15.78 15.78 0 0 0 9.631 2.015c3.415-.171 6.66-.786 10.007-.649 2.228.483 4.552.231 6.625-.717a5.81 5.81 0 0 0 1.779-2.221c.4-.877.575-1.839.51-2.8-.345-3.021-1.436-5.908-3.176-8.402a277.64 277.64 0 0 1-5.328-10.621zm141.737 382.617c-19.468-4.406-15.642 23.224-20.765 33.47a56.05 56.05 0 0 1-12.022 13.661c-4.406 4.303-8.539 9.563-8.778 15.676-.136 1.182.103 2.377.683 3.416a6.83 6.83 0 0 0 3.86 2.322 44.88 44.88 0 0 0 33.333-3.415 26.26 26.26 0 0 0 11.441-10.622 36.44 36.44 0 0 0 2.938-15.71c.444-11.339 5.532-35.178-10.69-38.798z"/></g><path d="M942.011 785.176s-55.397 2.356-31.933 19.774 58.47-4.269 61.885-8.231.649-10.758.649-10.758l-30.601-.785z" class="G"/><path d="M969.571 792.827c-4.952 6.011-30.977 14.105-42.486 13.286s-21.858-6.216-20.731-13.662 21.482-24.76 25.307-24.726 6.831 8.914 14.549 10.758c3.449.554 6.981.217 10.263-.979s6.203-3.21 8.487-5.852a5.12 5.12 0 0 1 2.85-1.942c1.145-.299 2.359-.192 3.435.303 2.664 3.928 3.278 16.803-1.674 22.814z" class="B"/><path d="M1025.99 739.241c-19.46-4.508-15.64 23.088-20.76 33.333-3.2 5.253-7.268 9.929-12.023 13.832-4.406 4.304-8.504 9.563-8.743 15.677a5.59 5.59 0 0 0 .649 3.415c.982 1.21 2.361 2.033 3.893 2.322 11.124 3.192 23.054 1.969 33.304-3.415 4.8-2.299 8.79-6.003 11.44-10.622 2.13-4.954 3.13-10.32 2.93-15.71.45-11.51 5.54-35.417-10.69-38.832z" class="C"/><path d="M1008.78 795.832s-55.396 2.322-31.933 19.74 58.503-4.2 61.883-8.196.65-10.793.65-10.793l-30.6-.751z" class="G"/><path d="M1036.34 803.346c-4.95 6.079-30.97 14.139-42.482 13.319s-21.858-6.181-20.731-13.661 21.483-24.795 25.308-24.761 6.835 8.914 14.545 10.724a20.53 20.53 0 0 0 10.27-.978c3.28-1.196 6.2-3.21 8.48-5.852.7-.958 1.71-1.644 2.85-1.943 1.15-.299 2.36-.192 3.44.303 2.66 4.064 3.28 16.804-1.68 22.849z" class="B"/><g fill="#694d69"><path d="M975.824 488.011l26.026 273.873 37.57-4.645c14.82-66.803 11.2-266.769 11.2-266.769l-74.796-2.459z"/><path d="M1001.85 480.6l-26.025 273.873-37.569-4.645c-21.448-173.292-3.791-281.182-3.791-281.182l67.385 11.954z"/></g><path d="M937.742 381.556c-.444-5.021-1.776-10.007-2.322-15.13a114.12 114.12 0 0 1 .581-31.079 118.03 118.03 0 0 1 9.801-31.626c4.338-8.675 12.159-12.363 20.936-16.701a74.03 74.03 0 0 1 23.6-8.026 60.02 60.02 0 0 1 17.482.957c17.66 3.415 40.99 12.5 53.04 26.434 9.09 10.485 10.25 25.478 10.45 39.344.39 19.149-.01 38.275-1.19 57.377 0 2.767-.34 5.533-.55 8.3-1.64 20.97-3.41 42.725-9.32 62.978-1.88 6.352-3.86 12.739-9.73 16.154-13.67 8.06-35.01 3.621-49.94 1.537-19.839-2.834-40.194-5.772-57.783-15.369a16.87 16.87 0 0 1-8.367-8.06c-1.537-4.303.341-8.982 1.673-13.354 5.943-19.569 1.332-40.13 1.332-60.109 0-3.62.478-7.309.478-10.929-.034-.888-.171-1.81-.171-2.698z" class="B"/><path d="M993.205 473.495c-.134-2.096.378-4.182 1.469-5.977 2.254-2.766 6.556-2.185 10.006-1.332l22.3 5.533c8.44 2.083 21.38 10.246 23.57 18.75 8.57-6.011 10.79-16.12 12.4-26.468 1.6-10.349 1.67-30.533 3.41-40.984a67.65 67.65 0 0 1-37.33 12.705c-12.67.341-28.58 0-33.195-13.661-5.294-15.984-7.138-32.753-10.656-49.147.01-.379-.068-.755-.226-1.099s-.392-.649-.685-.889a2.48 2.48 0 0 0-1.006-.498c-.369-.088-.752-.09-1.122-.007l-48.156.512a4.83 4.83 0 0 0-2.186.41c-1.4.854-1.4 2.869-1.161 4.474a48.33 48.33 0 0 0 15.471 28.177c3.928 3.415 6.489 5.669 7.241 10.758.922 6.011.683 12.397 1.298 18.511a140.53 140.53 0 0 0 8.367 37.568c6.899 17.179 28.894 30.601 30.191 2.664z" class="E F"/><path d="M980.056 487.396h-71.687l-8.914-111.476h71.722l8.879 111.476z" fill="#6d4ade"/><path d="M975.891 251.501c.038-5.263.369-10.519.991-15.745.478-4.542 1.195-9.119 2.083-13.661.046-1.317.375-2.609.964-3.787s1.426-2.217 2.452-3.044c7.033-4.34 15.165-6.569 23.429-6.421 4.94-.776 9.98.439 14.02 3.378a18.85 18.85 0 0 1 7.53 12.299 18.05 18.05 0 0 1 .24 2.937c1.23 11.509-1.74 22.985-3.42 34.426-1.3 8.862-1.77 17.827-1.4 26.776-4.33 2.878-9.3 4.638-14.48 5.123a21.82 21.82 0 0 1-7.1-1.195c-.64-.12-1.253-.365-1.799-.723a4.92 4.92 0 0 1-1.378-1.361 5.49 5.49 0 0 1-.239-2.971c.13-.928.21-1.863.239-2.801a86.34 86.34 0 0 0-.308-15.71 1.53 1.53 0 0 0-.092-.646c-.077-.206-.196-.393-.352-.549a1.97 1.97 0 0 0-1.093 0h-1.468c-2.603.205-5.218.205-7.821 0a13.19 13.19 0 0 1-8.163-4.064 17.08 17.08 0 0 1-2.835-12.261h0z" class="C"/><path d="M986.515 217.757c-1.815.752-3.854.752-5.669 0a11.37 11.37 0 0 1-4.543-4.44c-2.132-3.207-2.912-7.127-2.17-10.907a14.62 14.62 0 0 1 6.132-9.277c2.454-1.729 5.229-2.951 8.16-3.596a22.61 22.61 0 0 1 8.917-.161c1.554-.99 3.298-1.642 5.118-1.912a46.93 46.93 0 0 1 21.76-1.332c4.12 1.196 7.98 3.128 11.41 5.703 3.32 2.193 6.14 5.055 8.3 8.402a40.94 40.94 0 0 1 3.86 13.661c1.11 5.073 1.71 10.244 1.81 15.437-.01 2.268-.44 4.514-1.27 6.626-1.03 2.334-2.5 4.445-4.34 6.216-2.69 2.705-5.76 5.006-9.11 6.83-2.33 1.298-5.02 2.63-5.81 5.192-.23 1.192-.35 2.405-.34 3.62-.14 1.786-.86 3.479-2.05 4.815-.82.888-2.22 3.04-3.42 3.416-1.19.375-2.22-1.127-2.56-2.357-1.46-5.177-1.1-10.7 1.03-15.642a17.18 17.18 0 0 0 2.56-7.992c-.27-2.766-4.07-4.986-5.88-3.415s-2.15 5.669-4.4 4.884c2.56-7.992-.75-18.033-8.44-21.175-4.1-1.239-8.379-1.838-12.668-1.776-2.047-.415-4.128-.643-6.216-.683l-.171-.137z" fill="#532e0d"/><path d="M994.779 267.621c6.071-1.148 12.011-2.91 17.721-5.259.52 18.477-14.51 22.302-14.51 22.302a86.35 86.35 0 0 0-.308-15.711 1.67 1.67 0 0 0-.444-1.195c-.357-.102-.735-.102-1.092 0h-1.367v-.137z" fill="#de9f93"/><path d="M1083.58 372.061l8.53 37.364a30 30 0 0 1 1.13 9.563c-.61 6.045-4.75 11.031-8.71 15.607-4.87 6.458-10.99 11.87-18 15.916a51.47 51.47 0 0 1-15.3 4.098c-13.95 2.115-28.07 2.905-42.18 2.357a7.56 7.56 0 0 1-3.24-.649c-1.02-.654-1.86-1.545-2.46-2.596a146.14 146.14 0 0 1-12.67-23.565 132.29 132.29 0 0 1 36.78-17.248 15.27 15.27 0 0 0 7.14-3.415c1.33-1.663 2.21-3.638 2.56-5.738 5.57-23.907-7.27-50.546 3.01-72.848 5.84-12.705 18.3-26.332 27.32-9.358 8.5 15.471 12.19 33.504 16.09 50.512z" class="B"/><path d="M980.878 430.429a34.61 34.61 0 0 0-4.884-3.074c-.867-.433-1.829-.639-2.798-.597a5.71 5.71 0 0 0-2.735.836c-.751.547-1.332 1.435-2.254 1.742a4.19 4.19 0 0 1-1.844 0l-11.407-1.161a6.01 6.01 0 0 0-2.75-.033c-.906.201-1.754.61-2.476 1.194-1.468 1.674-.58 4.303.41 6.318a175.16 175.16 0 0 0 9.768 17.282 13.19 13.19 0 0 0 2.425 3.074c1.313.99 2.829 1.678 4.44 2.015a33.36 33.36 0 0 0 17.759-.752c5.704-1.87 11.025-4.751 15.708-8.504a7.8 7.8 0 0 0 1.74-1.776c.48-.839.76-1.772.82-2.732.55-4.406-.85-11.51-6.588-11.202a23.05 23.05 0 0 1-15.334-2.63h0z" class="C"/><g fill="#262836"><path d="M261.273 741.461a2.19 2.19 0 0 1 .991-.854c.956-.308 1.844.546 2.493 1.298 5.908 6.83 14.754 10.246 23.224 13.319.512.171 1.161.342 1.571 0s.41-.717.581-1.058a2.28 2.28 0 0 1 1.272-.857c.511-.131 1.05-.082 1.528.139a9.68 9.68 0 0 1 2.493 1.913c3.416 3.142 8.3 4.406 12.056 7.206a5.16 5.16 0 0 1 2.152 2.664c.129.61.102 1.242-.077 1.838a3.72 3.72 0 0 1-.948 1.577 6.48 6.48 0 0 1-3.415 1.776 21.77 21.77 0 0 1-7.138.274c-11.817-.888-23.588-2.141-35.314-3.757-.915-.065-1.809-.308-2.63-.717-.904-.729-1.607-1.676-2.043-2.751s-.591-2.245-.45-3.397a62.62 62.62 0 0 1 1.059-9.085 17.41 17.41 0 0 1 2.595-9.528h0zm-33.403 21.208a11.84 11.84 0 0 0 4.406 1.503 20.13 20.13 0 0 0 8.196.308 7.21 7.21 0 0 0 3.616-1.834c1.005-.944 1.718-2.157 2.054-3.494 0-.82.615-1.981 1.332-1.606a1.19 1.19 0 0 1 .375.444 26.4 26.4 0 0 1 2.938 11.817 13.02 13.02 0 0 1-.547 6.558c-.599 1.158-1.455 2.163-2.503 2.938a8.54 8.54 0 0 1-3.542 1.536c-2.539.478-5.145.478-7.684 0l-6.455-1.298c-.946-.133-1.84-.509-2.596-1.093a5.8 5.8 0 0 1-1.434-2.186 25.3 25.3 0 0 1-1.879-12.91 19.65 19.65 0 0 1 .478-2.766c0-.41.274-2.22.854-2.015s.444.444.444.854c.011.431.091.858.239 1.264a4.58 4.58 0 0 0 1.708 1.98z"/></g><path d="M604.372 178.208c-.571-2.554-.144-5.23 1.196-7.479 1.114-1.296 2.569-2.255 4.2-2.766 1.7-.643 3.463-1.101 5.26-1.367.895-.079 1.765-.334 2.562-.751.644-.547 1.197-1.192 1.639-1.913a12.57 12.57 0 0 1 10.621-4.064c3.928 0 7.787 1.161 11.715 1.332s8.675-.546 12.227 1.64a13.66 13.66 0 0 1 5.225 8.333c1.379-.195 2.78.134 3.928.922 2.151 1.981 0 6.011 1.878 8.368.888 1.127 2.459 1.605 3.416 2.8a5.4 5.4 0 0 1 .512 3.723 28.07 28.07 0 0 1-.581 4.132c-.956 3.757-3.415 6.831-4.576 10.622-.581 1.981-.718 4.064-1.196 6.045a36.87 36.87 0 0 1-6.318 12.09 71.41 71.41 0 0 0 .649-27.322 2.06 2.06 0 0 0-.281-1.195c-.214-.361-.533-.647-.914-.82-.546-.13-1.121-.044-1.606.239a43.14 43.14 0 0 1-28.483 1.127 16.77 16.77 0 0 0-8.47-1.366c-1.165.348-2.305.77-3.416 1.263-1.166.444-2.454.444-3.62 0-.24.502-.368 1.05-.375 1.606-2.22-.513-2.084-3.723-2.699-5.499-1.138-3.146-1.972-6.394-2.493-9.7h0z" class="D"/><g class="C"><path d="M663.355 210.756a2.82 2.82 0 0 1 .444 1.161 9.56 9.56 0 0 1-1.195 6.831 12.02 12.02 0 0 1-5.157 4.781 4.43 4.43 0 0 1-1.824.582 4.44 4.44 0 0 1-1.899-.24c-.593-.406-1.084-.945-1.433-1.573s-.549-1.329-.582-2.047c-.325-1.456-.328-2.965-.01-4.422a10.25 10.25 0 0 1 1.855-4.014 8.08 8.08 0 0 1 2.724-1.808c1.022-.411 2.117-.61 3.218-.583a4.85 4.85 0 0 1 3.859 1.332h0zm-33.947 32.445c.171 1.4-.922 2.63-1.059 4.03s0 3.074 0 4.611a9.87 9.87 0 0 1-1.844 5.396c-1.357 1.37-3.074 2.329-4.952 2.766a34.47 34.47 0 0 1-12.022 2.186 35.84 35.84 0 0 1-5.055-.649c-2.698-.444-9.699-.205-10.246-3.893.167-2.023.723-3.995 1.64-5.806.307-.991.58-1.981.854-2.971a81.64 81.64 0 0 0 .922-3.689c1.298-5.874 2.186-12.432 6.83-16.428 1.162-1.058 3.108-1.81 4.167-.649s.683 2.835 1.913 3.143c.431.035.865-.035 1.263-.205a30.72 30.72 0 0 1 14.584-2.698c.939.05 1.851.336 2.651.831a5.59 5.59 0 0 1 1.925 2.003c1.332 3.416-3.039 6.831-1.981 10.246.205.574.343 1.17.41 1.776h0z"/></g><path d="M619.3 374.486a18.92 18.92 0 0 0-3.005-2.459c.683 12.671 2.766 25.923 10.519 35.964 2.02 2.3 3.902 4.717 5.635 7.24 3.416 5.738 3.689 13.183 8.06 18.238a25.48 25.48 0 0 0 14.003 6.83 19.26 19.26 0 0 0 14.071-.546c3.542-2.657 6.159-6.361 7.48-10.588 2.971-7.069 8.436-17.281 3.927-24.931-3.21-5.431-13.319-9.734-19.467-9.734a157.08 157.08 0 0 1-24.658-8.504c-3.986-1.369-7.723-3.376-11.066-5.943-1.981-1.673-3.62-3.757-5.499-5.567z" class="B"/><g class="F"><path d="M438.221 426.808c-2.389 7.733-3.417 15.822-3.04 23.907a16.39 16.39 0 0 1-.376 3.655c-.444-.888-.922-1.332-1.4-1.196-12.159 3.416-38.251 10.246-50.615 12.432-1.788.432-3.642.524-5.464.273-1.877-.48-3.626-1.366-5.123-2.595-15.301-11.237-23.907-27.972-29.338-45.595a48.14 48.14 0 0 1 2.015-8.982c7.275 3.928 11.066 11.988 15.608 18.921a78.08 78.08 0 0 0 15.984 17.862c1.235 1.143 2.703 2.006 4.303 2.527 1.894.365 3.847.283 5.704-.239 18.579-3.518 38.251-7.753 51.742-20.97zm268.442 45.287c-10.696 10.383-21.997 20.122-33.846 29.167-8.436 6.523-17.452 12.944-27.971 14.993a21.72 21.72 0 0 1-12.603-.786c-3.337-1.709-6.325-4.025-8.811-6.83-3.04-3.006-37.876-43.102-38.457-43.102a9.23 9.23 0 0 0-4.269 4.884 95.32 95.32 0 0 0-9.187 33.163 97.88 97.88 0 0 0 0 15.505c1.366 17.521 7.514 35.588 1.434 52.118a23.46 23.46 0 0 1-5.84 9.29c-2.58 2.188-5.529 3.899-8.709 5.054-6.864 2.727-13.877 5.064-21.004 7.002-3.455 1.033-7.101 1.255-10.656.649-2.049-.41-7.206-4.065-8.64-3.894a28.31 28.31 0 0 0 22.848-19.16c2.425-7.889 1.229-16.359 1.264-24.624a163.41 163.41 0 0 1 3.415-28.518l7.309-39.993c2.459-13.661 7.445-33.06 21.653-39.208 2.834-1.229 5.942.786 8.401 2.698 16.462 12.91 33.231 26.127 45.048 43.443 3.416 4.815 6.523 10.246 11.92 12.432s12.466.239 18.306-2.118c8.711-3.516 17.187-7.589 25.375-12.193 6.148-3.415 14.276-11.168 21.927-10.245a5.66 5.66 0 0 1 1.093.273h0z" class="E"/></g></g></g><defs><linearGradient id="A" x1="624.807" y1="1487.51" x2="624.807" y2="624.147" xlink:href="#N"><stop stop-color="#b0b0b0" stop-opacity="0"/><stop offset="1" stop-color="#9d68d0"/></linearGradient><linearGradient id="B" x1="675.502" y1="1" x2="675.502" y2="1005" xlink:href="#N"><stop stop-color="#935dca" stop-opacity=".85"/><stop offset="1" stop-color="#b883d0"/><stop offset="1" stop-color="#c083d0"/><stop offset="1" stop-color="#c184d0"/><stop offset="1" stop-color="#6b3cb8" stop-opacity=".8"/></linearGradient><linearGradient id="C" x1="509.505" y1="692.536" x2="509.505" y2="997.77" xlink:href="#N"><stop offset=".01"/><stop offset=".08" stop-opacity=".69"/><stop offset=".21" stop-opacity=".32"/><stop offset="1" stop-opacity="0"/></linearGradient><linearGradient id="D" x1="955.136" y1="670.44" x2="992.062" y2="940.17" xlink:href="#N"><stop offset=".01"/><stop offset=".08" stop-opacity=".69"/><stop offset=".21" stop-opacity=".32"/><stop offset="1" stop-opacity="0"/></linearGradient><linearGradient id="E" x1="226.58" y1="640.263" x2="261.922" y2="904.753" xlink:href="#N"><stop offset=".01"/><stop offset=".08" stop-opacity=".69"/><stop offset=".21" stop-opacity=".32"/><stop offset="1" stop-opacity="0"/></linearGradient><linearGradient id="F" x1="606.327" y1="447.304" x2="559.502" y2="1027.39" xlink:href="#N"><stop offset=".01"/><stop offset=".08" stop-opacity=".69"/><stop offset=".21" stop-opacity=".32"/><stop offset="1" stop-opacity="0"/></linearGradient><linearGradient id="G" x1="147.953" y1="532.546" x2="322.953" y2="520.046" xlink:href="#N"><stop offset=".01"/><stop offset=".08" stop-opacity=".69"/><stop offset=".21" stop-opacity=".32"/><stop offset="1" stop-opacity="0"/></linearGradient><linearGradient id="H" x1="262.782" y1="434.834" x2="262.782" y2="611.498" xlink:href="#N"><stop stop-color="#563cb3"/><stop offset="1" stop-color="#be6ad1"/></linearGradient><linearGradient id="I" x1="380.982" y1="534.289" x2="707.929" y2="992.042" xlink:href="#N"><stop offset=".01"/><stop offset=".08" stop-opacity=".69"/><stop offset=".21" stop-opacity=".32"/><stop offset="1" stop-opacity="0"/></linearGradient><clipPath id="J"><path d="M0 0h1348v1473H0z" class="B"/></clipPath><clipPath id="K"><path transform="translate(-104 -228)" d="M0 0h1573.59v1362H0z" class="B"/></clipPath><path id="L" d="M201.812 499.008c-2.869 28.005 2.118 56.659 7.138 84.597 1.161 6.557 2.596 13.661 7.48 18.169a28.86 28.86 0 0 0 13.251 5.943c31.856 7.38 65.265 3.893 94.911-9.905l-7.547-69.672c-1.981-18.545-4.133-37.568-10.793-55.055-1.229-3.244-20.492-35.485-15.915-38.251-9.085 5.601-19.638 4.781-30.055 7.206-12.326 2.894-24.189 7.492-35.246 13.662-5.665 2.498-10.578 6.435-14.251 11.42a35.49 35.49 0 0 0-6.685 16.995c-1.034 4.918-1.798 9.889-2.288 14.891h0z"/><path id="M" d="M579.069 892.486c-5.383 3.064-10.975 5.746-16.735 8.026l-.58.239c-9.495 3.688-20.116-11.202-20.116-11.202s-13.423-82.924-12.808-117.282c.41-23.6-5.157-57.241-13.661-118.272-2.117 62.329-12.671 89.72-9.973 112.056 4.099 33.983-.785 118.375-.785 118.375s-8.982 16.427-18.853 14.207h-.58a123.5 123.5 0 0 1-17.418-5.362s-11.476-116.12-11.476-146.858 1.264-58.06 1.264-58.06l-5.977-97.097 25.581-37.125 2.083-.888 1.981-1.946 28.347-20.799s0 4.849-.512 13.148l21.994 11.817 2.152 1.606 2.152.546 36.919 6.455 12.807 179.304c3.108 30.464-5.806 149.112-5.806 149.112z"/><linearGradient id="N" gradientUnits="userSpaceOnUse"/></defs></svg>