<svg xmlns="http://www.w3.org/2000/svg" width="1022" height="839" fill="none" xmlns:v="https://vecta.io/nano"><path d="M834.5 839c103.553 0 187.5-81.26 187.5-181.5S938.053 476 834.5 476 647 557.26 647 657.5 730.947 839 834.5 839z" fill="url(#A)"/><path d="M674 285c43.63 0 79-37.608 79-84s-35.37-84-79-84-79 37.608-79 84 35.37 84 79 84z" fill="url(#B)"/><path opacity=".498" d="M881 92c25.405 0 46-20.595 46-46S906.405 0 881 0s-46 20.595-46 46 20.595 46 46 46z" fill="url(#C)"/><path opacity=".499" d="M59 738c32.585 0 59-26.415 59-59s-26.415-59-59-59-59 26.415-59 59 26.415 59 59 59z" fill="url(#D)"/><defs><linearGradient id="A" x1="836.375" y1="290.87" x2="470.056" y2="673.045" gradientUnits="userSpaceOnUse"><stop stop-color="#3428a8"/><stop offset="1" stop-color="#c967da"/></linearGradient><linearGradient id="B" x1="674.79" y1="31.32" x2="505.327" y2="192.274" gradientUnits="userSpaceOnUse"><stop stop-color="#2e21ac"/><stop offset="1" stop-color="#c66fd5"/></linearGradient><linearGradient id="C" x1="881.46" y1="-46.92" x2="788.54" y2="46.92" gradientUnits="userSpaceOnUse"><stop stop-color="#3023ae"/><stop offset="1" stop-color="#c86dd7"/></linearGradient><linearGradient id="D" x1="59.59" y1="559.82" x2="-59.59" y2="680.18" gradientUnits="userSpaceOnUse"><stop stop-color="#3023ae"/><stop offset="1" stop-color="#c86dd7"/></linearGradient></defs></svg>