<svg width="1348" height="1473" viewBox="0 0 1348 1473" fill="none" xmlns="http://www.w3.org/2000/svg">
<g clip-path="url(#clip0_11_1149)">
<path d="M1347 633V1473H1V749.77C1.09968 751.771 1.29904 753.772 1.49841 755.773C9.17389 831.218 66.7898 893.755 132.779 930.377C238.441 988.512 365.635 992.414 485.054 976.404C523.83 971.201 562.905 963.997 602.179 965.098C654.014 966.398 704.154 982.008 754.991 992.114C852.28 1011.53 954.554 1010.62 1049.25 980.807C1143.95 950.989 1230.37 890.853 1284.2 807.204C1310.42 765.779 1329.06 720.052 1339.42 672.123C1342.31 659.316 1344.61 646.308 1346.2 633.2L1347 633Z" fill="url(#paint0_linear_11_1149)" fill-opacity="0.8"/>
<g clip-path="url(#clip1_11_1149)">
<path d="M823.067 38.1331C879.632 67.5047 926.577 111.938 970.519 158.796C1030.05 222.321 1105.93 266.788 1175.22 318.222C1253.86 376.556 1324.04 415.552 1341.74 512C1349.28 552.984 1350.85 631.372 1341.74 672.082C1331.34 719.977 1312.6 765.665 1286.37 807.055C1232.47 890.662 1145.91 950.771 1050.97 980.587C956.02 1010.4 853.567 1011.32 756.062 991.925C705.126 981.85 654.803 966.311 602.878 964.979C563.541 963.954 524.409 971.126 485.551 976.318C365.869 992.301 238.375 988.408 132.477 930.348C66.3588 893.735 8.5993 831.235 0.923045 755.825C-7.87906 669.418 47.7653 594.965 104.126 536.085C150.134 488.235 190.225 435.017 223.534 377.58C238.273 352.409 253.421 332.464 262.462 303.878C271.127 276.556 276.484 248.243 286.684 221.364C298.356 190.788 316.274 162.986 339.292 139.738C376.616 102.17 425.335 78.2629 473.03 55.1413C501.005 41.4801 529.049 28.0238 558.526 18.3243C626.613 -3.87874 699.846 -4.76043 768.446 15.797C787.305 21.5323 805.591 29.0099 823.067 38.1331Z" fill="url(#paint1_linear_11_1149)"/>
<path opacity="0.3" d="M684.469 862.667C689.307 863.981 693.804 866.493 697.614 870.008C707.528 880.301 702.696 899.993 691.716 908.947C680.736 917.902 666.242 919.24 652.595 920.578C607.264 924.827 562.178 931.767 517.537 941.368C474.086 950.734 430.008 962.604 385.396 960.82C369.71 960.203 331.122 959.379 319.797 945.451C305.24 927.542 336.33 906.786 349.287 896.974C402.62 856.457 465.176 865.651 526.823 855.462C579.058 846.817 633.614 844.724 684.469 862.667Z" fill="url(#paint2_linear_11_1149)"/>
<path opacity="0.3" d="M906.507 764.522C899.268 767.029 891.905 771.07 887.988 778.28C886.08 782.545 884.568 787.015 883.476 791.621C880.895 799.661 876.748 806.968 871.331 813.019C865.914 819.071 859.362 823.717 852.143 826.627C848.007 828.264 843.369 829.553 840.8 833.593C839.572 835.766 838.948 838.292 839.003 840.856C839.059 843.421 839.793 845.91 841.113 848.014C843.825 852.155 847.511 855.385 851.767 857.349C867.026 865.291 884.792 865.291 901.336 861.668C917.881 858.046 933.641 851.218 949.716 845.401C970.501 838.114 991.862 833.04 1013.51 830.25C1030.65 828.055 1047.98 827.254 1064.52 821.402C1081.07 815.55 1096.67 803.673 1103 785.839C1082.51 762.466 1049.73 759.645 1020.56 762.153C983.243 765.288 943.073 751.912 906.507 764.522Z" fill="url(#paint3_linear_11_1149)"/>
<path opacity="0.3" d="M177.767 732.539C170.502 735.03 163.111 738.954 159.179 746.018C157.253 750.195 155.725 754.575 154.619 759.088C152.043 766.975 147.886 774.142 142.447 780.073C137.008 786.004 130.423 790.551 123.167 793.385C119.047 794.989 114.392 796.251 111.782 800.21C110.566 802.344 109.948 804.816 110.003 807.325C110.059 809.833 110.786 812.27 112.096 814.338C114.805 818.423 118.523 821.593 122.821 823.484C138.138 831.264 155.971 831.264 172.578 827.715C189.184 824.166 205.004 817.478 221.139 811.779C242.002 804.639 263.444 799.668 285.174 796.934C302.347 794.784 319.771 793.999 336.377 788.3C352.984 782.601 368.647 770.896 375 753.424C354.431 730.525 321.532 727.761 292.251 730.218C254.761 733.187 214.44 719.946 177.767 732.539Z" fill="url(#paint4_linear_11_1149)"/>
<path opacity="0.3" d="M481.484 686.472C462.321 690.238 442.655 694.347 426.131 705.578C420.444 709.413 414.915 714.788 414.099 721.945C413.188 729.923 418.717 737.387 425.408 740.742C432.336 743.565 439.738 744.732 447.116 744.166L533.381 744.749L597.248 745.159C604.976 745.159 613.867 743.927 621.469 745.159C635.386 747.693 647.449 755.089 662.309 755.842C681.44 756.835 700.509 752.966 719.201 748.994C730.888 746.529 742.857 743.927 753.067 737.181C757.182 734.476 761.297 730.333 760.983 725.06C760.549 721.901 759.116 719.006 756.931 716.877C742.385 700.51 718.541 701.845 698.153 696.812C676.477 691.436 656.905 677.809 634.946 673.837C624.866 672.4 614.686 671.987 604.536 672.604C586.41 673.084 568.095 670.447 550.22 673.495C527.224 677.706 504.385 682.294 481.484 686.472Z" fill="url(#paint5_linear_11_1149)"/>
<path d="M587.675 654.063C570.189 650.102 573.604 674.931 568.993 684.118C566.116 688.826 562.468 693.017 558.201 696.516C553.907 700.052 551.103 705.076 550.346 710.587C550.237 711.617 550.452 712.655 550.961 713.558C551.807 714.652 553.02 715.404 554.376 715.675C564.359 718.581 575.078 717.517 584.294 712.704C588.6 710.646 592.175 707.321 594.54 703.175C596.449 698.726 597.348 693.909 597.17 689.07C597.682 678.722 602.259 657.274 587.675 654.063Z" fill="#FDB9A9"/>
<path d="M572.064 705.087C572.064 705.087 522.303 707.205 543.375 722.847C564.448 738.489 595.971 719.056 599.113 715.333C602.255 711.611 599.694 705.668 599.694 705.668L572.064 705.087Z" fill="#68E1FD"/>
<path d="M596.963 711.918C592.523 717.314 569.128 724.589 558.814 723.837C548.499 723.086 539.176 718.27 540.166 711.576C541.157 704.882 559.463 689.343 562.912 689.377C566.362 689.411 569.06 697.369 575.993 699.008C579.074 699.526 582.236 699.246 585.178 698.194C588.12 697.141 590.743 695.352 592.796 692.997C593.425 692.134 594.334 691.515 595.368 691.247C596.402 690.979 597.497 691.079 598.465 691.529C599.881 694.796 600.484 698.357 600.223 701.908C599.961 705.459 598.842 708.894 596.963 711.918V711.918Z" fill="white"/>
<path d="M647.648 663.865C630.162 659.8 633.577 684.596 628.966 693.783C626.098 698.508 622.449 702.711 618.174 706.214C613.903 709.77 611.104 714.784 610.319 720.286C610.21 721.316 610.425 722.354 610.933 723.257C611.779 724.351 612.992 725.103 614.349 725.374C624.333 728.262 635.046 727.198 644.267 722.403C648.556 720.32 652.124 717.001 654.513 712.874C656.422 708.425 657.32 703.607 657.142 698.769C657.655 688.318 662.231 666.973 647.648 663.865Z" fill="#FDB9A9"/>
<path d="M632.173 714.685C632.173 714.685 582.412 716.768 603.485 732.444C624.557 748.12 656.046 728.619 659.086 725.067C662.126 721.515 659.667 715.368 659.667 715.368L632.173 714.685Z" fill="#68E1FD"/>
<path d="M656.936 721.448C652.496 726.878 629.135 734.118 618.787 733.401C608.438 732.684 599.149 727.834 600.139 721.14C601.129 714.446 619.436 698.872 622.885 698.941C626.334 699.009 629.067 706.932 635.966 708.538C639.052 709.055 642.219 708.775 645.166 707.723C648.114 706.671 650.742 704.882 652.803 702.527C653.426 701.666 654.329 701.048 655.357 700.78C656.385 700.513 657.475 700.611 658.438 701.058C659.854 704.325 660.457 707.887 660.196 711.438C659.934 714.989 658.815 718.423 656.936 721.448V721.448Z" fill="white"/>
<path d="M602.564 438.182L625.959 684.084L659.634 679.917C672.954 619.91 669.675 440.299 669.675 440.299L602.564 438.182Z" fill="#694D69"/>
<path d="M625.958 431.521L602.563 677.423L568.649 673.359C549.387 517.689 565.234 420.626 565.234 420.626L625.958 431.521Z" fill="#694D69"/>
<path d="M568.378 342.553C567.968 338.044 566.773 333.57 566.295 328.891C565.201 319.599 565.374 310.2 566.807 300.954C568.395 291.126 571.362 281.572 575.619 272.573C579.512 264.752 586.513 261.439 594.437 257.546C601.037 253.964 608.197 251.528 615.612 250.339C620.864 249.865 626.157 250.164 631.322 251.227C647.203 254.233 668.139 262.429 679.136 275.134C687.299 284.526 688.255 298.017 688.494 310.483C688.836 327.65 688.483 344.818 687.436 361.986C687.436 364.479 687.162 366.972 686.958 369.465C685.489 388.283 683.952 407.819 678.59 426.023C676.917 431.726 675.175 437.464 669.847 440.538C657.415 447.744 638.392 443.953 624.97 441.904C607.176 439.376 588.87 436.747 573.091 428.243C569.797 426.812 567.129 424.241 565.578 421.002C564.211 417.143 565.885 412.942 567.08 409.014C572.408 391.426 568.276 372.949 568.276 355.018C568.276 351.774 568.685 348.461 568.685 345.216C568.651 344.192 568.378 343.372 568.378 342.553Z" fill="white"/>
<path opacity="0.1" d="M611.615 273.086C613.385 269.728 615.49 266.558 617.899 263.625C618.204 263.227 618.603 262.91 619.06 262.703C619.475 262.6 619.909 262.6 620.324 262.703L635.556 265.128C636.268 265.161 636.956 265.398 637.537 265.811C638.019 266.229 638.374 266.773 638.562 267.382C639.499 271.052 638.985 274.942 637.127 278.243C632.689 286.776 627.439 294.862 621.451 302.389C618.029 306.994 615.109 311.951 612.742 317.177C611.615 319.807 611.239 322.778 610.146 325.408C609.054 328.038 606.731 326.672 604.784 326.228L581.287 321.275L569.538 318.816C567.831 318.475 566.499 318.475 567.387 316.46C567.699 315.867 568.125 315.341 568.641 314.914C569.157 314.486 569.752 314.164 570.392 313.967C572.24 313.5 574.126 313.202 576.028 313.079C579.926 312.117 583.579 310.348 586.752 307.887C589.262 306.268 591.647 304.465 593.89 302.491C602.36 294.739 606.219 283.263 611.615 273.086Z" fill="#020202"/>
<path d="M586.034 258.093C587.627 255.939 589.759 254.243 592.216 253.175C597.783 251.262 603.316 255.941 609.053 257.273C613.357 258.229 618.719 257.683 621.28 261.303C622.039 262.844 622.434 264.538 622.434 266.255C622.434 267.973 622.039 269.667 621.28 271.208C616.46 286.645 610.524 301.712 603.52 316.29C600.72 322.13 597.066 327.355 594.094 332.956C590.679 339.138 589.962 345.661 585.146 351.194C580.331 356.727 571.485 360.62 564.347 357.786C560.775 356.214 557.746 353.624 555.638 350.34C546.724 337.464 552.94 323.735 557.858 310.825C561.41 301.74 584.258 260.074 586.034 258.093Z" fill="white"/>
<path opacity="0.1" d="M662.845 442.587C656.868 443.68 649.764 447.984 643.582 446.822C636.72 443.54 629.309 441.56 621.724 440.982C611.478 439.787 600.789 435.142 590.987 432C586.849 431.053 583.011 429.094 579.819 426.296C573.842 420.081 575.618 410.108 576.847 401.57C578.62 389.087 578.354 376.399 576.062 364.001C575.167 358.162 573.644 352.437 571.519 346.925C569.641 342.621 566.704 339.821 567.421 334.698C568.036 330.19 571.144 324.896 576.198 324.452C578.875 324.546 581.48 325.347 583.746 326.774C590.163 330.222 597.076 332.653 604.238 333.981C612.95 335.057 621.789 333.638 629.727 329.89C637.665 326.142 644.377 320.217 649.081 312.806C653.76 305.429 658.405 271.378 671.485 276.091C675.712 277.893 679.494 280.596 682.568 284.012C685.641 287.428 687.932 291.473 689.279 295.866C691.839 304.735 692.901 313.969 692.421 323.188C692.148 347.095 687.401 371.515 684.361 395.251C683.166 404.234 681.765 437.601 669.88 440.538C667.455 441.016 665.167 442.109 662.845 442.587Z" fill="#020202"/>
<path d="M578.042 309.527C575.857 308.166 573.368 307.369 570.798 307.208C568.229 307.047 565.66 307.527 563.322 308.605C561.021 309.761 559.08 311.524 557.708 313.703C556.336 315.881 555.584 318.394 555.535 320.968C555.76 324.475 556.941 327.853 558.95 330.736C560.038 332.63 561.517 334.272 563.288 335.551C566.09 337.226 569.373 337.911 572.612 337.498C575.54 337.392 578.404 336.609 580.979 335.21C584.804 333.058 589.757 326.911 588.493 322.095C586.326 316.966 582.69 312.593 578.042 309.527V309.527Z" fill="#FDB9A9"/>
<path d="M683.407 279.984C697.82 303.891 702.84 331.999 707.587 359.458C708.417 362.81 708.568 366.294 708.031 369.704C707.136 372.728 705.463 375.464 703.18 377.64C700.896 379.815 698.083 381.354 695.019 382.102C688.889 383.54 682.551 383.875 676.303 383.092C662.881 382.239 646.966 381.077 635.593 373.29C631.665 370.627 628.216 367.314 624.22 364.752C620.319 362.466 616.269 360.446 612.095 358.707C604.136 355.013 596.543 350.576 589.418 345.456C586.966 343.95 584.925 341.862 583.475 339.376C581.153 334.732 582.963 329.131 584.773 324.349C585.107 323.104 585.854 322.008 586.89 321.241C588.313 320.66 589.907 320.66 591.33 321.241C610.54 326.958 630.123 331.34 649.937 334.356C655.367 335.21 652.977 329.233 652.259 326.125C651.065 321.774 650.107 317.362 649.391 312.908C648.687 306.496 649.565 300.009 651.946 294.014C654.328 288.019 658.14 282.698 663.052 278.516C665.579 276.162 668.78 274.657 672.205 274.212C674.375 274.324 676.496 274.896 678.428 275.892C680.359 276.887 682.057 278.282 683.407 279.984Z" fill="white"/>
<path d="M610.521 224.041C610.005 221.665 609.64 219.258 609.428 216.835C608.267 206.589 607.277 195.933 612.297 187.122C614.375 183.418 617.402 180.334 621.066 178.188C624.731 176.042 628.901 174.911 633.148 174.911C637.394 174.911 641.564 176.042 645.229 178.188C648.894 180.334 651.92 183.418 653.998 187.122C656.93 192.642 658.199 198.894 657.652 205.12C657.096 211.317 655.953 217.446 654.237 223.426C652.598 229.779 648.431 233.672 646.04 239.512C645.225 242.025 644.844 244.659 644.913 247.299C645.257 251.242 645.257 255.208 644.913 259.15C641.021 261.709 636.569 263.29 631.935 263.761C629.763 263.726 627.609 263.357 625.549 262.668C624.385 262.438 623.356 261.764 622.68 260.79C622.374 259.936 622.303 259.016 622.475 258.126C622.475 257.272 622.68 256.452 622.68 255.599C623.158 251.338 623.089 247.034 622.475 242.791C621.09 239.476 618.807 236.614 615.883 234.526C613.051 231.673 611.177 228.008 610.521 224.041V224.041Z" fill="#FDB9A9"/>
<path opacity="0.1" d="M613.048 228.686C617.665 228.107 622.231 227.182 626.709 225.92C628.246 225.476 630.125 225.1 631.286 226.193C631.807 226.797 632.161 227.527 632.31 228.311C632.867 229.841 633.122 231.465 633.062 233.092C632.79 234.451 632.414 235.787 631.935 237.088C631.716 237.738 631.636 238.426 631.701 239.109C631.765 239.791 631.973 240.453 632.31 241.05C633.403 242.552 635.726 243.031 636.238 244.841C636.75 246.651 635.418 247.368 635.008 248.632C634.564 250.149 634.255 251.704 634.086 253.276C634.052 255.092 633.776 256.895 633.267 258.638C632.896 259.534 632.325 260.333 631.596 260.973C630.868 261.612 630.002 262.076 629.066 262.327C628.121 262.558 627.136 262.574 626.184 262.373C625.232 262.172 624.338 261.759 623.567 261.166C621.587 259.041 620.383 256.309 620.152 253.413L618.308 244.226C617.766 241.029 616.943 237.886 615.849 234.834C614.744 232.716 613.464 230.694 612.023 228.789L613.048 228.686Z" fill="#020202"/>
<path d="M322.304 404.917C322.304 404.917 324.421 413.489 304.1 419.91C283.779 426.331 276.266 404.917 276.266 404.917C276.266 404.917 314.79 389.923 322.304 404.917Z" fill="#423371"/>
<path d="M217.796 621.549L220.152 612.499L226.3 589.172C226.479 588.063 226.977 587.031 227.734 586.201C228.656 585.415 231.525 594.261 232.755 594.158C239.461 593.776 246.189 594.269 252.768 595.627C254.544 595.969 247.338 696.242 246.723 706.078C245.255 728.619 246.45 773.189 249.763 772.915C243.171 773.462 229.681 774.213 226.846 771.242C221.723 766.119 230.501 733.093 220.938 694.329C218.586 684.8 217.28 675.043 217.044 665.231C216.669 650.989 214.278 635.415 217.796 621.549Z" fill="#EFAC88"/>
<path d="M264.928 733.092C265.675 731.742 266.293 730.324 266.773 728.857C268.344 723.837 267.148 718.611 267.49 713.557C267.695 710.885 267.695 708.202 267.49 705.531C266.944 698.7 266.056 691.87 265.202 685.039C263.733 673.529 261.035 661.542 261.035 649.895C261.035 640.913 268.275 612.703 268.275 612.703L261.035 575.92H297.784C297.784 575.92 302.497 606.658 301.199 610.073C298.522 617.051 296.944 624.401 296.52 631.863C296.52 645.08 294.744 658.468 293.72 671.651C292.558 686.064 291.42 700.476 290.304 714.889C289.894 720.08 289.45 725.135 289.041 730.428C288.727 738.056 290.14 745.656 293.173 752.662C294.334 755.838 295.632 759.766 293.412 762.361C291.192 764.957 286.342 764.069 283.166 762.361C278.652 759.331 273.874 756.713 268.89 754.54C266.911 754.088 265.019 753.315 263.289 752.252C259.874 749.657 259.874 744.465 261.445 740.469C262.467 737.947 263.63 735.484 264.928 733.092V733.092Z" fill="#EFAC88"/>
<path d="M288.596 302.799C288.596 302.799 284.429 291.802 293.89 302.799C303.35 313.796 318.548 378.824 318.548 378.824C318.548 378.824 297.271 398.359 291.226 394.5C285.181 390.64 288.596 302.799 288.596 302.799Z" fill="#423371"/>
<path d="M279.476 199.076C291.395 203.994 294.298 221.651 293.445 232.819C292.386 246.788 280.671 260.756 284.701 274.793C287.33 281.985 288.559 289.613 288.322 297.266C287.57 304.882 282.857 312.669 275.446 314.342C273.675 314.571 271.941 315.03 270.289 315.708C268.173 317.232 266.538 319.33 265.576 321.754C258.674 335.721 246.515 346.382 231.764 351.398C217.044 355.872 199.626 352.423 189.21 341.152C178.793 329.882 177.153 310.722 187.058 298.973C189.893 295.558 193.718 292.45 193.888 288.079C193.787 286.06 193.478 284.057 192.966 282.102C192.419 278.315 193.073 274.452 194.838 271.058C196.603 267.663 199.388 264.908 202.802 263.181C208.335 260.517 215.371 260.654 219.64 256.35C224.421 251.398 223.26 243.509 223.055 236.644C220.904 200.749 247.987 186.132 279.476 199.076Z" fill="#AD684D"/>
<path d="M201.812 499.008C198.943 527.013 203.93 555.667 208.95 583.605C210.111 590.162 211.546 597.266 216.43 601.774C220.268 604.852 224.83 606.898 229.681 607.717C261.537 615.097 294.946 611.61 324.592 597.812L317.045 528.14C315.064 509.595 312.912 490.572 306.252 473.085C305.023 469.841 285.76 437.6 290.337 434.834C281.252 440.435 270.699 439.615 260.282 442.04C247.956 444.934 236.093 449.532 225.036 455.702C219.371 458.2 214.458 462.137 210.785 467.122C207.112 472.107 204.808 477.966 204.1 484.117C203.066 489.035 202.302 494.006 201.812 499.008V499.008Z" fill="#6844B9"/>
<path d="M201.812 499.008C198.943 527.013 203.93 555.667 208.95 583.605C210.111 590.162 211.546 597.266 216.43 601.774C220.268 604.852 224.83 606.898 229.681 607.717C261.537 615.097 294.946 611.61 324.592 597.812L317.045 528.14C315.064 509.595 312.912 490.572 306.252 473.085C305.023 469.841 285.76 437.6 290.337 434.834C281.252 440.435 270.699 439.615 260.282 442.04C247.956 444.934 236.093 449.532 225.036 455.702C219.371 458.2 214.458 462.137 210.785 467.122C207.112 472.107 204.808 477.966 204.1 484.117C203.066 489.035 202.302 494.006 201.812 499.008V499.008Z" fill="url(#paint6_linear_11_1149)"/>
<path d="M201.812 499.008C198.943 527.013 203.93 555.667 208.95 583.605C210.111 590.162 211.546 597.266 216.43 601.774C220.268 604.852 224.83 606.898 229.681 607.717C261.537 615.097 294.946 611.61 324.592 597.812L317.045 528.14C315.064 509.595 312.912 490.572 306.252 473.085C305.023 469.841 285.76 437.6 290.337 434.834C281.252 440.435 270.699 439.615 260.282 442.04C247.956 444.934 236.093 449.532 225.036 455.702C219.371 458.2 214.458 462.137 210.785 467.122C207.112 472.107 204.808 477.966 204.1 484.117C203.066 489.035 202.302 494.006 201.812 499.008V499.008Z" fill="url(#paint7_linear_11_1149)" fill-opacity="0.2"/>
<path d="M278.86 273.085C278.86 273.085 269.605 284.834 269.571 292.04C269.473 296.813 268.819 301.558 267.624 306.18C267.624 306.18 266.155 314.786 261.374 311.439C256.592 308.092 239.789 285.551 239.789 285.551L258.129 261.098L278.86 273.085Z" fill="#EFAC88"/>
<path d="M307.345 480.634C307.345 480.634 303.589 438.796 296.621 422.027C294.687 415.95 294.219 409.502 295.255 403.209C296.655 388.387 301.164 374.179 303.589 359.527C304.327 352.971 303.84 346.336 302.154 339.957C299.604 327.253 296.621 314.639 293.206 302.116C292.905 300.504 292.213 298.992 291.191 297.71C290.026 296.651 288.637 295.869 287.127 295.422L268.855 288.591C270.767 294.466 272.578 301.023 269.948 306.624C269.304 308.259 268.091 309.605 266.532 310.415C263.117 311.815 259.702 309.561 256.97 307C252.834 302.978 249.638 298.091 247.612 292.69C246.587 289.871 245.866 286.952 245.46 283.981C245.187 281.863 245.802 278.789 244.196 277.321C241.601 281.897 236.239 284.151 232.174 287.328C228.11 290.504 222.885 294.158 217.967 297.574C213.866 299.801 210.525 303.202 208.37 307.341C207.312 310.838 207.312 314.569 208.37 318.065C209.224 321.959 210.556 325.75 211.273 329.677C211.957 334.672 212.367 339.7 212.502 344.739C213.321 352.233 214.657 359.662 216.498 366.973C217.191 371.44 217.613 375.945 217.762 380.463C217.762 380.463 224.592 405.873 223.226 412.089C221.86 418.305 209.087 442.314 208.37 452.833C207.653 463.353 212.468 485.45 212.468 485.45C212.468 485.45 224.285 486.235 237.4 486.747C252.837 487.328 280.843 480.805 282.926 478.721C285.658 475.989 287.161 456.488 286.922 443.475C293.138 463.694 298.022 480.634 298.022 480.634H307.345Z" fill="#423371"/>
<path d="M216.43 506.215C218.992 506.966 219.846 509.254 221.758 512.123C224.319 516.112 226.679 520.227 228.828 524.452C229.122 524.747 229.287 525.146 229.287 525.562C229.287 525.979 229.122 526.378 228.828 526.672C228.576 526.909 228.251 527.053 227.906 527.082C225.719 527.87 223.364 528.07 221.075 527.663C220.197 533.132 221.032 538.739 223.466 543.715C224.047 544.91 224.661 546.515 223.705 547.472C223.261 547.813 222.727 548.015 222.168 548.052C217.283 548.367 212.419 547.175 208.234 544.637C205.804 543.569 203.583 542.077 201.676 540.231C199.085 537.153 197.186 533.554 196.109 529.678C196.109 527.213 196.35 524.753 196.827 522.335C196.827 521.208 197.988 506.488 198.329 506.488L214.176 505.873C214.94 505.877 215.7 505.992 216.43 506.215V506.215Z" fill="#FDC099"/>
<path d="M216.533 500.375L217.796 506.761L195.768 510.586V503.243L216.533 500.375Z" fill="white"/>
<path d="M216.532 416.392C216.532 416.392 234.052 374.247 231.662 359.39C229.271 344.534 219.196 309.868 211.75 310.176C204.305 310.483 201.949 320.422 201.949 329.643C201.949 338.864 186.989 422.027 186.033 429.712C185.077 437.396 194.469 508.264 194.469 508.264L219.401 502.765L216.532 416.392Z" fill="#423371"/>
<path d="M283.574 210.79C283.975 211.024 284.324 211.338 284.599 211.712C286.374 214.783 287.534 218.17 288.014 221.685C292.83 238.761 299.387 255.018 289.995 271.958C289.32 273.353 288.353 274.588 287.161 275.578C285.934 276.424 284.534 276.984 283.062 277.218C276.145 278.644 268.946 277.502 262.809 274.007C259.294 272.329 255.874 270.46 252.563 268.406C251.132 267.398 249.961 266.063 249.148 264.513C248.397 262.907 247.167 261.336 247.68 259.458C248.055 258.16 248.807 257.033 249.08 255.701C249.358 253.621 248.976 251.507 247.987 249.656C247.753 249.258 247.602 248.817 247.543 248.359C247.485 247.901 247.519 247.436 247.645 246.992C248.26 245.524 250.309 245.626 251.88 245.25C253.162 244.765 254.325 244.012 255.292 243.04C256.258 242.068 257.004 240.9 257.482 239.615C258.993 236.561 260.139 233.34 260.897 230.018C261.371 227.15 262.197 224.351 263.356 221.685C265.638 218.022 268.937 215.103 272.85 213.283C275.548 211.712 280.603 208.946 283.574 210.79Z" fill="#FDC099"/>
<path d="M291.191 235.619L292.728 234.287C292.728 234.287 293.172 235.243 293.719 235.141C294.204 235.01 294.673 234.826 295.119 234.594C295.119 234.594 294.265 235.824 293.685 235.926C292.88 236.029 292.065 236.029 291.26 235.926L291.191 235.619Z" fill="#8A3C1F"/>
<path d="M292.521 234.39L293.17 233.229C293.17 233.229 293.683 233.707 294.024 233.502C294.286 233.313 294.527 233.095 294.741 232.854C294.741 232.854 294.537 233.81 294.195 234.015C293.677 234.225 293.139 234.386 292.59 234.493L292.521 234.39Z" fill="#8A3C1F"/>
<path d="M367.557 344.979H303.657L248.875 414.241L309.155 411.816L367.557 344.979Z" fill="#6D4ADE"/>
<path d="M329.581 401.637C329.66 400.969 329.785 400.307 329.957 399.656C330.763 395.366 330.647 390.954 329.615 386.712C328.581 382.433 325.955 378.708 322.272 376.296C321.993 376.125 321.695 375.987 321.384 375.886C320.894 375.885 320.423 376.072 320.067 376.409C319.711 376.746 319.498 377.207 319.472 377.696C319.463 378.678 319.686 379.649 320.121 380.531C321.247 383.342 322.038 386.277 322.477 389.274L319.267 385.619C318.384 384.42 317.208 383.468 315.852 382.853C315.149 382.58 314.367 382.591 313.672 382.885C312.977 383.178 312.424 383.73 312.129 384.424C311.966 385.27 312.086 386.146 312.47 386.917L315.476 395.626C314.081 392.838 311.847 390.557 309.089 389.103C308.54 389.857 308.243 390.766 308.243 391.699C308.243 392.632 308.54 393.54 309.089 394.294C310.176 395.86 311.103 397.53 311.856 399.281C311.138 398.433 310.488 397.53 309.909 396.582C309.192 395.729 307.826 395.182 307.006 395.934C306.186 396.685 306.459 397.744 306.699 398.666C308.755 405.196 309.566 412.055 309.089 418.884L312.914 418.031C315.94 417.025 318.804 415.587 321.418 413.761C323.592 412.471 325.451 410.713 326.862 408.617C328.274 406.52 329.203 404.136 329.581 401.637V401.637Z" fill="#EFAC88"/>
<path d="M728.214 395.934C729.375 394.943 731.185 394.192 732.346 395.182C732.703 395.583 732.97 396.056 733.129 396.568C733.288 397.081 733.336 397.621 733.268 398.154V404.267C743.685 401.091 751.54 392.723 759.19 385.005C760.796 383.365 763.152 381.589 765.133 382.751C765.848 383.28 766.385 384.014 766.672 384.856C766.959 385.699 766.982 386.608 766.738 387.464C766.152 389.11 765.751 390.817 765.543 392.553C765.543 395.353 767.558 397.778 767.831 400.544C768.139 403.96 765.816 407.034 765.509 410.449V413.864C764.993 415.947 763.972 417.87 762.537 419.465C759.1 424.652 754.535 428.995 749.184 432.17C745.52 433.764 741.642 434.812 737.674 435.278L725.276 437.396C724.066 437.703 722.798 437.703 721.588 437.396C717.865 436.132 716.704 430.053 716.841 426.706C717.386 423.582 718.547 420.599 720.256 417.928C722.817 410.825 722.032 401.125 728.214 395.934Z" fill="#A67C52"/>
<path d="M361.342 358.298C360.522 357 359.019 355.77 357.619 356.351C357.16 356.629 356.764 357.001 356.458 357.443C356.152 357.884 355.943 358.385 355.843 358.913L353.965 364.719C344.948 358.605 339.928 348.291 334.941 338.626C333.883 336.576 332.175 334.22 329.921 334.732C329.106 335.041 328.407 335.594 327.918 336.315C327.429 337.037 327.174 337.891 327.189 338.762C327.235 340.501 327.109 342.24 326.813 343.954C325.993 346.617 323.398 348.359 322.236 350.784C320.939 353.926 322.236 357.615 321.519 361.03C321.28 362.123 320.802 363.182 320.631 364.445C320.494 366.585 320.906 368.725 321.827 370.661C323.546 376.645 326.606 382.157 330.775 386.781C333.799 389.379 337.181 391.53 340.816 393.168L352.052 398.872C353.093 399.489 354.261 399.862 355.467 399.965C359.395 399.965 362.298 394.432 363.186 391.187C363.596 388.063 363.422 384.89 362.674 381.829C362.059 374.145 365.645 365.231 361.342 358.298Z" fill="#A67C52"/>
<path d="M468.036 913.968C468.086 914.242 468.178 914.507 468.309 914.753C469.846 918.715 474.73 920.047 478.965 920.525C482.909 920.992 486.88 921.186 490.85 921.106C492.737 921.153 494.618 920.888 496.417 920.32C498.1 919.595 499.674 918.641 501.096 917.486L512.503 909.016C515.724 906.825 518.65 904.231 521.212 901.297C523.786 898.332 525.129 894.496 524.969 890.573C524.861 888.624 524.143 886.758 522.918 885.238C521.692 883.719 520.021 882.622 518.139 882.103C515.749 881.863 513.338 881.932 510.966 882.308C506.083 882.547 499.252 880.532 497.305 875.477C496.791 873.324 495.593 871.394 493.89 869.979C492.23 869.234 490.382 869.02 488.596 869.364C484.62 869.524 480.692 870.296 476.95 871.652C475.077 872.325 473.38 873.412 471.985 874.831C470.589 876.25 469.532 877.965 468.89 879.849C468.446 881.6 468.273 883.408 468.378 885.211C468.582 888.908 468.582 892.614 468.378 896.311C467.825 900.957 467.563 905.634 467.592 910.313C467.62 911.543 467.768 912.767 468.036 913.968Z" fill="#262836"/>
<path d="M578.896 915.403C571.212 918.921 563.306 921.932 555.228 924.419C551.989 925.818 548.359 926.023 544.982 925C543.637 924.327 542.455 923.367 541.523 922.186C540.59 921.005 539.929 919.634 539.586 918.169C538.866 915.279 538.566 912.299 538.698 909.323C538.698 904.371 540.747 900.546 541.533 895.833C542.25 891.735 542.831 887.602 543.411 883.504C544.231 877.629 544.982 871.755 545.734 865.847L566.226 870.252C568.377 870.696 570.426 878.996 571.69 880.737C572.667 882.021 573.913 883.074 575.341 883.823C576.769 884.573 578.344 885 579.955 885.075C583.37 885.246 587.025 883.64 590.543 884.221C592.807 884.779 594.828 886.062 596.295 887.875C597.763 889.688 598.597 891.931 598.671 894.262C598.641 896.591 598.134 898.89 597.183 901.016C596.231 903.142 594.855 905.051 593.138 906.625C589.672 909.738 585.714 912.254 581.424 914.071L578.896 915.403Z" fill="#262836"/>
<path d="M579.069 892.486C573.686 895.55 568.094 898.232 562.334 900.512L561.754 900.751C552.259 904.439 541.638 889.549 541.638 889.549C541.638 889.549 528.215 806.625 528.83 772.267C529.24 748.667 523.673 715.026 515.169 653.995C513.052 716.324 502.498 743.715 505.196 766.051C509.295 800.034 504.411 884.426 504.411 884.426C504.411 884.426 495.429 900.853 485.558 898.633H484.978C479.048 897.277 473.226 895.485 467.56 893.271C467.56 893.271 456.084 777.151 456.084 746.413C456.084 715.675 457.348 688.353 457.348 688.353L451.371 591.256L476.952 554.131L479.035 553.243L481.016 551.297L509.363 530.498C509.363 530.498 509.363 535.347 508.851 543.646L530.845 555.463L532.997 557.069L535.149 557.615L572.068 564.07C572.068 564.07 581.767 712.909 584.875 743.374C587.983 773.838 579.069 892.486 579.069 892.486Z" fill="#BA68D0"/>
<path d="M579.069 892.486C573.686 895.55 568.094 898.232 562.334 900.512L561.754 900.751C552.259 904.439 541.638 889.549 541.638 889.549C541.638 889.549 528.215 806.625 528.83 772.267C529.24 748.667 523.673 715.026 515.169 653.995C513.052 716.324 502.498 743.715 505.196 766.051C509.295 800.034 504.411 884.426 504.411 884.426C504.411 884.426 495.429 900.853 485.558 898.633H484.978C479.048 897.277 473.226 895.485 467.56 893.271C467.56 893.271 456.084 777.151 456.084 746.413C456.084 715.675 457.348 688.353 457.348 688.353L451.371 591.256L476.952 554.131L479.035 553.243L481.016 551.297L509.363 530.498C509.363 530.498 509.363 535.347 508.851 543.646L530.845 555.463L532.997 557.069L535.149 557.615L572.068 564.07C572.068 564.07 581.767 712.909 584.875 743.374C587.983 773.838 579.069 892.486 579.069 892.486Z" fill="url(#paint8_linear_11_1149)"/>
<path d="M548.465 305.053C550.787 307.376 554.271 309.766 553.315 312.84C552.802 314.479 551.061 315.436 549.899 316.597C548.231 318.282 546.916 320.282 546.031 322.481C545.145 324.68 544.707 327.034 544.742 329.404C544.885 334.036 544.226 338.658 542.795 343.065C541.995 345.277 540.459 347.146 538.444 348.358C536.429 349.571 534.059 350.054 531.73 349.725C529.032 348.974 526.334 346.652 523.738 347.744C521.757 348.598 521.142 351.16 520.118 352.867C518.645 355.069 516.584 356.812 514.168 357.899C511.753 358.986 509.081 359.373 506.457 359.015C501.231 358.258 496.192 356.532 491.6 353.926C489.634 353.171 487.935 351.852 486.716 350.135C485.924 348.488 485.73 346.616 486.17 344.841C487.126 339.411 490.883 334.937 493.922 330.258C499.558 321.61 502.939 311.689 503.759 301.399C504.305 294.227 503.759 286.337 508.369 280.907C514.619 273.359 529.715 273.427 537.468 278.96C546.382 284.664 541.327 297.642 548.465 305.053Z" fill="#A67C52"/>
<path d="M539.21 272.573C538.294 274.353 536.913 275.852 535.214 276.911C531.799 278.926 528.862 281.282 525.549 283.502C522.418 285.607 520.216 288.835 519.401 292.519C518.001 299.349 521.69 306.487 519.401 313.011C518.616 314.308 516.43 313.523 515.542 312.225C514.654 310.927 514.21 309.288 512.878 308.502C510.624 307.205 507.858 309.39 506.901 311.918C505.9 314.739 506.026 317.838 507.254 320.568C508.483 323.298 510.718 325.448 513.493 326.569C513.186 328.653 510.453 329.507 508.336 329.199C506.234 328.621 504.061 328.345 501.881 328.38C496.997 329.302 495.05 336.269 490.269 336.986C488.584 336.865 486.95 336.363 485.488 335.516C484.027 334.67 482.777 333.503 481.833 332.102L475.89 325.272C474.945 324.054 473.906 322.912 472.783 321.856C471.451 320.798 469.367 320.729 468.138 319.466C466.908 318.202 468.138 315.299 466.942 313.728C466.349 313.184 465.652 312.766 464.893 312.498C463.182 311.637 461.82 310.212 461.036 308.465C460.252 306.717 460.095 304.752 460.59 302.901C460.727 302.433 460.727 301.935 460.59 301.467C460.385 300.852 459.634 300.545 459.019 300.237C457.201 299.098 455.855 297.342 455.228 295.291C454.6 293.239 454.734 291.03 455.604 289.069C456.56 286.787 457.965 284.719 459.736 282.99C460.39 282.049 461.291 281.306 462.339 280.842C463.387 280.378 464.542 280.212 465.679 280.36L466.601 271.822C466.681 270.085 467.098 268.379 467.83 266.802C469.777 263.386 474.251 262.498 478.076 262.054L476.437 254.95C476.244 254.515 476.144 254.044 476.144 253.567C476.144 253.091 476.244 252.62 476.437 252.184C476.955 251.554 477.682 251.13 478.486 250.989C480.789 250.378 483.145 249.989 485.522 249.828C484.631 247.857 483.956 245.796 483.507 243.68C483.404 243.277 483.404 242.854 483.507 242.45C483.71 242.068 484.024 241.755 484.408 241.554C484.792 241.353 485.228 241.273 485.658 241.323C486.527 241.494 487.42 241.494 488.288 241.323C488.288 241.323 486.99 235.381 486.922 234.834C486.715 233.903 486.697 232.941 486.867 232.002C487.037 231.064 487.392 230.169 487.912 229.37C488.607 228.543 489.503 227.911 490.515 227.534C491.526 227.157 492.618 227.048 493.684 227.218C495.808 227.601 497.852 228.34 499.729 229.404C499.524 227.116 502.462 225.989 504.818 225.784C509.208 225.531 513.59 226.394 517.556 228.294C521.521 230.193 524.941 233.066 527.496 236.644C527.898 237.284 528.38 237.869 528.93 238.386C529.978 239.072 531.132 239.58 532.345 239.889C534.19 240.709 535.829 241.928 537.146 243.457C538.463 244.987 539.424 246.789 539.962 248.735C540.955 252.614 541.358 256.621 541.157 260.62C541.266 263.684 540.979 266.749 540.303 269.739C540.044 270.721 539.677 271.671 539.21 272.573V272.573Z" fill="#423371"/>
<path d="M506.799 346.48C512.224 348.765 517.494 351.401 522.578 354.369C524.145 355.2 525.509 356.366 526.574 357.785C527.126 358.572 527.467 359.488 527.563 360.445C527.658 361.402 527.506 362.368 527.12 363.249C525.686 365.708 522.475 364.786 519.982 363.932C508.473 359.356 496.075 358.946 484.258 358.98C483.444 359.1 482.612 358.994 481.854 358.675C481.095 358.356 480.438 357.836 479.955 357.17C479.666 356.377 479.56 355.53 479.642 354.691C479.725 353.851 479.995 353.041 480.433 352.32C486.683 339.923 496.724 341.903 506.799 346.48Z" fill="white"/>
<path d="M730.023 442.621C727.673 448.49 724.192 453.84 719.778 458.366C715.577 463.113 711.205 467.689 706.663 472.027C695.968 482.41 684.666 492.149 672.817 501.194C664.381 507.717 655.365 514.138 644.846 516.187C640.66 517.179 636.274 516.905 632.243 515.401C628.907 513.692 625.918 511.376 623.432 508.571C620.392 505.565 585.556 465.469 584.975 465.469C583.008 466.527 581.491 468.262 580.706 470.353C575.657 480.759 572.544 491.996 571.519 503.516C571.109 508.676 571.109 513.861 571.519 519.021C572.885 536.542 579.033 554.609 572.954 571.139C571.768 574.654 569.767 577.837 567.113 580.429C564.545 582.65 561.594 584.385 558.404 585.552C552.796 587.874 546.941 589.547 540.952 590.538C537.567 591.153 534.144 591.53 530.706 591.665C517.967 592.143 505.262 589.65 492.523 590.299C481.662 590.845 470.938 593.714 460.078 593.27C458.078 593.426 456.067 593.14 454.19 592.432C452.313 591.724 450.615 590.611 449.217 589.172C447.988 587.283 447.227 585.129 446.997 582.888C442.761 559.673 440.578 536.13 440.474 512.532C440.474 501.637 438.698 461.815 435.044 454.472C434.6 453.584 434.121 453.14 433.643 453.277C421.485 456.692 395.392 463.523 383.028 465.709C381.24 466.14 379.386 466.233 377.564 465.982C375.687 465.501 373.938 464.615 372.441 463.386C357.14 452.15 348.534 435.415 343.103 417.792C342.045 414.376 341.088 410.961 340.2 407.546C339.736 406.636 339.455 405.643 339.375 404.625C339.295 403.606 339.418 402.582 339.735 401.61C340.052 400.639 340.559 399.74 341.225 398.965C341.891 398.19 342.703 397.555 343.616 397.095C343.822 396.972 344.039 396.869 344.265 396.788L367.181 382.034L384.258 403.823C387.673 408.058 391.567 412.635 396.997 413.249C404.442 414.001 410.043 407.238 414.62 401.467C429.456 382.828 448.483 367.955 470.153 358.058C473.331 356.53 476.678 355.384 480.126 354.643L480.979 354.438C481.472 354.299 481.974 354.197 482.482 354.13C486.936 353.725 491.426 353.99 495.802 354.916C524.885 359.827 553.656 366.429 581.97 374.691C585.358 375.196 588.58 376.492 591.375 378.474C594.17 380.455 596.458 383.067 598.056 386.098C606.014 398.085 613.766 410.21 621.758 422.197C628.589 432.443 635.42 445.422 645.665 452.935C667.824 443.956 688.737 432.168 707.892 417.86C710.59 415.845 714.006 413.659 717.114 414.991C718.108 415.479 719 416.151 719.743 416.972C727.086 424.315 733.712 431.487 730.023 442.621Z" fill="white"/>
<path d="M895.768 362.328C892.729 364.918 889.069 366.672 885.146 367.417C881.56 367.561 877.984 366.932 874.661 365.573L823.842 348.496C820.009 351.482 817.45 355.808 816.677 360.604C815.904 365.4 816.975 370.311 819.675 374.35C823.978 380.327 831.389 383.161 838.322 385.655L873.159 398.189C880.004 401.016 887.212 402.867 894.572 403.687C904.818 404.371 914.825 401.092 924.559 397.847C934.976 394.432 946.383 390.095 951.369 380.293C956.355 370.491 952.735 357.581 954.204 346.14C955.194 338.694 958.473 331.556 958.336 324.043C958.166 317.622 953.043 307.956 945.392 309.288C938.801 310.45 934.395 321.925 930.911 326.741C921.106 340.348 909.251 352.353 895.768 362.328V362.328Z" fill="white"/>
<path d="M817.488 345.729C816.923 344.374 816.113 343.135 815.097 342.075C814.574 341.556 813.912 341.199 813.191 341.048C812.47 340.897 811.72 340.957 811.033 341.221C810.364 341.635 809.827 342.23 809.482 342.937C809.138 343.645 809 344.435 809.086 345.217C809.158 345.753 809.037 346.298 808.744 346.753C808.521 346.918 808.26 347.023 807.985 347.058C807.711 347.094 807.431 347.06 807.173 346.958C801.402 345.831 795.561 344.978 789.687 344.397C789.2 344.329 788.706 344.329 788.218 344.397C787.261 344.732 786.469 345.422 786.005 346.325C785.541 347.227 785.441 348.273 785.725 349.247C786.366 351.179 787.324 352.991 788.56 354.609C791.531 359.493 792.658 365.948 797.44 369.124C800.353 370.805 803.728 371.511 807.071 371.139C810.486 370.968 813.731 370.353 817.078 370.49C819.306 370.973 821.63 370.721 823.703 369.773C824.471 369.191 825.083 368.428 825.482 367.552C825.882 366.675 826.057 365.713 825.992 364.752C825.647 361.731 824.556 358.844 822.816 356.35C820.971 352.867 819.195 349.315 817.488 345.729Z" fill="#FDB9A9"/>
<path d="M959.225 728.346C939.757 723.94 943.583 751.57 938.46 761.816C935.223 766.994 931.163 771.609 926.438 775.477C922.032 779.78 917.899 785.04 917.66 791.153C917.524 792.335 917.763 793.53 918.343 794.569C919.33 795.757 920.691 796.576 922.203 796.891C933.338 800.099 945.283 798.875 955.536 793.476C960.338 791.177 964.328 787.473 966.977 782.854C969.107 777.899 970.11 772.534 969.915 767.144C970.359 755.805 975.447 731.966 959.225 728.346Z" fill="#FDB9A9"/>
<path d="M942.011 785.176C942.011 785.176 886.614 787.532 910.078 804.95C933.541 822.368 968.548 800.681 971.963 796.719C975.378 792.758 972.612 785.961 972.612 785.961L942.011 785.176Z" fill="#68E1FD"/>
<path d="M969.571 792.827C964.619 798.838 938.594 806.932 927.085 806.113C915.575 805.293 905.227 799.897 906.354 792.451C907.481 785.006 927.836 767.691 931.661 767.725C935.486 767.759 938.492 776.639 946.21 778.483C949.659 779.037 953.191 778.7 956.473 777.504C959.755 776.309 962.676 774.294 964.96 771.652C965.657 770.695 966.664 770.008 967.81 769.71C968.955 769.411 970.169 769.518 971.245 770.013C973.909 773.941 974.523 786.816 969.571 792.827Z" fill="white"/>
<path d="M1025.99 739.241C1006.53 734.733 1010.35 762.329 1005.23 772.574C1002.03 777.827 997.962 782.503 993.207 786.406C988.801 790.71 984.703 795.969 984.464 802.083C984.312 803.261 984.539 804.457 985.113 805.498C986.095 806.708 987.474 807.531 989.006 807.82C1000.13 811.012 1012.06 809.789 1022.31 804.405C1027.11 802.106 1031.1 798.402 1033.75 793.783C1035.88 788.829 1036.88 783.463 1036.68 778.073C1037.13 766.563 1042.22 742.656 1025.99 739.241Z" fill="#FDB9A9"/>
<path d="M1008.78 795.832C1008.78 795.832 953.384 798.154 976.847 815.572C1000.31 832.991 1035.35 811.372 1038.73 807.376C1042.11 803.38 1039.38 796.583 1039.38 796.583L1008.78 795.832Z" fill="#68E1FD"/>
<path d="M1036.34 803.346C1031.39 809.425 1005.37 817.485 993.858 816.665C982.349 815.846 972 810.484 973.127 803.004C974.254 795.525 994.61 778.209 998.435 778.243C1002.26 778.277 1005.27 787.157 1012.98 788.967C1016.43 789.521 1019.96 789.184 1023.25 787.989C1026.53 786.793 1029.45 784.779 1031.73 782.137C1032.43 781.179 1033.44 780.493 1034.58 780.194C1035.73 779.895 1036.94 780.002 1038.02 780.497C1040.68 784.561 1041.3 797.301 1036.34 803.346Z" fill="white"/>
<path d="M975.824 488.011L1001.85 761.884L1039.42 757.239C1054.24 690.436 1050.62 490.47 1050.62 490.47L975.824 488.011Z" fill="#694D69"/>
<path d="M1001.85 480.6L975.825 754.473L938.256 749.828C916.808 576.536 934.465 468.646 934.465 468.646L1001.85 480.6Z" fill="#694D69"/>
<path d="M937.742 381.556C937.298 376.535 935.966 371.549 935.42 366.426C934.195 356.088 934.391 345.632 936.001 335.347C937.766 324.397 941.065 313.75 945.802 303.721C950.14 295.046 957.961 291.358 966.738 287.02C974.095 283.03 982.074 280.316 990.338 278.994C996.182 278.457 1002.07 278.779 1007.82 279.951C1025.48 283.366 1048.81 292.451 1060.86 306.385C1069.95 316.87 1071.11 331.863 1071.31 345.729C1071.7 364.878 1071.3 384.004 1070.12 403.106C1070.12 405.873 1069.78 408.639 1069.57 411.406C1067.93 432.376 1066.16 454.131 1060.25 474.384C1058.37 480.736 1056.39 487.123 1050.52 490.538C1036.85 498.598 1015.51 494.159 1000.58 492.075C980.741 489.241 960.386 486.303 942.797 476.706C939.142 475.095 936.177 472.239 934.43 468.646C932.893 464.343 934.771 459.664 936.103 455.292C942.046 435.723 937.435 415.162 937.435 395.183C937.435 391.563 937.913 387.874 937.913 384.254C937.879 383.366 937.742 382.444 937.742 381.556Z" fill="white"/>
<path opacity="0.1" d="M993.205 473.495C993.071 471.399 993.583 469.313 994.674 467.518C996.928 464.752 1001.23 465.333 1004.68 466.186L1026.98 471.719C1035.42 473.802 1048.36 481.965 1050.55 490.469C1059.12 484.458 1061.34 474.349 1062.95 464.001C1064.55 453.652 1064.62 433.468 1066.36 423.017C1055.46 430.864 1042.46 435.287 1029.03 435.722C1016.36 436.063 1000.45 435.722 995.835 422.061C990.541 406.077 988.697 389.308 985.179 372.914C985.189 372.535 985.111 372.159 984.953 371.815C984.796 371.47 984.561 371.166 984.268 370.926C983.975 370.685 983.631 370.515 983.262 370.428C982.893 370.34 982.51 370.338 982.14 370.421L933.984 370.933C933.233 370.898 932.485 371.038 931.798 371.343C930.398 372.197 930.398 374.212 930.637 375.817C932.428 386.7 937.887 396.642 946.108 403.994C950.036 407.409 952.597 409.663 953.349 414.752C954.271 420.763 954.032 427.149 954.647 433.263C955.7 446.11 958.515 458.751 963.014 470.831C969.913 488.01 991.908 501.432 993.205 473.495Z" fill="#020202"/>
<path d="M980.056 487.396H908.369L899.455 375.92H971.177L980.056 487.396Z" fill="#6D4ADE"/>
<path d="M975.891 251.501C975.929 246.238 976.26 240.982 976.882 235.756C977.36 231.214 978.077 226.637 978.965 222.095C979.011 220.778 979.34 219.486 979.929 218.308C980.519 217.129 981.355 216.091 982.381 215.264C989.414 210.924 997.546 208.695 1005.81 208.843C1010.75 208.067 1015.79 209.282 1019.83 212.221C1023.87 215.161 1026.58 219.584 1027.36 224.52C1027.52 225.49 1027.6 226.473 1027.6 227.457C1028.83 238.966 1025.86 250.442 1024.18 261.883C1022.88 270.745 1022.41 279.71 1022.78 288.659C1018.45 291.537 1013.48 293.297 1008.3 293.782C1005.88 293.779 1003.48 293.375 1001.2 292.587C1000.56 292.467 999.947 292.222 999.401 291.864C998.856 291.506 998.388 291.044 998.023 290.503C997.671 289.554 997.588 288.526 997.784 287.532C997.914 286.604 997.994 285.669 998.023 284.731C998.398 279.496 998.295 274.238 997.715 269.021C997.731 268.802 997.7 268.581 997.623 268.375C997.546 268.169 997.427 267.982 997.271 267.826C996.914 267.723 996.535 267.723 996.178 267.826H994.71C992.107 268.031 989.492 268.031 986.889 267.826C983.771 267.485 980.877 266.044 978.726 263.762C976.255 260.184 975.241 255.799 975.891 251.501V251.501Z" fill="#FDB9A9"/>
<path d="M986.515 217.757C984.7 218.509 982.661 218.509 980.846 217.757C978.941 216.739 977.365 215.199 976.303 213.317C974.171 210.11 973.391 206.19 974.133 202.41C974.875 198.631 977.079 195.297 980.265 193.133C982.719 191.404 985.494 190.182 988.425 189.537C991.357 188.892 994.388 188.837 997.342 189.376C998.896 188.386 1000.64 187.734 1002.46 187.464C1009.51 185.318 1016.96 184.862 1024.22 186.132C1028.34 187.328 1032.2 189.26 1035.63 191.835C1038.95 194.028 1041.77 196.89 1043.93 200.237C1046 204.529 1047.31 209.153 1047.79 213.898C1048.9 218.971 1049.5 224.142 1049.6 229.335C1049.59 231.603 1049.16 233.849 1048.33 235.961C1047.3 238.295 1045.83 240.406 1043.99 242.177C1041.3 244.882 1038.23 247.183 1034.88 249.007C1032.55 250.305 1029.86 251.637 1029.07 254.199C1028.84 255.391 1028.72 256.604 1028.73 257.819C1028.59 259.605 1027.87 261.298 1026.68 262.634C1025.86 263.522 1024.46 265.674 1023.26 266.05C1022.07 266.425 1021.04 264.923 1020.7 263.693C1019.24 258.516 1019.6 252.993 1021.73 248.051C1023.23 245.642 1024.11 242.895 1024.29 240.059C1024.02 237.293 1020.22 235.073 1018.41 236.644C1016.6 238.215 1016.26 242.313 1014.01 241.528C1016.57 233.536 1013.26 223.495 1005.57 220.353C1001.47 219.114 997.191 218.515 992.902 218.577C990.855 218.162 988.774 217.934 986.686 217.894L986.515 217.757Z" fill="#532E0D"/>
<path d="M994.779 267.621C1000.85 266.473 1006.79 264.711 1012.5 262.362C1013.02 280.839 997.99 284.664 997.99 284.664C998.365 279.429 998.262 274.17 997.682 268.953C997.698 268.512 997.538 268.082 997.238 267.758C996.881 267.656 996.503 267.656 996.146 267.758H994.779V267.621Z" fill="#DE9F93"/>
<path d="M1083.58 372.061L1092.11 409.425C1093 412.532 1093.38 415.76 1093.24 418.988C1092.63 425.033 1088.49 430.019 1084.53 434.595C1079.66 441.053 1073.54 446.465 1066.53 450.511C1061.68 452.657 1056.51 454.04 1051.23 454.609C1037.28 456.724 1023.16 457.514 1009.05 456.966C1007.94 456.992 1006.83 456.77 1005.81 456.317C1004.79 455.663 1003.95 454.772 1003.35 453.721C998.415 446.27 994.174 438.382 990.68 430.156C1001.98 422.546 1014.39 416.728 1027.46 412.908C1030.1 412.417 1032.56 411.239 1034.6 409.493C1035.93 407.83 1036.81 405.855 1037.16 403.755C1042.73 379.848 1029.89 353.209 1040.17 330.907C1046.01 318.202 1058.47 304.575 1067.49 321.549C1075.99 337.02 1079.68 355.053 1083.58 372.061Z" fill="white"/>
<path d="M980.878 430.429C979.338 429.27 977.705 428.242 975.994 427.355C975.127 426.922 974.165 426.716 973.196 426.758C972.228 426.8 971.287 427.088 970.461 427.594C969.71 428.141 969.129 429.029 968.207 429.336C967.6 429.473 966.97 429.473 966.363 429.336L954.956 428.175C954.054 427.952 953.113 427.94 952.206 428.142C951.3 428.343 950.452 428.752 949.73 429.336C948.262 431.01 949.15 433.639 950.14 435.654C953.067 441.595 956.328 447.365 959.908 452.936C960.559 454.075 961.376 455.112 962.333 456.01C963.646 457 965.162 457.688 966.773 458.025C972.651 459.385 978.789 459.125 984.532 457.273C990.236 455.403 995.557 452.522 1000.24 448.769C1000.91 448.274 1001.5 447.674 1001.98 446.993C1002.46 446.154 1002.74 445.221 1002.8 444.261C1003.35 439.855 1001.95 432.751 996.212 433.059C990.951 433.986 985.53 433.056 980.878 430.429V430.429Z" fill="#FDB9A9"/>
<path d="M261.273 741.461C261.509 741.082 261.854 740.784 262.264 740.607C263.22 740.299 264.108 741.153 264.757 741.905C270.665 748.735 279.511 752.151 287.981 755.224C288.493 755.395 289.142 755.566 289.552 755.224C289.962 754.883 289.962 754.507 290.133 754.166C290.446 753.742 290.895 753.439 291.405 753.309C291.916 753.178 292.455 753.227 292.933 753.448C293.863 753.946 294.705 754.592 295.426 755.361C298.842 758.503 303.726 759.767 307.482 762.567C308.482 763.184 309.241 764.124 309.634 765.231C309.763 765.841 309.736 766.473 309.557 767.069C309.378 767.666 309.052 768.208 308.609 768.646C307.677 769.57 306.486 770.19 305.194 770.422C302.846 770.906 300.434 770.998 298.056 770.696C286.239 769.808 274.468 768.555 262.742 766.939C261.827 766.874 260.933 766.631 260.112 766.222C259.208 765.493 258.505 764.546 258.069 763.471C257.633 762.395 257.478 761.226 257.619 760.074C257.75 757.024 258.104 753.988 258.678 750.989C258.605 747.629 259.507 744.32 261.273 741.461V741.461Z" fill="#262836"/>
<path d="M227.87 762.669C229.225 763.457 230.722 763.967 232.276 764.172C234.958 764.836 237.748 764.941 240.472 764.48C241.828 764.227 243.083 763.591 244.088 762.646C245.093 761.702 245.806 760.489 246.142 759.152C246.142 758.332 246.757 757.171 247.474 757.546C247.634 757.661 247.763 757.814 247.849 757.99C249.736 761.647 250.742 765.693 250.787 769.807C251.169 772.004 250.981 774.262 250.24 776.365C249.641 777.523 248.785 778.528 247.737 779.303C246.689 780.079 245.477 780.604 244.195 780.839C241.656 781.317 239.05 781.317 236.511 780.839C234.325 780.497 232.173 780.087 230.056 779.541C229.11 779.408 228.216 779.032 227.46 778.448C226.822 777.838 226.331 777.09 226.026 776.262C224.282 772.197 223.634 767.746 224.147 763.352C224.24 762.42 224.4 761.496 224.625 760.586C224.625 760.176 224.899 758.366 225.479 758.571C226.06 758.776 225.923 759.015 225.923 759.425C225.934 759.856 226.014 760.283 226.162 760.689C226.527 761.501 227.12 762.189 227.87 762.669Z" fill="#262836"/>
<path d="M604.372 178.208C603.801 175.654 604.228 172.978 605.568 170.729C606.682 169.433 608.137 168.474 609.768 167.963C611.468 167.32 613.231 166.862 615.028 166.596C615.923 166.517 616.793 166.262 617.59 165.845C618.234 165.298 618.787 164.653 619.229 163.932C620.555 162.468 622.208 161.336 624.054 160.63C625.899 159.924 627.885 159.663 629.85 159.868C633.778 159.868 637.637 161.029 641.565 161.2C645.493 161.371 650.24 160.654 653.792 162.84C656.508 164.872 658.37 167.843 659.017 171.173C660.396 170.978 661.797 171.307 662.945 172.095C665.096 174.076 662.945 178.106 664.823 180.463C665.711 181.59 667.282 182.068 668.239 183.263C668.85 184.403 669.032 185.724 668.751 186.986C668.66 188.376 668.466 189.757 668.17 191.118C667.214 194.875 664.755 197.949 663.594 201.74C663.013 203.721 662.876 205.804 662.398 207.785C661.062 212.173 658.92 216.273 656.08 219.875C658.053 210.894 658.274 201.617 656.729 192.553C656.759 192.135 656.661 191.718 656.448 191.358C656.234 190.997 655.915 190.711 655.534 190.538C654.988 190.408 654.413 190.494 653.928 190.777C644.836 194.369 634.793 194.767 625.445 191.904C622.788 190.722 619.869 190.251 616.975 190.538C615.81 190.886 614.67 191.308 613.559 191.801C612.393 192.245 611.105 192.245 609.939 191.801C609.699 192.303 609.571 192.851 609.564 193.407C607.344 192.894 607.48 189.684 606.865 187.908C605.727 184.762 604.893 181.514 604.372 178.208V178.208Z" fill="#423371"/>
<path d="M663.355 210.756C663.588 211.106 663.739 211.502 663.799 211.917C664.27 214.264 663.843 216.701 662.604 218.748C661.4 220.82 659.604 222.485 657.447 223.529C656.889 223.854 656.266 224.052 655.623 224.111C654.98 224.17 654.332 224.088 653.724 223.871C653.131 223.465 652.64 222.926 652.291 222.298C651.941 221.67 651.742 220.969 651.709 220.251C651.384 218.795 651.381 217.286 651.699 215.829C652.018 214.372 652.651 213.002 653.554 211.815C654.329 211.033 655.256 210.418 656.278 210.007C657.3 209.596 658.395 209.397 659.496 209.424C660.198 209.352 660.906 209.434 661.573 209.664C662.239 209.894 662.848 210.267 663.355 210.756V210.756Z" fill="#FDB9A9"/>
<path d="M629.408 243.201C629.579 244.601 628.486 245.831 628.349 247.231C628.213 248.631 628.349 250.305 628.349 251.842C628.279 253.783 627.637 255.66 626.505 257.238C625.148 258.608 623.431 259.567 621.553 260.004C617.708 261.443 613.636 262.183 609.531 262.19C607.833 262.094 606.144 261.877 604.476 261.541C601.778 261.097 594.777 261.336 594.23 257.648C594.397 255.625 594.953 253.653 595.87 251.842C596.177 250.851 596.45 249.861 596.724 248.871C596.997 247.88 597.373 246.411 597.646 245.182C598.944 239.308 599.832 232.75 604.476 228.754C605.638 227.696 607.584 226.944 608.643 228.105C609.702 229.267 609.326 230.94 610.556 231.248C610.987 231.283 611.421 231.213 611.819 231.043C616.387 228.966 621.394 228.04 626.403 228.345C627.342 228.395 628.254 228.681 629.054 229.176C629.854 229.671 630.516 230.36 630.979 231.179C632.311 234.595 627.94 238.01 628.998 241.425C629.203 241.999 629.341 242.595 629.408 243.201V243.201Z" fill="#FDB9A9"/>
<path d="M619.3 374.486C618.386 373.566 617.379 372.742 616.295 372.027C616.978 384.698 619.061 397.95 626.814 407.991C628.834 410.291 630.716 412.708 632.449 415.231C635.865 420.969 636.138 428.414 640.509 433.469C644.349 437.152 649.246 439.54 654.512 440.299C659.103 441.9 664.13 441.704 668.583 439.753C672.125 437.096 674.742 433.392 676.063 429.165C679.034 422.096 684.499 411.884 679.99 404.234C676.78 398.803 666.671 394.5 660.523 394.5C652.082 392.354 643.834 389.509 635.865 385.996C631.879 384.627 628.142 382.62 624.799 380.053C622.818 378.38 621.179 376.296 619.3 374.486Z" fill="white"/>
<path opacity="0.1" d="M438.221 426.808C435.832 434.541 434.804 442.63 435.181 450.715C435.193 451.944 435.067 453.169 434.805 454.37C434.361 453.482 433.883 453.038 433.405 453.174C421.246 456.59 395.154 463.42 382.79 465.606C381.002 466.038 379.148 466.13 377.326 465.879C375.449 465.399 373.7 464.513 372.203 463.284C356.902 452.047 348.296 435.312 342.865 417.689C343.248 414.638 343.923 411.63 344.88 408.707C352.155 412.635 355.946 420.695 360.488 427.628C364.865 434.369 370.256 440.394 376.472 445.49C377.707 446.633 379.175 447.496 380.775 448.017C382.669 448.382 384.622 448.3 386.479 447.778C405.058 444.26 424.73 440.025 438.221 426.808Z" fill="#020202"/>
<path opacity="0.1" d="M706.663 472.095C695.967 482.478 684.666 492.217 672.817 501.262C664.381 507.785 655.365 514.206 644.846 516.255C640.66 517.247 636.273 516.973 632.243 515.469C628.906 513.76 625.918 511.444 623.432 508.639C620.392 505.633 585.556 465.537 584.975 465.537C583.008 466.595 581.491 468.33 580.706 470.421C575.657 480.827 572.544 492.064 571.519 503.584C571.109 508.744 571.109 513.929 571.519 519.089C572.885 536.61 579.033 554.677 572.953 571.207C571.768 574.722 569.767 577.905 567.113 580.497C564.533 582.685 561.584 584.396 558.404 585.551C551.54 588.278 544.527 590.615 537.4 592.553C533.945 593.586 530.299 593.808 526.744 593.202C524.695 592.792 519.538 589.137 518.104 589.308C523.317 588.556 528.218 586.365 532.254 582.98C536.291 579.595 539.303 575.151 540.952 570.148C543.377 562.259 542.181 553.789 542.216 545.524C542.515 535.936 543.658 526.393 545.631 517.006L552.94 477.013C555.399 463.352 560.385 443.953 574.593 437.805C577.427 436.576 580.535 438.591 582.994 440.503C599.456 453.413 616.225 466.63 628.042 483.946C631.458 488.761 634.565 494.192 639.962 496.378C645.358 498.563 652.428 496.617 658.268 494.26C666.979 490.744 675.455 486.671 683.643 482.067C689.791 478.652 697.919 470.899 705.57 471.822C705.942 471.876 706.308 471.968 706.663 472.095V472.095Z" fill="#020202"/>
</g>
</g>
<defs>
<linearGradient id="paint0_linear_11_1149" x1="624.807" y1="1487.51" x2="624.807" y2="624.147" gradientUnits="userSpaceOnUse">
<stop stop-color="#B0B0B0" stop-opacity="0"/>
<stop offset="1" stop-color="#9D68D0"/>
</linearGradient>
<linearGradient id="paint1_linear_11_1149" x1="675.502" y1="1" x2="675.502" y2="1005" gradientUnits="userSpaceOnUse">
<stop stop-color="#935DCA"/>
<stop offset="0.9998" stop-color="#B883D0"/>
<stop offset="0.9999" stop-color="#C083D0"/>
<stop offset="1" stop-color="#C184D0"/>
<stop offset="1" stop-color="#6B3CB8"/>
</linearGradient>
<linearGradient id="paint2_linear_11_1149" x1="509.505" y1="692.536" x2="509.505" y2="997.77" gradientUnits="userSpaceOnUse">
<stop offset="0.01"/>
<stop offset="0.08" stop-opacity="0.69"/>
<stop offset="0.21" stop-opacity="0.32"/>
<stop offset="1" stop-opacity="0"/>
</linearGradient>
<linearGradient id="paint3_linear_11_1149" x1="955.136" y1="670.44" x2="992.062" y2="940.17" gradientUnits="userSpaceOnUse">
<stop offset="0.01"/>
<stop offset="0.08" stop-opacity="0.69"/>
<stop offset="0.21" stop-opacity="0.32"/>
<stop offset="1" stop-opacity="0"/>
</linearGradient>
<linearGradient id="paint4_linear_11_1149" x1="226.58" y1="640.263" x2="261.922" y2="904.753" gradientUnits="userSpaceOnUse">
<stop offset="0.01"/>
<stop offset="0.08" stop-opacity="0.69"/>
<stop offset="0.21" stop-opacity="0.32"/>
<stop offset="1" stop-opacity="0"/>
</linearGradient>
<linearGradient id="paint5_linear_11_1149" x1="606.327" y1="447.304" x2="559.502" y2="1027.39" gradientUnits="userSpaceOnUse">
<stop offset="0.01"/>
<stop offset="0.08" stop-opacity="0.69"/>
<stop offset="0.21" stop-opacity="0.32"/>
<stop offset="1" stop-opacity="0"/>
</linearGradient>
<linearGradient id="paint6_linear_11_1149" x1="147.953" y1="532.546" x2="322.953" y2="520.046" gradientUnits="userSpaceOnUse">
<stop offset="0.01"/>
<stop offset="0.08" stop-opacity="0.69"/>
<stop offset="0.21" stop-opacity="0.32"/>
<stop offset="1" stop-opacity="0"/>
</linearGradient>
<linearGradient id="paint7_linear_11_1149" x1="262.782" y1="434.834" x2="262.782" y2="611.498" gradientUnits="userSpaceOnUse">
<stop stop-color="#563CB3"/>
<stop offset="1" stop-color="#BE6AD1"/>
</linearGradient>
<linearGradient id="paint8_linear_11_1149" x1="380.982" y1="534.289" x2="707.929" y2="992.042" gradientUnits="userSpaceOnUse">
<stop offset="0.01"/>
<stop offset="0.08" stop-opacity="0.69"/>
<stop offset="0.21" stop-opacity="0.32"/>
<stop offset="1" stop-opacity="0"/>
</linearGradient>
<clipPath id="clip0_11_1149">
<rect width="1348" height="1473" fill="white"/>
</clipPath>
<clipPath id="clip1_11_1149">
<rect width="1573.59" height="1362" fill="white" transform="translate(-104 -228)"/>
</clipPath>
</defs>
</svg>
