<?xml version="1.0" encoding="utf-8"?>
<!-- Generator: Adobe Illustrator 22.1.0, SVG Export Plug-In . SVG Version: 6.00 Build 0)  -->
<svg version="1.1" id="Layer_1" xmlns:v="https://vecta.io/nano"
	 xmlns="http://www.w3.org/2000/svg" xmlns:xlink="http://www.w3.org/1999/xlink" x="0px" y="0px" viewBox="0 0 1348 1290.6"
	 style="enable-background:new 0 0 1348 1290.6;" xml:space="preserve">
<style type="text/css">
	.st0{clip-path:url(#SVGID_2_);}
	.st1{fill:url(#SVGID_3_);fill-opacity:0.8;}
	.st2{clip-path:url(#SVGID_5_);}
	.st3{fill:url(#SVGID_6_);}
	.st4{opacity:0.3;fill:url(#SVGID_7_);enable-background:new    ;}
	.st5{opacity:0.3;fill:url(#SVGID_8_);enable-background:new    ;}
	.st6{opacity:0.3;fill:url(#SVGID_9_);enable-background:new    ;}
	.st7{opacity:0.3;fill:url(#SVGID_10_);enable-background:new    ;}
	.st8{fill:#FDB9A9;}
	.st9{fill:#68E1FD;}
	.st10{fill:#FFFFFF;}
	.st11{fill:#694D69;}
	.st12{opacity:0.1;fill:#020202;enable-background:new    ;}
	.st13{fill:#423371;}
	.st14{fill:#EFAC88;}
	.st15{fill:#AD684D;}
	.st16{fill:#6844B9;}
	.st17{fill:url(#L_3_);}
	.st18{fill:url(#L_5_);fill-opacity:0.2;}
	.st19{fill:#FDC099;}
	.st20{fill:#8A3C1F;}
	.st21{fill:#6D4ADE;}
	.st22{fill:#A67C52;}
	.st23{fill:#262836;}
	.st24{fill:#BA68D0;}
	.st25{fill:url(#M_2_);}
	.st26{fill:#532E0D;}
	.st27{fill:#DE9F93;}
</style>
<g>
	<defs>
		<rect id="SVGID_1_" width="1348" height="1473"/>
	</defs>
	<clipPath id="SVGID_2_">
		<use xlink:href="#SVGID_1_"  style="overflow:visible;"/>
	</clipPath>
	<g class="st0">
		
			<linearGradient id="SVGID_3_" gradientUnits="userSpaceOnUse" x1="674" y1="172.0793" x2="674" y2="847.9302" gradientTransform="matrix(1 0 0 -1 0 1474)">
			<stop  offset="0" style="stop-color:#B0B0B0;stop-opacity:0"/>
			<stop  offset="1" style="stop-color:#9D68D0"/>
		</linearGradient>
		<path class="st1" d="M1347,633v657.6H1V724.4l0.5,4.7c7.7,59.1,65.3,108,131.3,136.7c105.7,45.5,232.9,48.6,352.3,36
			c38.8-4.1,77.9-9.7,117.1-8.9c51.8,1,102,13.2,152.8,21.1c97.3,15.2,199.6,14.5,294.3-8.9s181.1-70.4,234.9-135.9
			c26.2-32.4,44.9-68.2,55.2-105.7c2.9-10,5.2-20.2,6.8-30.5L1347,633z"/>
		<g>
			<defs>
				<rect id="SVGID_4_" x="-104" y="-228" width="1573.6" height="1362"/>
			</defs>
			<clipPath id="SVGID_5_">
				<use xlink:href="#SVGID_4_"  style="overflow:visible;"/>
			</clipPath>
			<g class="st2">
				
					<linearGradient id="SVGID_6_" gradientUnits="userSpaceOnUse" x1="673.9988" y1="1473.0004" x2="673.9988" y2="469.0026" gradientTransform="matrix(1 0 0 -1 0 1474)">
					<stop  offset="0" style="stop-color:#935DCA;stop-opacity:0.85"/>
					<stop  offset="1" style="stop-color:#B883D0"/>
					<stop  offset="1" style="stop-color:#C083D0"/>
					<stop  offset="1" style="stop-color:#C184D0"/>
					<stop  offset="1" style="stop-color:#6B3CB8;stop-opacity:0.8"/>
				</linearGradient>
				<path class="st3" d="M823.1,38.1c56.6,29.4,103.5,73.8,147.5,120.7c59.5,63.5,135.4,108,204.7,159.4
					c78.6,58.3,148.8,97.3,166.5,193.8c7.5,41,9.1,119.4,0,160.1c-10.4,47.9-29.1,93.6-55.4,135c-53.9,83.6-140.5,143.7-235.4,173.5
					c-95,29.8-197.4,30.7-294.9,11.3c-50.9-10.1-101.3-25.6-153.2-26.9c-39.3-1-78.5,6.1-117.3,11.3c-119.7,16-247.2,12.1-353.1-46
					C66.4,893.7,8.6,831.2,0.9,755.8C-7.9,669.4,47.8,595,104.1,536.1c46-47.9,86.1-101.1,119.4-158.5
					c14.7-25.2,29.9-45.1,38.9-73.7c8.7-27.3,14-55.6,24.2-82.5c11.7-30.6,29.6-58.4,52.6-81.6c37.3-37.6,86-61.5,133.7-84.6
					c28-13.7,56-27.1,85.5-36.8c68.1-22.2,141.3-23.1,209.9-2.5C787.3,21.5,805.6,29,823.1,38.1L823.1,38.1z"/>
				
					<linearGradient id="SVGID_7_" gradientUnits="userSpaceOnUse" x1="509.5002" y1="781.464" x2="509.5002" y2="476.23" gradientTransform="matrix(1 0 0 -1 0 1474)">
					<stop  offset="1.000000e-02" style="stop-color:#000000"/>
					<stop  offset="8.000000e-02" style="stop-color:#000000;stop-opacity:0.69"/>
					<stop  offset="0.21" style="stop-color:#000000;stop-opacity:0.32"/>
					<stop  offset="1" style="stop-color:#000000;stop-opacity:0"/>
				</linearGradient>
				<path class="st4" d="M684.5,862.7c4.8,1.3,9.3,3.8,13.1,7.3c9.9,10.3,5.1,30-5.9,38.9s-25.5,10.3-39.1,11.6
					c-45.3,4.2-90.4,11.2-135.1,20.8c-43.5,9.4-87.5,21.2-132.1,19.5c-15.7-0.6-54.3-1.4-65.6-15.4c-14.6-17.9,16.5-38.7,29.5-48.5
					c53.3-40.5,115.9-31.3,177.5-41.5C579.1,846.8,633.6,844.7,684.5,862.7L684.5,862.7z"/>
				
					<linearGradient id="SVGID_8_" gradientUnits="userSpaceOnUse" x1="951.4584" y1="803.0565" x2="988.3845" y2="533.3265" gradientTransform="matrix(1 0 0 -1 0 1474)">
					<stop  offset="1.000000e-02" style="stop-color:#000000"/>
					<stop  offset="8.000000e-02" style="stop-color:#000000;stop-opacity:0.69"/>
					<stop  offset="0.21" style="stop-color:#000000;stop-opacity:0.32"/>
					<stop  offset="1" style="stop-color:#000000;stop-opacity:0"/>
				</linearGradient>
				<path class="st5" d="M906.5,764.5c-7.2,2.5-14.6,6.5-18.5,13.8c-1.9,4.3-3.4,8.7-4.5,13.3c-2.6,8-6.7,15.3-12.1,21.4
					s-12,10.7-19.2,13.6c-4.1,1.6-8.8,2.9-11.3,7c-1.2,2.2-1.9,4.7-1.8,7.3s0.8,5.1,2.1,7.2c2.7,4.1,6.4,7.4,10.7,9.3
					c15.3,7.9,33,7.9,49.6,4.3s32.3-10.5,48.4-16.3c20.8-7.3,42.1-12.4,63.8-15.2c17.1-2.2,34.5-3,51-8.8
					c16.6-5.9,32.2-17.7,38.5-35.6c-20.5-23.4-53.3-26.2-82.4-23.7C983.2,765.3,943.1,751.9,906.5,764.5L906.5,764.5z"/>
				
					<linearGradient id="SVGID_9_" gradientUnits="userSpaceOnUse" x1="223.7861" y1="833.3636" x2="259.1281" y2="568.8737" gradientTransform="matrix(1 0 0 -1 0 1474)">
					<stop  offset="1.000000e-02" style="stop-color:#000000"/>
					<stop  offset="8.000000e-02" style="stop-color:#000000;stop-opacity:0.69"/>
					<stop  offset="0.21" style="stop-color:#000000;stop-opacity:0.32"/>
					<stop  offset="1" style="stop-color:#000000;stop-opacity:0"/>
				</linearGradient>
				<path class="st6" d="M177.8,732.5c-7.3,2.5-14.7,6.4-18.6,13.5c-1.9,4.2-3.5,8.6-4.6,13.1c-2.6,7.9-6.7,15.1-12.2,21
					s-12,10.5-19.3,13.3c-4.1,1.6-8.8,2.9-11.4,6.8c-1.2,2.2-1.8,4.6-1.8,7.1c0.1,2.5,0.8,4.9,2.1,7c2.7,4.1,6.4,7.3,10.7,9.1
					c15.3,7.8,33.2,7.8,49.8,4.2s32.4-10.2,48.6-15.9c20.9-7.1,42.3-12.1,64-14.8c17.2-2.2,34.6-2.9,51.2-8.6s32.3-17.4,38.6-34.9
					c-20.6-22.9-53.5-25.7-82.7-23.2C254.8,733.2,214.4,719.9,177.8,732.5L177.8,732.5z"/>
				
					<linearGradient id="SVGID_10_" gradientUnits="userSpaceOnUse" x1="609.8555" y1="1026.4113" x2="563.0305" y2="446.3251" gradientTransform="matrix(1 0 0 -1 0 1474)">
					<stop  offset="1.000000e-02" style="stop-color:#000000"/>
					<stop  offset="8.000000e-02" style="stop-color:#000000;stop-opacity:0.69"/>
					<stop  offset="0.21" style="stop-color:#000000;stop-opacity:0.32"/>
					<stop  offset="1" style="stop-color:#000000;stop-opacity:0"/>
				</linearGradient>
				<path class="st7" d="M481.5,686.5c-19.2,3.8-38.8,7.9-55.4,19.1c-5.7,3.8-11.2,9.2-12,16.4c-0.9,8,4.6,15.4,11.3,18.8
					c6.9,2.8,14.3,4,21.7,3.4l86.3,0.6l63.9,0.4c7.7,0,16.6-1.2,24.2,0c13.9,2.5,26,9.9,40.8,10.7c19.1,1,38.2-2.9,56.9-6.8
					c11.7-2.5,23.7-5.1,33.9-11.8c4.1-2.7,8.2-6.8,7.9-12.1c-0.4-3.2-1.9-6.1-4.1-8.2c-14.5-16.4-38.4-15-58.8-20.1
					c-21.7-5.4-41.2-19-63.2-23c-10.1-1.4-20.3-1.8-30.4-1.2c-18.1,0.5-36.4-2.2-54.3,0.9L481.5,686.5L481.5,686.5z"/>
				<path class="st8" d="M587.7,654.1c-17.5-4-14.1,20.9-18.7,30.1c-2.9,4.7-6.5,8.9-10.8,12.4c-4.3,3.5-7.1,8.6-7.9,14.1
					c-0.1,1,0.1,2.1,0.6,3c0.8,1.1,2.1,1.8,3.4,2.1c10,2.9,20.7,1.8,29.9-3c4.3-2.1,7.9-5.4,10.2-9.5c1.9-4.4,2.8-9.3,2.6-14.1
					C597.7,678.7,602.3,657.3,587.7,654.1L587.7,654.1z"/>
				<path class="st9" d="M572.1,705.1c0,0-49.8,2.1-28.7,17.8s52.6-3.8,55.7-7.5s0.6-9.7,0.6-9.7L572.1,705.1L572.1,705.1z"/>
				<path class="st10" d="M597,711.9c-4.4,5.4-27.8,12.7-38.1,11.9s-19.6-5.6-18.6-12.3s19.3-22.2,22.7-22.2s6.1,8,13.1,9.6
					c3.1,0.5,6.2,0.2,9.2-0.8c2.9-1.1,5.6-2.8,7.6-5.2c0.6-0.9,1.5-1.5,2.6-1.8s2.1-0.2,3.1,0.3c1.4,3.3,2,6.8,1.8,10.4
					C600,705.5,598.8,708.9,597,711.9L597,711.9L597,711.9z"/>
				<path class="st8" d="M647.6,663.9c-17.5-4.1-14.1,20.7-18.7,29.9c-2.9,4.7-6.5,8.9-10.8,12.4c-4.3,3.6-7.1,8.6-7.9,14.1
					c-0.1,1,0.1,2.1,0.6,3c0.8,1.1,2.1,1.8,3.4,2.1c10,2.9,20.7,1.8,29.9-3c4.3-2.1,7.9-5.4,10.2-9.5c1.9-4.4,2.8-9.3,2.6-14.1
					C657.7,688.3,662.2,667,647.6,663.9L647.6,663.9z"/>
				<path class="st9" d="M632.2,714.7c0,0-49.8,2.1-28.7,17.8s52.6-3.8,55.6-7.4s0.6-9.7,0.6-9.7L632.2,714.7z"/>
				<path class="st10" d="M656.9,721.4c-4.4,5.4-27.8,12.7-38.1,12s-19.6-5.6-18.6-12.3s19.3-22.3,22.7-22.2s6.2,8,13.1,9.6
					c3.1,0.5,6.3,0.2,9.2-0.8c2.9-1.1,5.6-2.8,7.6-5.2c0.6-0.9,1.5-1.5,2.6-1.7c1-0.3,2.1-0.2,3.1,0.3c1.4,3.3,2,6.8,1.8,10.4
					C659.9,715,658.8,718.4,656.9,721.4L656.9,721.4L656.9,721.4z"/>
				<g>
					<path class="st11" d="M602.6,438.2L626,684.1l33.7-4.2c13.3-60,10-239.6,10-239.6L602.6,438.2z"/>
					<path class="st11" d="M626,431.5l-23.4,245.9l-33.9-4.1c-19.3-155.7-3.4-252.7-3.4-252.7L626,431.5L626,431.5z"/>
				</g>
				<path class="st10" d="M568.4,342.6c-0.4-4.5-1.6-9-2.1-13.7c-1.1-9.3-0.9-18.7,0.5-27.9c1.6-9.8,4.6-19.4,8.8-28.4
					c3.9-7.8,10.9-11.1,18.8-15c6.6-3.6,13.8-6,21.2-7.2c5.3-0.5,10.5-0.2,15.7,0.9c15.9,3,36.8,11.2,47.8,23.9
					c8.2,9.4,9.1,22.9,9.4,35.3c0.3,17.2,0,34.3-1.1,51.5c0,2.5-0.3,5-0.5,7.5c-1.5,18.8-3,38.4-8.4,56.6
					c-1.7,5.7-3.4,11.4-8.7,14.5c-12.4,7.2-31.5,3.4-44.9,1.4c-17.8-2.5-36.1-5.2-51.9-13.7c-3.3-1.4-6-4-7.5-7.2
					c-1.4-3.9,0.3-8.1,1.5-12c5.3-17.6,1.2-36.1,1.2-54c0-3.2,0.4-6.6,0.4-9.8C568.7,344.2,568.4,343.4,568.4,342.6z"/>
				<path class="st12" d="M611.6,273.1c1.8-3.4,3.9-6.5,6.3-9.5c0.3-0.4,0.7-0.7,1.2-0.9c0.4-0.1,0.8-0.1,1.3,0l15.2,2.4
					c0.7,0,1.4,0.3,2,0.7c0.5,0.4,0.8,1,1,1.6c0.9,3.7,0.4,7.6-1.4,10.9c-4.4,8.5-9.7,16.6-15.7,24.1c-3.4,4.6-6.3,9.6-8.7,14.8
					c-1.1,2.6-1.5,5.6-2.6,8.2s-3.4,1.3-5.4,0.8l-23.5-5l-11.7-2.5c-1.7-0.3-3-0.3-2.2-2.4c0.3-0.6,0.7-1.1,1.3-1.5
					c0.5-0.4,1.1-0.8,1.8-0.9c1.8-0.5,3.7-0.8,5.6-0.9c3.9-1,7.6-2.7,10.7-5.2c2.5-1.6,4.9-3.4,7.1-5.4
					C602.4,294.7,606.2,283.3,611.6,273.1L611.6,273.1z"/>
				<path class="st10" d="M586,258.1c1.6-2.2,3.7-3.9,6.2-4.9c5.6-1.9,11.1,2.8,16.8,4.1c4.3,1,9.7,0.4,12.2,4
					c0.8,1.5,1.2,3.2,1.2,5c0,1.7-0.4,3.4-1.2,5c-4.8,15.4-10.8,30.5-17.8,45.1c-2.8,5.8-6.5,11.1-9.4,16.7
					c-3.4,6.2-4.1,12.7-8.9,18.2s-13.7,9.4-20.8,6.6c-3.6-1.6-6.6-4.2-8.7-7.4c-8.9-12.9-2.7-26.6,2.2-39.5
					C561.4,301.7,584.3,260.1,586,258.1L586,258.1z"/>
				<path class="st12" d="M662.8,442.6c-6,1.1-13.1,5.4-19.3,4.2c-6.9-3.3-14.3-5.3-21.9-5.8c-10.2-1.2-20.9-5.8-30.7-9
					c-4.1-0.9-8-2.9-11.2-5.7c-6-6.2-4.2-16.2-3-24.7c1.8-12.5,1.5-25.2-0.8-37.6c-0.9-5.8-2.4-11.6-4.5-17.1
					c-1.9-4.3-4.8-7.1-4.1-12.2c0.6-4.5,3.7-9.8,8.8-10.2c2.7,0.1,5.3,0.9,7.5,2.3c6.4,3.4,13.3,5.9,20.5,7.2
					c8.7,1.1,17.6-0.3,25.5-4.1c7.9-3.7,14.6-9.7,19.4-17.1c4.7-7.4,9.3-41.4,22.4-36.7c4.2,1.8,8,4.5,11.1,7.9
					c3.1,3.4,5.4,7.5,6.7,11.9c2.6,8.9,3.6,18.1,3.1,27.3c-0.3,23.9-5,48.3-8.1,72.1c-1.2,9-2.6,42.4-14.5,45.3
					C667.5,441,665.2,442.1,662.8,442.6L662.8,442.6z"/>
				<path class="st8" d="M578,309.5c-2.2-1.4-4.7-2.2-7.2-2.3c-2.6-0.2-5.1,0.3-7.5,1.4c-2.3,1.2-4.2,2.9-5.6,5.1
					c-1.4,2.2-2.1,4.7-2.2,7.3c0.2,3.5,1.4,6.9,3.4,9.8c1.1,1.9,2.6,3.5,4.3,4.8c2.8,1.7,6.1,2.4,9.3,1.9c2.9-0.1,5.8-0.9,8.4-2.3
					c3.8-2.2,8.8-8.3,7.5-13.1C586.3,317,582.7,312.6,578,309.5L578,309.5L578,309.5z"/>
				<path class="st10" d="M683.4,280c14.4,23.9,19.4,52,24.2,79.5c0.8,3.4,1,6.8,0.4,10.2c-0.9,3-2.6,5.8-4.9,7.9s-5.1,3.7-8.2,4.5
					c-6.1,1.4-12.5,1.8-18.7,1c-13.4-0.9-29.3-2-40.7-9.8c-3.9-2.7-7.4-6-11.4-8.5c-3.9-2.3-8-4.3-12.1-6c-8-3.7-15.6-8.1-22.7-13.3
					c-2.5-1.5-4.5-3.6-5.9-6.1c-2.3-4.6-0.5-10.2,1.3-15c0.3-1.2,1.1-2.3,2.1-3.1c1.4-0.6,3-0.6,4.4,0c19.2,5.7,38.8,10.1,58.6,13.1
					c5.4,0.9,3-5.1,2.3-8.2c-1.2-4.4-2.2-8.8-2.9-13.2c-0.7-6.4,0.2-12.9,2.6-18.9s6.2-11.3,11.1-15.5c2.5-2.4,5.7-3.9,9.2-4.3
					C676.6,274.4,680.7,276.5,683.4,280z"/>
				<path class="st8" d="M610.5,224c-0.5-2.4-0.9-4.8-1.1-7.2c-1.2-10.2-2.2-20.9,2.9-29.7c2.1-3.7,5.1-6.8,8.8-8.9
					c7.5-4.4,16.7-4.4,24.2,0c3.7,2.1,6.7,5.2,8.8,8.9c2.9,5.5,4.2,11.8,3.7,18c-0.6,6.2-1.7,12.3-3.4,18.3
					c-1.6,6.4-5.8,10.2-8.2,16.1c-0.8,2.5-1.2,5.1-1.1,7.8c0.3,3.9,0.3,7.9,0,11.9c-3.9,2.6-8.3,4.1-13,4.6c-2.2,0-4.3-0.4-6.4-1.1
					c-1.2-0.2-2.2-0.9-2.9-1.9c-0.3-0.9-0.4-1.8-0.2-2.7c0-0.9,0.2-1.7,0.2-2.5c0.5-4.3,0.4-8.6-0.2-12.8c-1.4-3.3-3.7-6.2-6.6-8.3
					C613.1,231.7,611.2,228,610.5,224L610.5,224L610.5,224z"/>
				<path class="st12" d="M613,228.7c4.6-0.6,9.2-1.5,13.7-2.8c1.5-0.4,3.4-0.8,4.6,0.3c0.5,0.6,0.9,1.3,1,2.1
					c0.6,1.5,0.8,3.2,0.8,4.8c-0.3,1.4-0.6,2.7-1.1,4c-0.4,1.3-0.3,2.8,0.4,4c1.1,1.5,3.4,2,3.9,3.8s-0.8,2.5-1.2,3.8
					c-0.4,1.5-0.8,3.1-0.9,4.6c0,1.8-0.3,3.6-0.8,5.4c-0.4,0.9-0.9,1.7-1.7,2.3s-1.6,1.1-2.5,1.4c-0.9,0.2-1.9,0.2-2.9,0
					c-1-0.2-1.8-0.6-2.6-1.2c-2-2.1-3.2-4.9-3.4-7.8l-1.8-9.2c-0.5-3.2-1.4-6.3-2.5-9.4c-1.1-2.1-2.4-4.1-3.8-6L613,228.7L613,228.7
					z"/>
				<path class="st13" d="M322.3,404.9c0,0,2.1,8.6-18.2,15s-27.8-15-27.8-15S314.8,389.9,322.3,404.9z"/>
				<g>
					<path class="st14" d="M217.8,621.5l2.4-9l6.1-23.3c0.2-1.1,0.7-2.1,1.4-3c0.9-0.8,3.8,8.1,5,8c6.7-0.4,13.4,0.1,20,1.5
						c1.8,0.3-5.4,100.6-6,110.5c-1.5,22.5-0.3,67.1,3,66.8c-6.6,0.5-20.1,1.3-22.9-1.7c-5.1-5.1,3.7-38.1-5.9-76.9
						c-2.4-9.5-3.7-19.3-3.9-29.1C216.7,651,214.3,635.4,217.8,621.5L217.8,621.5z M264.9,733.1c0.7-1.3,1.4-2.8,1.8-4.2
						c1.6-5,0.4-10.2,0.7-15.3c0.2-2.7,0.2-5.4,0-8c-0.5-6.8-1.4-13.7-2.3-20.5c-1.5-11.5-4.2-23.5-4.2-35.1c0-9,7.2-37.2,7.2-37.2
						l-7.2-36.8h36.7c0,0,4.7,30.7,3.4,34.2c-2.7,7-4.3,14.3-4.7,21.8c0,13.2-1.8,26.6-2.8,39.8l-3.4,43.2l-1.3,15.5
						c-0.3,7.6,1.1,15.2,4.1,22.2c1.2,3.2,2.5,7.1,0.2,9.7s-7.1,1.7-10.2,0c-4.5-3-9.3-5.6-14.3-7.8c-2-0.5-3.9-1.2-5.6-2.3
						c-3.4-2.6-3.4-7.8-1.8-11.8C262.5,737.9,263.6,735.5,264.9,733.1L264.9,733.1L264.9,733.1z"/>
				</g>
				<path class="st13" d="M288.6,302.8c0,0-4.2-11,5.3,0s24.7,76,24.7,76s-21.3,19.5-27.3,15.7S288.6,302.8,288.6,302.8z"/>
				<path class="st15" d="M279.5,199.1c11.9,4.9,14.8,22.6,14,33.7c-1.1,14-12.8,27.9-8.7,42c2.6,7.2,3.9,14.8,3.6,22.5
					c-0.8,7.6-5.5,15.4-12.9,17.1c-1.8,0.2-3.5,0.7-5.2,1.4c-2.1,1.5-3.8,3.6-4.7,6c-6.9,14-19.1,24.6-33.8,29.6
					c-14.7,4.5-32.1,1-42.6-10.2s-12.1-30.4-2.2-42.2c2.8-3.4,6.7-6.5,6.8-10.9c-0.1-2-0.4-4-0.9-6c-0.5-3.8,0.1-7.6,1.9-11
					c1.8-3.4,4.6-6.1,8-7.9c5.5-2.7,12.6-2.5,16.8-6.8c4.8-5,3.6-12.8,3.4-19.7C220.9,200.7,248,186.1,279.5,199.1L279.5,199.1z"/>
				<g>
					<path id="L" class="st16" d="M201.8,499c-2.9,28,2.1,56.7,7.1,84.6c1.2,6.6,2.6,13.7,7.5,18.2c3.8,3.1,8.4,5.1,13.3,5.9
						c31.9,7.4,65.3,3.9,94.9-9.9l-7.5-69.7c-2-18.5-4.1-37.6-10.8-55.1c-1.2-3.2-20.5-35.5-15.9-38.3c-9.1,5.6-19.6,4.8-30.1,7.2
						c-12.3,2.9-24.2,7.5-35.2,13.7c-5.7,2.5-10.6,6.4-14.3,11.4c-3.7,5-6,10.8-6.7,17C203.1,489,202.3,494,201.8,499L201.8,499
						L201.8,499z"/>
				</g>
				<g>
					
						<linearGradient id="L_3_" gradientUnits="userSpaceOnUse" x1="147.9524" y1="941.4622" x2="322.9524" y2="953.9622" gradientTransform="matrix(1 0 0 -1 0 1474)">
						<stop  offset="1.000000e-02" style="stop-color:#000000"/>
						<stop  offset="8.000000e-02" style="stop-color:#000000;stop-opacity:0.69"/>
						<stop  offset="0.21" style="stop-color:#000000;stop-opacity:0.32"/>
						<stop  offset="1" style="stop-color:#000000;stop-opacity:0"/>
					</linearGradient>
					<path id="L_1_" class="st17" d="M201.8,499c-2.9,28,2.1,56.7,7.1,84.6c1.2,6.6,2.6,13.7,7.5,18.2c3.8,3.1,8.4,5.1,13.3,5.9
						c31.9,7.4,65.3,3.9,94.9-9.9l-7.5-69.7c-2-18.5-4.1-37.6-10.8-55.1c-1.2-3.2-20.5-35.5-15.9-38.3c-9.1,5.6-19.6,4.8-30.1,7.2
						c-12.3,2.9-24.2,7.5-35.2,13.7c-5.7,2.5-10.6,6.4-14.3,11.4c-3.7,5-6,10.8-6.7,17C203.1,489,202.3,494,201.8,499L201.8,499
						L201.8,499z"/>
				</g>
				<g>
					
						<linearGradient id="L_5_" gradientUnits="userSpaceOnUse" x1="262.7813" y1="1039.166" x2="262.7813" y2="862.502" gradientTransform="matrix(1 0 0 -1 0 1474)">
						<stop  offset="0" style="stop-color:#563CB3"/>
						<stop  offset="1" style="stop-color:#BE6AD1"/>
					</linearGradient>
					<path id="L_2_" class="st18" d="M201.8,499c-2.9,28,2.1,56.7,7.1,84.6c1.2,6.6,2.6,13.7,7.5,18.2c3.8,3.1,8.4,5.1,13.3,5.9
						c31.9,7.4,65.3,3.9,94.9-9.9l-7.5-69.7c-2-18.5-4.1-37.6-10.8-55.1c-1.2-3.2-20.5-35.5-15.9-38.3c-9.1,5.6-19.6,4.8-30.1,7.2
						c-12.3,2.9-24.2,7.5-35.2,13.7c-5.7,2.5-10.6,6.4-14.3,11.4c-3.7,5-6,10.8-6.7,17C203.1,489,202.3,494,201.8,499L201.8,499
						L201.8,499z"/>
				</g>
				<path class="st14" d="M278.9,273.1c0,0-9.3,11.7-9.3,19c-0.1,4.8-0.8,9.5-1.9,14.1c0,0-1.5,8.6-6.2,5.3s-21.6-25.9-21.6-25.9
					l18.3-24.5L278.9,273.1z"/>
				<path class="st13" d="M307.3,480.6c0,0-3.8-41.8-10.7-58.6c-1.9-6.1-2.4-12.5-1.4-18.8c1.4-14.8,5.9-29,8.3-43.7
					c0.7-6.6,0.3-13.2-1.4-19.6c-2.5-12.7-5.5-25.3-8.9-37.8c-0.3-1.6-1-3.1-2-4.4c-1.2-1.1-2.6-1.8-4.1-2.3l-18.3-6.8
					c1.9,5.9,3.7,12.4,1.1,18c-0.6,1.6-1.9,3-3.4,3.8c-3.4,1.4-6.8-0.9-9.6-3.4c-4.1-4-7.3-8.9-9.4-14.3c-1-2.8-1.7-5.7-2.2-8.7
					c-0.3-2.1,0.3-5.2-1.3-6.7c-2.6,4.6-8,6.8-12,10s-9.3,6.8-14.2,10.2c-4.1,2.2-7.4,5.6-9.6,9.8c-1.1,3.5-1.1,7.2,0,10.7
					c0.9,3.9,2.2,7.7,2.9,11.6c0.7,5,1.1,10,1.2,15.1c0.8,7.5,2.2,14.9,4,22.2c0.7,4.5,1.1,9,1.3,13.5c0,0,6.8,25.4,5.5,31.6
					s-14.1,30.2-14.9,40.7s4.1,32.6,4.1,32.6l24.9,1.3c15.4,0.6,43.4-5.9,45.5-8c2.7-2.7,4.2-22.2,4-35.2l11.1,37.2L307.3,480.6
					L307.3,480.6z"/>
				<path class="st19" d="M216.4,506.2c2.6,0.8,3.4,3,5.3,5.9c2.6,4,4.9,8.1,7.1,12.3c0.6,0.6,0.6,1.6,0,2.2
					c-0.3,0.2-0.6,0.4-0.9,0.4c-2.2,0.8-4.5,1-6.8,0.6c-0.9,5.5,0,11.1,2.4,16.1c0.6,1.2,1.2,2.8,0.2,3.8c-0.4,0.3-1,0.5-1.5,0.6
					c-4.9,0.3-9.7-0.9-13.9-3.4c-2.4-1.1-4.7-2.6-6.6-4.4c-2.6-3.1-4.5-6.7-5.6-10.6c0-2.5,0.2-4.9,0.7-7.3c0-1.1,1.2-15.8,1.5-15.8
					l15.8-0.6C214.9,505.9,215.7,506,216.4,506.2L216.4,506.2L216.4,506.2z"/>
				<path class="st10" d="M216.5,500.4l1.3,6.4l-22,3.8v-7.3L216.5,500.4z"/>
				<path class="st13" d="M216.5,416.4c0,0,17.5-42.1,15.1-57s-12.5-49.5-19.9-49.2s-9.8,10.2-9.8,19.5S187,422,186,429.7
					s8.4,78.6,8.4,78.6l24.9-5.5L216.5,416.4L216.5,416.4z"/>
				<path class="st19" d="M283.6,210.8c0.4,0.2,0.7,0.5,1,0.9c1.8,3.1,2.9,6.5,3.4,10c4.8,17.1,11.4,33.3,2,50.3
					c-0.7,1.4-1.6,2.6-2.8,3.6c-1.2,0.8-2.6,1.4-4.1,1.6c-6.9,1.4-14.1,0.3-20.3-3.2c-3.5-1.7-6.9-3.5-10.2-5.6
					c-1.4-1-2.6-2.3-3.4-3.9c-0.8-1.6-2-3.2-1.5-5.1c0.4-1.3,1.1-2.4,1.4-3.8c0.3-2.1-0.1-4.2-1.1-6c-0.2-0.4-0.4-0.8-0.4-1.3
					c-0.1-0.5,0-0.9,0.1-1.4c0.6-1.5,2.7-1.4,4.2-1.7c1.3-0.5,2.4-1.2,3.4-2.2c1-1,1.7-2.1,2.2-3.4c1.5-3.1,2.7-6.3,3.4-9.6
					c0.5-2.9,1.3-5.7,2.5-8.3c2.3-3.7,5.6-6.6,9.5-8.4C275.5,211.7,280.6,208.9,283.6,210.8z"/>
				<g>
					<path class="st20" d="M291.2,235.6l1.5-1.3c0,0,0.4,1,1,0.9c0.5-0.1,1-0.3,1.4-0.5c0,0-0.9,1.2-1.4,1.3c-0.8,0.1-1.6,0.1-2.4,0
						L291.2,235.6z"/>
					<path class="st20" d="M292.5,234.4l0.6-1.2c0,0,0.5,0.5,0.9,0.3c0.3-0.2,0.5-0.4,0.7-0.6c0,0-0.2,1-0.5,1.2
						c-0.5,0.2-1.1,0.4-1.6,0.5L292.5,234.4z"/>
				</g>
				<path class="st21" d="M367.6,345h-63.9l-54.8,69.3l60.3-2.4L367.6,345L367.6,345z"/>
				<path class="st14" d="M329.6,401.6c0.1-0.7,0.2-1.3,0.4-2c0.8-4.3,0.7-8.7-0.3-12.9c-1-4.3-3.7-8-7.3-10.4
					c-0.3-0.2-0.6-0.3-0.9-0.4c-0.5,0-1,0.2-1.3,0.5c-0.4,0.3-0.6,0.8-0.6,1.3c0,1,0.2,2,0.6,2.8c1.1,2.8,1.9,5.7,2.4,8.7l-3.2-3.7
					c-0.9-1.2-2.1-2.2-3.4-2.8c-1.5-0.6-3.1,0.1-3.7,1.6c-0.2,0.8,0,1.7,0.3,2.5l3,8.7c-1.4-2.8-3.6-5.1-6.4-6.5
					c-1.1,1.5-1.1,3.6,0,5.2c1.1,1.6,2,3.2,2.8,5c-0.7-0.8-1.4-1.8-1.9-2.7c-0.7-0.9-2.1-1.4-2.9-0.6s-0.5,1.8-0.3,2.7
					c2.1,6.5,2.9,13.4,2.4,20.2l3.8-0.9c3-1,5.9-2.4,8.5-4.3c2.2-1.3,4-3,5.4-5.1C328.3,406.5,329.2,404.1,329.6,401.6L329.6,401.6
					L329.6,401.6z"/>
				<g>
					<path class="st22" d="M728.2,395.9c1.2-1,3-1.7,4.1-0.8c0.4,0.4,0.6,0.9,0.8,1.4c0.2,0.5,0.2,1.1,0.1,1.6v6.1
						c10.4-3.2,18.3-11.5,25.9-19.3c1.6-1.6,4-3.4,5.9-2.3c0.7,0.5,1.3,1.3,1.5,2.1c0.3,0.8,0.3,1.8,0.1,2.6c-0.6,1.6-1,3.4-1.2,5.1
						c0,2.8,2,5.2,2.3,8c0.3,3.4-2,6.5-2.3,9.9v3.4c-0.5,2.1-1.5,4-3,5.6c-3.4,5.2-8,9.5-13.4,12.7c-3.7,1.6-7.5,2.6-11.5,3.1
						l-12.4,2.1c-1.2,0.3-2.5,0.3-3.7,0c-3.7-1.3-4.9-7.3-4.7-10.7c0.5-3.1,1.7-6.1,3.4-8.8C722.8,410.8,722,401.1,728.2,395.9
						L728.2,395.9z M361.3,358.3c-0.8-1.3-2.3-2.5-3.7-1.9c-0.5,0.3-0.9,0.7-1.2,1.1c-0.3,0.4-0.5,0.9-0.6,1.5l-1.9,5.8
						c-9-6.1-14-16.4-19-26.1c-1.1-2-2.8-4.4-5-3.9c-0.8,0.3-1.5,0.9-2,1.6c-0.5,0.7-0.7,1.6-0.7,2.4c0,1.7-0.1,3.5-0.4,5.2
						c-0.8,2.7-3.4,4.4-4.6,6.8c-1.3,3.1,0,6.8-0.7,10.2c-0.2,1.1-0.7,2.2-0.9,3.4c-0.1,2.1,0.3,4.3,1.2,6.2
						c1.7,6,4.8,11.5,8.9,16.1c3,2.6,6.4,4.7,10,6.4l11.2,5.7c1,0.6,2.2,1,3.4,1.1c3.9,0,6.8-5.5,7.7-8.8c0.4-3.1,0.2-6.3-0.5-9.4
						C362.1,374.1,365.6,365.2,361.3,358.3L361.3,358.3z"/>
				</g>
				<g>
					<path class="st23" d="M468,914c0,0.3,0.1,0.5,0.3,0.8c1.5,4,6.4,5.3,10.7,5.8c3.9,0.5,7.9,0.7,11.9,0.6c1.9,0,3.8-0.2,5.6-0.8
						c1.7-0.7,3.3-1.7,4.7-2.8l11.4-8.5c3.2-2.2,6.1-4.8,8.7-7.7c2.6-3,3.9-6.8,3.8-10.7c-0.1-1.9-0.8-3.8-2.1-5.3
						c-1.2-1.5-2.9-2.6-4.8-3.1c-2.4-0.2-4.8-0.2-7.2,0.2c-4.9,0.2-11.7-1.8-13.7-6.8c-0.5-2.2-1.7-4.1-3.4-5.5
						c-1.7-0.7-3.5-1-5.3-0.6c-4,0.2-7.9,0.9-11.6,2.3c-1.9,0.7-3.6,1.8-5,3.2c-1.4,1.4-2.5,3.1-3.1,5c-0.4,1.8-0.6,3.6-0.5,5.4
						c0.2,3.7,0.2,7.4,0,11.1c-0.6,4.6-0.8,9.3-0.8,14C467.6,911.5,467.8,912.8,468,914L468,914z M578.9,915.4
						c-7.7,3.5-15.6,6.5-23.7,9c-3.2,1.4-6.9,1.6-10.2,0.6c-1.3-0.7-2.5-1.6-3.5-2.8c-0.9-1.2-1.6-2.6-1.9-4c-0.7-2.9-1-5.9-0.9-8.8
						c0-5,2-8.8,2.8-13.5c0.7-4.1,1.3-8.2,1.9-12.3l2.3-17.7l20.5,4.4c2.2,0.4,4.2,8.7,5.5,10.5c1,1.3,2.2,2.3,3.7,3.1
						c1.4,0.8,3,1.2,4.6,1.3c3.4,0.2,7.1-1.4,10.6-0.9c4.7,1.1,8,5.3,8.1,10c0,2.3-0.5,4.6-1.5,6.8c-1,2.1-2.3,4-4,5.6
						c-3.5,3.1-7.4,5.6-11.7,7.4L578.9,915.4L578.9,915.4z"/>
				</g>
				<g>
					<path id="M" class="st24" d="M579.1,892.5c-5.4,3.1-11,5.7-16.7,8l-0.6,0.2c-9.5,3.7-20.1-11.2-20.1-11.2
						s-13.4-82.9-12.8-117.3c0.4-23.6-5.2-57.2-13.7-118.3c-2.1,62.3-12.7,89.7-10,112.1c4.1,34-0.8,118.4-0.8,118.4
						s-9,16.4-18.9,14.2H485c-5.9-1.4-11.8-3.1-17.4-5.4c0,0-11.5-116.1-11.5-146.9s1.3-58.1,1.3-58.1l-6-97.1l25.6-37.1l2.1-0.9
						l2-1.9l28.3-20.8c0,0,0,4.8-0.5,13.1l22,11.8l2.2,1.6l2.2,0.5l36.9,6.5l12.8,179.3C588,773.8,579.1,892.5,579.1,892.5
						L579.1,892.5z"/>
				</g>
				<g>
					
						<linearGradient id="M_2_" gradientUnits="userSpaceOnUse" x1="380.9795" y1="939.7092" x2="707.9265" y2="481.9562" gradientTransform="matrix(1 0 0 -1 0 1474)">
						<stop  offset="1.000000e-02" style="stop-color:#000000"/>
						<stop  offset="8.000000e-02" style="stop-color:#000000;stop-opacity:0.69"/>
						<stop  offset="0.21" style="stop-color:#000000;stop-opacity:0.32"/>
						<stop  offset="1" style="stop-color:#000000;stop-opacity:0"/>
					</linearGradient>
					<path id="M_1_" class="st25" d="M579.1,892.5c-5.4,3.1-11,5.7-16.7,8l-0.6,0.2c-9.5,3.7-20.1-11.2-20.1-11.2
						s-13.4-82.9-12.8-117.3c0.4-23.6-5.2-57.2-13.7-118.3c-2.1,62.3-12.7,89.7-10,112.1c4.1,34-0.8,118.4-0.8,118.4
						s-9,16.4-18.9,14.2H485c-5.9-1.4-11.8-3.1-17.4-5.4c0,0-11.5-116.1-11.5-146.9s1.3-58.1,1.3-58.1l-6-97.1l25.6-37.1l2.1-0.9
						l2-1.9l28.3-20.8c0,0,0,4.8-0.5,13.1l22,11.8l2.2,1.6l2.2,0.5l36.9,6.5l12.8,179.3C588,773.8,579.1,892.5,579.1,892.5
						L579.1,892.5z"/>
				</g>
				<path class="st22" d="M548.5,305.1c2.3,2.3,5.8,4.7,4.8,7.8c-0.5,1.6-2.3,2.6-3.4,3.8c-3.4,3.4-5.2,8-5.2,12.8
					c0.1,4.6-0.5,9.3-1.9,13.7c-1.6,4.6-6.3,7.3-11.1,6.7c-2.7-0.8-5.4-3.1-8-2c-2,0.9-2.6,3.4-3.6,5.1c-1.5,2.2-3.5,3.9-6,5
					s-5.1,1.5-7.7,1.1c-5.2-0.8-10.3-2.5-14.9-5.1c-2-0.8-3.7-2.1-4.9-3.8c-0.8-1.6-1-3.5-0.5-5.3c1-5.4,4.7-9.9,7.8-14.6
					c5.6-8.6,9-18.6,9.8-28.9c0.5-7.2,0-15.1,4.6-20.5c6.3-7.5,21.3-7.5,29.1-1.9C546.4,284.7,541.3,297.6,548.5,305.1z"/>
				<path class="st13" d="M539.2,272.6c-0.9,1.8-2.3,3.3-4,4.3c-3.4,2-6.4,4.4-9.7,6.6c-3.1,2.1-5.3,5.3-6.1,9
					c-1.4,6.8,2.3,14,0,20.5c-0.8,1.3-3,0.5-3.9-0.8s-1.3-2.9-2.7-3.7c-2.3-1.3-5,0.9-6,3.4c-1,2.8-0.9,5.9,0.4,8.6s3.5,4.9,6.2,6
					c-0.3,2.1-3,2.9-5.2,2.6c-2.1-0.6-4.3-0.9-6.5-0.8c-4.9,0.9-6.8,7.9-11.6,8.6c-1.7-0.1-3.3-0.6-4.8-1.5s-2.7-2-3.7-3.4l-5.9-6.8
					c-0.9-1.2-2-2.4-3.1-3.4c-1.3-1.1-3.4-1.1-4.6-2.4s0-4.2-1.2-5.7c-0.6-0.5-1.3-1-2-1.2c-1.7-0.9-3.1-2.3-3.9-4s-0.9-3.7-0.4-5.6
					c0.1-0.5,0.1-1,0-1.4c-0.2-0.6-1-0.9-1.6-1.2c-3.8-2.4-5.2-7.1-3.4-11.2c1-2.3,2.4-4.3,4.1-6.1c0.7-0.9,1.6-1.7,2.6-2.1
					s2.2-0.6,3.3-0.5l0.9-8.5c0.1-1.7,0.5-3.4,1.2-5c1.9-3.4,6.4-4.3,10.2-4.7l-1.6-7.1c-0.2-0.4-0.3-0.9-0.3-1.4
					c0-0.5,0.1-0.9,0.3-1.4c0.5-0.6,1.2-1.1,2-1.2c2.3-0.6,4.7-1,7-1.2c-0.9-2-1.6-4-2-6.1c-0.1-0.4-0.1-0.8,0-1.2
					c0.2-0.4,0.5-0.7,0.9-0.9c0.4-0.2,0.8-0.3,1.2-0.2c0.9,0.2,1.8,0.2,2.6,0l-1.4-6.5c-0.2-0.9-0.2-1.9-0.1-2.8
					c0.2-0.9,0.5-1.8,1-2.6c0.7-0.8,1.6-1.5,2.6-1.8c1-0.4,2.1-0.5,3.2-0.3c2.1,0.4,4.2,1.1,6,2.2c-0.2-2.3,2.7-3.4,5.1-3.6
					c4.4-0.3,8.8,0.6,12.7,2.5s7.4,4.8,9.9,8.4c0.4,0.6,0.9,1.2,1.4,1.7c1,0.7,2.2,1.2,3.4,1.5c1.8,0.8,3.5,2,4.8,3.6
					s2.3,3.3,2.8,5.3c1,3.9,1.4,7.9,1.2,11.9c0.1,3.1-0.2,6.1-0.9,9.1C540,270.7,539.7,271.7,539.2,272.6L539.2,272.6L539.2,272.6z"
					/>
				<g>
					<path class="st10" d="M506.8,346.5c5.4,2.3,10.7,4.9,15.8,7.9c1.6,0.8,2.9,2,4,3.4c0.6,0.8,0.9,1.7,1,2.7
						c0.1,1-0.1,1.9-0.4,2.8c-1.4,2.5-4.6,1.5-7.1,0.7c-11.5-4.6-23.9-5-35.7-5c-0.8,0.1-1.6,0-2.4-0.3s-1.4-0.8-1.9-1.5
						c-0.3-0.8-0.4-1.6-0.3-2.5c0.1-0.8,0.4-1.6,0.8-2.4C486.7,339.9,496.7,341.9,506.8,346.5z"/>
					<path class="st10" d="M730,442.6c-2.3,5.9-5.8,11.2-10.2,15.7c-4.2,4.7-8.6,9.3-13.1,13.7c-10.7,10.4-22,20.1-33.8,29.2
						c-8.4,6.5-17.5,12.9-28,15c-4.2,1-8.6,0.7-12.6-0.8c-3.3-1.7-6.3-4-8.8-6.8c-3-3-37.9-43.1-38.5-43.1c-2,1.1-3.5,2.8-4.3,4.9
						c-5,10.4-8.2,21.6-9.2,33.2c-0.4,5.2-0.4,10.3,0,15.5c1.4,17.5,7.5,35.6,1.4,52.1c-1.2,3.5-3.2,6.7-5.8,9.3
						c-2.6,2.2-5.5,4-8.7,5.1c-5.6,2.3-11.5,4-17.5,5c-3.4,0.6-6.8,1-10.2,1.1c-12.7,0.5-25.4-2-38.2-1.4c-10.9,0.5-21.6,3.4-32.4,3
						c-2,0.2-4-0.1-5.9-0.8c-1.9-0.7-3.6-1.8-5-3.3c-1.2-1.9-2-4-2.2-6.3c-4.2-23.2-6.4-46.8-6.5-70.4c0-10.9-1.8-50.7-5.4-58.1
						c-0.4-0.9-0.9-1.3-1.4-1.2c-12.2,3.4-38.3,10.2-50.6,12.4c-1.8,0.4-3.6,0.5-5.5,0.3c-1.9-0.5-3.6-1.4-5.1-2.6
						c-15.3-11.2-23.9-28-29.3-45.6c-1.1-3.4-2-6.8-2.9-10.2c-0.5-0.9-0.7-1.9-0.8-2.9s0-2,0.4-3c0.6-2,2-3.6,3.9-4.5
						c0.2-0.1,0.4-0.2,0.6-0.3l22.9-14.8l17.1,21.8c3.4,4.2,7.3,8.8,12.7,9.4c7.4,0.8,13-6,17.6-11.8c14.8-18.6,33.9-33.5,55.5-43.4
						c3.2-1.5,6.5-2.7,10-3.4l0.9-0.2c0.5-0.1,1-0.2,1.5-0.3c4.5-0.4,8.9-0.1,13.3,0.8c29.1,4.9,57.9,11.5,86.2,19.8
						c3.4,0.5,6.6,1.8,9.4,3.8c2.8,2,5.1,4.6,6.7,7.6l23.7,36.1c6.8,10.2,13.7,23.2,23.9,30.7c22.2-9,43.1-20.8,62.2-35.1
						c2.7-2,6.1-4.2,9.2-2.9c1,0.5,1.9,1.2,2.6,2C727.1,424.3,733.7,431.5,730,442.6L730,442.6z M895.8,362.3
						c-3,2.6-6.7,4.3-10.6,5.1c-3.6,0.1-7.2-0.5-10.5-1.8l-50.8-17.1c-3.8,3-6.4,7.3-7.2,12.1c-0.8,4.8,0.3,9.7,3,13.7
						c4.3,6,11.7,8.8,18.6,11.3l34.8,12.5c6.8,2.8,14.1,4.7,21.4,5.5c10.2,0.7,20.3-2.6,30-5.8c10.4-3.4,21.8-7.8,26.8-17.6
						s1.4-22.7,2.8-34.2c1-7.4,4.3-14.6,4.1-22.1c-0.2-6.4-5.3-16.1-12.9-14.8c-6.6,1.2-11,12.6-14.5,17.5
						C921.1,340.3,909.3,352.4,895.8,362.3L895.8,362.3L895.8,362.3z"/>
				</g>
				<g>
					<path class="st8" d="M817.5,345.7c-0.6-1.4-1.4-2.6-2.4-3.7c-0.5-0.5-1.2-0.9-1.9-1c-0.7-0.2-1.5-0.1-2.2,0.2
						c-0.7,0.4-1.2,1-1.6,1.7c-0.3,0.7-0.5,1.5-0.4,2.3c0.1,0.5,0,1.1-0.3,1.5c-0.2,0.2-0.5,0.3-0.8,0.3c-0.3,0-0.6,0-0.8-0.1
						c-5.8-1.1-11.6-2-17.5-2.6c-0.5-0.1-1-0.1-1.5,0c-1,0.3-1.7,1-2.2,1.9c-0.5,0.9-0.6,1.9-0.3,2.9c0.6,1.9,1.6,3.7,2.8,5.4
						c3,4.9,4.1,11.3,8.9,14.5c2.9,1.7,6.3,2.4,9.6,2c3.4-0.2,6.7-0.8,10-0.6c2.2,0.5,4.6,0.2,6.6-0.7c0.8-0.6,1.4-1.3,1.8-2.2
						c0.4-0.9,0.6-1.8,0.5-2.8c-0.3-3-1.4-5.9-3.2-8.4C821,352.8,819.2,349.3,817.5,345.7L817.5,345.7z M959.2,728.3
						c-19.5-4.4-15.6,23.2-20.8,33.5c-3.2,5.2-7.3,9.8-12,13.7c-4.4,4.3-8.5,9.6-8.8,15.7c-0.1,1.2,0.1,2.4,0.7,3.4
						c1,1.2,2.3,2,3.9,2.3c11.1,3.2,23.1,2,33.3-3.4c4.8-2.3,8.8-6,11.4-10.6c2.1-5,3.1-10.3,2.9-15.7
						C970.4,755.8,975.4,732,959.2,728.3L959.2,728.3z"/>
				</g>
				<path class="st9" d="M942,785.2c0,0-55.4,2.4-31.9,19.8s58.5-4.3,61.9-8.2s0.6-10.8,0.6-10.8L942,785.2z"/>
				<path class="st10" d="M969.6,792.8c-5,6-31,14.1-42.5,13.3s-21.9-6.2-20.7-13.7s21.5-24.8,25.3-24.7s6.8,8.9,14.5,10.8
					c3.4,0.6,7,0.2,10.3-1s6.2-3.2,8.5-5.9c0.7-1,1.7-1.6,2.8-1.9c1.1-0.3,2.4-0.2,3.4,0.3C973.9,773.9,974.5,786.8,969.6,792.8
					L969.6,792.8z"/>
				<path class="st8" d="M1026,739.2c-19.5-4.5-15.6,23.1-20.8,33.3c-3.2,5.3-7.3,9.9-12,13.8c-4.4,4.3-8.5,9.6-8.7,15.7
					c-0.2,1.2,0.1,2.4,0.6,3.4c1,1.2,2.4,2,3.9,2.3c11.1,3.2,23.1,2,33.3-3.4c4.8-2.3,8.8-6,11.4-10.6c2.1-5,3.1-10.3,2.9-15.7
					C1037.1,766.6,1042.2,742.7,1026,739.2L1026,739.2z"/>
				<path class="st9" d="M1008.8,795.8c0,0-55.4,2.3-31.9,19.7s58.5-4.2,61.9-8.2s0.7-10.8,0.7-10.8L1008.8,795.8L1008.8,795.8z"/>
				<path class="st10" d="M1036.3,803.3c-4.9,6.1-31,14.1-42.5,13.3s-21.9-6.2-20.7-13.7s21.5-24.8,25.3-24.8s6.8,8.9,14.5,10.7
					c3.5,0.6,7,0.2,10.3-1c3.3-1.2,6.2-3.2,8.5-5.9c0.7-1,1.7-1.6,2.8-1.9c1.2-0.3,2.4-0.2,3.4,0.3
					C1040.7,784.6,1041.3,797.3,1036.3,803.3L1036.3,803.3z"/>
				<g>
					<path class="st11" d="M975.8,488l26,273.9l37.6-4.6c14.8-66.8,11.2-266.8,11.2-266.8L975.8,488L975.8,488z"/>
					<path class="st11" d="M1001.8,480.6l-26,273.9l-37.6-4.6c-21.4-173.3-3.8-281.2-3.8-281.2L1001.8,480.6z"/>
				</g>
				<path class="st10" d="M937.7,381.6c-0.4-5-1.8-10-2.3-15.1c-1.2-10.3-1-20.8,0.6-31.1c1.8-11,5.1-21.6,9.8-31.6
					c4.3-8.7,12.2-12.4,20.9-16.7c7.4-4,15.3-6.7,23.6-8c5.8-0.5,11.7-0.2,17.5,1c17.7,3.4,41,12.5,53,26.4
					c9.1,10.5,10.2,25.5,10.4,39.3c0.4,19.1,0,38.3-1.2,57.4c0,2.8-0.3,5.5-0.6,8.3c-1.6,21-3.4,42.7-9.3,63
					c-1.9,6.4-3.9,12.7-9.7,16.2c-13.7,8.1-35,3.6-49.9,1.5c-19.8-2.8-40.2-5.8-57.8-15.4c-3.7-1.6-6.6-4.5-8.4-8.1
					c-1.5-4.3,0.3-9,1.7-13.4c5.9-19.6,1.3-40.1,1.3-60.1c0-3.6,0.5-7.3,0.5-10.9C937.9,383.4,937.7,382.4,937.7,381.6L937.7,381.6z
					"/>
				<path class="st12" d="M993.2,473.5c-0.1-2.1,0.4-4.2,1.5-6c2.3-2.8,6.6-2.2,10-1.3l22.3,5.5c8.4,2.1,21.4,10.2,23.6,18.8
					c8.6-6,10.8-16.1,12.4-26.5c1.6-10.3,1.7-30.5,3.4-41c-10.9,7.8-23.9,12.3-37.3,12.7c-12.7,0.3-28.6,0-33.2-13.7
					c-5.3-16-7.1-32.8-10.7-49.1c0-0.4-0.1-0.8-0.2-1.1s-0.4-0.6-0.7-0.9c-0.3-0.2-0.6-0.4-1-0.5c-0.4-0.1-0.8-0.1-1.1,0l-48.2,0.5
					c-0.8,0-1.5,0.1-2.2,0.4c-1.4,0.9-1.4,2.9-1.2,4.5c1.8,10.9,7.3,20.8,15.5,28.2c3.9,3.4,6.5,5.7,7.2,10.8
					c0.9,6,0.7,12.4,1.3,18.5c1.1,12.8,3.9,25.5,8.4,37.6C969.9,488,991.9,501.4,993.2,473.5L993.2,473.5z"/>
				<path class="st21" d="M980.1,487.4h-71.7l-8.9-111.5h71.7L980.1,487.4z"/>
				<path class="st8" d="M975.9,251.5c0-5.3,0.4-10.5,1-15.7c0.5-4.5,1.2-9.1,2.1-13.7c0-1.3,0.4-2.6,1-3.8s1.4-2.2,2.5-3
					c7-4.3,15.2-6.6,23.4-6.4c4.9-0.8,10,0.4,14,3.4c4,2.9,6.7,7.4,7.5,12.3c0.2,1,0.2,2,0.2,2.9c1.2,11.5-1.7,23-3.4,34.4
					c-1.3,8.9-1.8,17.8-1.4,26.8c-4.3,2.9-9.3,4.6-14.5,5.1c-2.4,0-4.8-0.4-7.1-1.2c-0.6-0.1-1.3-0.4-1.8-0.7
					c-0.5-0.4-1-0.8-1.4-1.4c-0.4-0.9-0.4-2-0.2-3c0.1-0.9,0.2-1.9,0.2-2.8c0.4-5.2,0.3-10.5-0.3-15.7c0-0.2,0-0.4-0.1-0.6
					c-0.1-0.2-0.2-0.4-0.4-0.5c-0.4-0.1-0.7-0.1-1.1,0h-1.5c-2.6,0.2-5.2,0.2-7.8,0c-3.1-0.3-6-1.8-8.2-4.1
					C976.3,260.2,975.2,255.8,975.9,251.5L975.9,251.5L975.9,251.5z"/>
				<path class="st26" d="M986.5,217.8c-1.8,0.8-3.9,0.8-5.7,0c-1.9-1-3.5-2.6-4.5-4.4c-2.1-3.2-2.9-7.1-2.2-10.9
					c0.7-3.8,2.9-7.1,6.1-9.3c2.5-1.7,5.2-3,8.2-3.6c2.9-0.6,6-0.7,8.9-0.2c1.6-1,3.3-1.6,5.1-1.9c7-2.1,14.5-2.6,21.8-1.3
					c4.1,1.2,8,3.1,11.4,5.7c3.3,2.2,6.1,5.1,8.3,8.4c2.1,4.3,3.4,8.9,3.9,13.7c1.1,5.1,1.7,10.2,1.8,15.4c0,2.3-0.4,4.5-1.3,6.6
					c-1,2.3-2.5,4.4-4.3,6.2c-2.7,2.7-5.8,5-9.1,6.8c-2.3,1.3-5,2.6-5.8,5.2c-0.2,1.2-0.3,2.4-0.3,3.6c-0.1,1.8-0.9,3.5-2.1,4.8
					c-0.8,0.9-2.2,3-3.4,3.4c-1.2,0.4-2.2-1.1-2.6-2.4c-1.5-5.2-1.1-10.7,1-15.6c1.5-2.4,2.4-5.2,2.6-8c-0.3-2.8-4.1-5-5.9-3.4
					s-2.2,5.7-4.4,4.9c2.6-8-0.8-18-8.4-21.2c-4.1-1.2-8.4-1.8-12.7-1.8c-2-0.4-4.1-0.6-6.2-0.7L986.5,217.8L986.5,217.8z"/>
				<path class="st27" d="M994.8,267.6c6.1-1.1,12-2.9,17.7-5.3c0.5,18.5-14.5,22.3-14.5,22.3c0.4-5.2,0.3-10.5-0.3-15.7
					c0-0.4-0.1-0.9-0.4-1.2c-0.4-0.1-0.7-0.1-1.1,0h-1.4L994.8,267.6L994.8,267.6z"/>
				<path class="st10" d="M1083.6,372.1l8.5,37.4c0.9,3.1,1.3,6.3,1.1,9.6c-0.6,6-4.8,11-8.7,15.6c-4.9,6.5-11,11.9-18,15.9
					c-4.9,2.1-10,3.5-15.3,4.1c-13.9,2.1-28.1,2.9-42.2,2.4c-1.1,0-2.2-0.2-3.2-0.6c-1-0.7-1.9-1.5-2.5-2.6
					c-4.9-7.5-9.2-15.3-12.7-23.6c11.3-7.6,23.7-13.4,36.8-17.2c2.6-0.5,5.1-1.7,7.1-3.4c1.3-1.7,2.2-3.6,2.6-5.7
					c5.6-23.9-7.3-50.5,3-72.8c5.8-12.7,18.3-26.3,27.3-9.4C1076,337,1079.7,355.1,1083.6,372.1L1083.6,372.1z"/>
				<path class="st8" d="M980.9,430.4c-1.5-1.2-3.2-2.2-4.9-3.1c-0.9-0.4-1.8-0.6-2.8-0.6c-1,0-1.9,0.3-2.7,0.8
					c-0.8,0.5-1.3,1.4-2.3,1.7c-0.6,0.1-1.2,0.1-1.8,0l-11.4-1.2c-0.9-0.2-1.8-0.2-2.8,0c-0.9,0.2-1.8,0.6-2.5,1.2
					c-1.5,1.7-0.6,4.3,0.4,6.3c2.9,5.9,6.2,11.7,9.8,17.3c0.7,1.1,1.5,2.2,2.4,3.1c1.3,1,2.8,1.7,4.4,2c5.9,1.4,12,1.1,17.8-0.8
					c5.7-1.9,11-4.8,15.7-8.5c0.7-0.5,1.3-1.1,1.7-1.8c0.5-0.8,0.8-1.8,0.8-2.7c0.5-4.4-0.8-11.5-6.6-11.2
					C991,434,985.5,433.1,980.9,430.4L980.9,430.4L980.9,430.4z"/>
				<g>
					<path class="st23" d="M261.3,741.5c0.2-0.4,0.6-0.7,1-0.9c1-0.3,1.8,0.5,2.5,1.3c5.9,6.8,14.8,10.2,23.2,13.3
						c0.5,0.2,1.2,0.3,1.6,0s0.4-0.7,0.6-1.1c0.3-0.4,0.8-0.7,1.3-0.9c0.5-0.1,1-0.1,1.5,0.1c0.9,0.5,1.8,1.1,2.5,1.9
						c3.4,3.1,8.3,4.4,12.1,7.2c1,0.6,1.8,1.6,2.2,2.7c0.1,0.6,0.1,1.2-0.1,1.8c-0.2,0.6-0.5,1.1-0.9,1.6c-0.9,0.9-2.1,1.5-3.4,1.8
						c-2.3,0.5-4.8,0.6-7.1,0.3c-11.8-0.9-23.6-2.1-35.3-3.8c-0.9-0.1-1.8-0.3-2.6-0.7c-0.9-0.7-1.6-1.7-2-2.8s-0.6-2.2-0.5-3.4
						c0.1-3.1,0.5-6.1,1.1-9.1C258.6,747.6,259.5,744.3,261.3,741.5L261.3,741.5L261.3,741.5z M227.9,762.7c1.4,0.8,2.9,1.3,4.4,1.5
						c2.7,0.7,5.5,0.8,8.2,0.3c1.4-0.3,2.6-0.9,3.6-1.8c1-0.9,1.7-2.2,2.1-3.5c0-0.8,0.6-2,1.3-1.6c0.2,0.1,0.3,0.3,0.4,0.4
						c1.9,3.7,2.9,7.7,2.9,11.8c0.4,2.2,0.2,4.5-0.5,6.6c-0.6,1.2-1.5,2.2-2.5,2.9c-1,0.8-2.3,1.3-3.5,1.5c-2.5,0.5-5.1,0.5-7.7,0
						l-6.5-1.3c-0.9-0.1-1.8-0.5-2.6-1.1c-0.6-0.6-1.1-1.4-1.4-2.2c-1.7-4.1-2.4-8.5-1.9-12.9c0.1-0.9,0.3-1.9,0.5-2.8
						c0-0.4,0.3-2.2,0.9-2s0.4,0.4,0.4,0.9c0,0.4,0.1,0.9,0.2,1.3C226.5,761.5,227.1,762.2,227.9,762.7L227.9,762.7z"/>
				</g>
				<path class="st13" d="M604.4,178.2c-0.6-2.6-0.1-5.2,1.2-7.5c1.1-1.3,2.6-2.3,4.2-2.8c1.7-0.6,3.5-1.1,5.3-1.4
					c0.9-0.1,1.8-0.3,2.6-0.8c0.6-0.5,1.2-1.2,1.6-1.9c2.7-3,6.6-4.5,10.6-4.1c3.9,0,7.8,1.2,11.7,1.3s8.7-0.5,12.2,1.6
					c2.7,2,4.6,5,5.2,8.3c1.4-0.2,2.8,0.1,3.9,0.9c2.2,2,0,6,1.9,8.4c0.9,1.1,2.5,1.6,3.4,2.8c0.6,1.1,0.8,2.5,0.5,3.7
					c-0.1,1.4-0.3,2.8-0.6,4.1c-1,3.8-3.4,6.8-4.6,10.6c-0.6,2-0.7,4.1-1.2,6c-1.3,4.4-3.5,8.5-6.3,12.1c2-9,2.2-18.3,0.6-27.3
					c0-0.4-0.1-0.8-0.3-1.2c-0.2-0.4-0.5-0.6-0.9-0.8c-0.5-0.1-1.1,0-1.6,0.2c-9.1,3.6-19.1,4-28.5,1.1c-2.7-1.2-5.6-1.7-8.5-1.4
					c-1.2,0.3-2.3,0.8-3.4,1.3c-1.2,0.4-2.5,0.4-3.6,0c-0.2,0.5-0.4,1.1-0.4,1.6c-2.2-0.5-2.1-3.7-2.7-5.5
					C605.7,184.8,604.9,181.5,604.4,178.2L604.4,178.2L604.4,178.2z"/>
				<g>
					<path class="st8" d="M663.4,210.8c0.2,0.3,0.4,0.7,0.4,1.2c0.5,2.3,0,4.8-1.2,6.8c-1.2,2.1-3,3.7-5.2,4.8
						c-0.6,0.3-1.2,0.5-1.8,0.6c-0.6,0.1-1.3,0-1.9-0.2c-0.6-0.4-1.1-0.9-1.4-1.6s-0.5-1.3-0.6-2c-0.3-1.5-0.3-3,0-4.4
						c0.3-1.5,1-2.8,1.9-4c0.8-0.8,1.7-1.4,2.7-1.8c1-0.4,2.1-0.6,3.2-0.6C660.9,209.3,662.3,209.8,663.4,210.8L663.4,210.8
						L663.4,210.8z M629.4,243.2c0.2,1.4-0.9,2.6-1.1,4s0,3.1,0,4.6c-0.1,1.9-0.7,3.8-1.8,5.4c-1.4,1.4-3.1,2.3-5,2.8
						c-3.8,1.4-7.9,2.2-12,2.2c-1.7-0.1-3.4-0.3-5.1-0.6c-2.7-0.4-9.7-0.2-10.2-3.9c0.2-2,0.7-4,1.6-5.8c0.3-1,0.6-2,0.9-3
						c0.3-1.2,0.6-2.5,0.9-3.7c1.3-5.9,2.2-12.4,6.8-16.4c1.2-1.1,3.1-1.8,4.2-0.6s0.7,2.8,1.9,3.1c0.4,0,0.9,0,1.3-0.2
						c4.6-2.1,9.6-3,14.6-2.7c0.9,0.1,1.9,0.3,2.7,0.8c0.8,0.5,1.5,1.2,1.9,2c1.3,3.4-3,6.8-2,10.2
						C629.2,242,629.3,242.6,629.4,243.2L629.4,243.2L629.4,243.2z"/>
				</g>
				<path class="st10" d="M619.3,374.5c-0.9-0.9-1.9-1.7-3-2.5c0.7,12.7,2.8,25.9,10.5,36c2,2.3,3.9,4.7,5.6,7.2
					c3.4,5.7,3.7,13.2,8.1,18.2c3.8,3.7,8.7,6.1,14,6.8c4.6,1.6,9.6,1.4,14.1-0.5c3.5-2.7,6.2-6.4,7.5-10.6c3-7.1,8.4-17.3,3.9-24.9
					c-3.2-5.4-13.3-9.7-19.5-9.7c-8.4-2.1-16.7-5-24.7-8.5c-4-1.4-7.7-3.4-11.1-5.9C622.8,378.4,621.2,376.3,619.3,374.5
					L619.3,374.5z"/>
				<g>
					<path class="st12" d="M438.2,426.8c-2.4,7.7-3.4,15.8-3,23.9c0,1.2-0.1,2.5-0.4,3.7c-0.4-0.9-0.9-1.3-1.4-1.2
						c-12.2,3.4-38.3,10.2-50.6,12.4c-1.8,0.4-3.6,0.5-5.5,0.3c-1.9-0.5-3.6-1.4-5.1-2.6c-15.3-11.2-23.9-28-29.3-45.6
						c0.4-3.1,1.1-6.1,2-9c7.3,3.9,11.1,12,15.6,18.9c4.4,6.7,9.8,12.8,16,17.9c1.2,1.1,2.7,2,4.3,2.5c1.9,0.4,3.8,0.3,5.7-0.2
						C405.1,444.3,424.7,440,438.2,426.8L438.2,426.8z M706.7,472.1c-10.7,10.4-22,20.1-33.8,29.2c-8.4,6.5-17.5,12.9-28,15
						c-4.2,1-8.6,0.7-12.6-0.8c-3.3-1.7-6.3-4-8.8-6.8c-3-3-37.9-43.1-38.5-43.1c-2,1.1-3.5,2.8-4.3,4.9c-5,10.4-8.2,21.6-9.2,33.2
						c-0.4,5.2-0.4,10.3,0,15.5c1.4,17.5,7.5,35.6,1.4,52.1c-1.2,3.5-3.2,6.7-5.8,9.3c-2.6,2.2-5.5,3.9-8.7,5.1
						c-6.9,2.7-13.9,5.1-21,7c-3.5,1-7.1,1.3-10.7,0.6c-2-0.4-7.2-4.1-8.6-3.9c10.6-1.5,19.5-9,22.8-19.2c2.4-7.9,1.2-16.4,1.3-24.6
						c0.3-9.6,1.4-19.1,3.4-28.5l7.3-40c2.5-13.7,7.4-33.1,21.7-39.2c2.8-1.2,5.9,0.8,8.4,2.7c16.5,12.9,33.2,26.1,45,43.4
						c3.4,4.8,6.5,10.2,11.9,12.4s12.5,0.2,18.3-2.1c8.7-3.5,17.2-7.6,25.4-12.2c6.1-3.4,14.3-11.2,21.9-10.2
						C705.9,471.9,706.3,472,706.7,472.1L706.7,472.1L706.7,472.1z"/>
				</g>
			</g>
		</g>
	</g>
</g>
</svg>
